<svg width="92" height="92" viewBox="0 0 92 92" version="1.1" xmlns="http://www.w3.org/2000/svg" xmlns:xlink="http://www.w3.org/1999/xlink">
<title>Group</title>
<desc>Created using Figma</desc>
<g id="Canvas" transform="translate(-8895 -666)">
<g id="Group">
<g id="Star" filter="url(#filter0_d)">
<use xlink:href="#path0_fill" transform="translate(8909 665)" fill="#FF0000"/>
</g>
<g id="&#208;&#165;&#208;&#184;&#209;&#130; &#208;&#191;&#209;&#128;&#208;&#190;&#208;&#180;&#208;&#176;&#208;&#182;">
<use xlink:href="#path1_fill" transform="translate(8911 642)" fill="#FFFFFF"/>
</g>
</g>
</g>
<defs>
<filter id="filter0_d" filterUnits="userSpaceOnUse" x="8895" y="666" width="92" height="92" color-interpolation-filters="sRGB">
<feFlood flood-opacity="0" result="BackgroundImageFix"/>
<feColorMatrix in="SourceAlpha" type="matrix" values="0 0 0 0 0 0 0 0 0 0 0 0 0 0 0 0 0 0 255 0"/>
<feOffset dx="0" dy="15"/>
<feGaussianBlur stdDeviation="7.5"/>
<feColorMatrix type="matrix" values="0 0 0 0 0 0 0 0 0 0 0 0 0 0 0 0 0 0 0.15 0"/>
<feBlend mode="normal" in2="BackgroundImageFix" result="effect1_dropShadow"/>
<feBlend mode="normal" in="SourceGraphic" in2="effect1_dropShadow" result="shape"/>
</filter>
<path id="path0_fill" d="M 30.0096 2.24985C 31.0673 1.05434 32.9327 1.05434 33.9904 2.24985C 34.8752 3.25006 36.3649 3.43825 37.4707 2.68952C 38.7924 1.79459 40.5993 2.25852 41.3264 3.6795C 41.9347 4.86833 43.3308 5.42108 44.5881 4.97087C 46.0908 4.43276 47.7256 5.33146 48.0764 6.88862C 48.37 8.19139 49.5847 9.07396 50.9145 8.95057C 52.5038 8.80308 53.8637 10.0801 53.8163 11.6756C 53.7766 13.0104 54.7338 14.1674 56.0524 14.3785C 57.6285 14.6309 58.6281 16.206 58.1854 17.7396C 57.815 19.0226 58.4543 20.3813 59.679 20.9137C 61.1428 21.5502 61.7193 23.3244 60.9091 24.6997C 60.2313 25.8503 60.5127 27.3252 61.5665 28.1455C 62.826 29.126 62.9432 30.9878 61.8164 32.1184C 60.8737 33.0643 60.7795 34.5629 61.5961 35.6195C 62.5723 36.8824 62.2228 38.7149 60.8502 39.5297C 59.7019 40.2115 59.2379 41.6395 59.7662 42.866C 60.3976 44.3321 59.6033 46.02 58.0713 46.4679C 56.7895 46.8427 55.985 48.1105 56.1916 49.4298C 56.4386 51.0068 55.2495 52.4442 53.6542 52.4971C 52.3195 52.5413 51.2249 53.5692 51.097 54.8985C 50.944 56.4873 49.4348 57.5838 47.8764 57.2383C 46.5727 56.9492 45.2569 57.6726 44.8024 58.9283C 44.2591 60.4292 42.5246 61.1159 41.1012 60.3937C 39.9102 59.7895 38.4559 60.1629 37.7034 61.2661C 36.8039 62.5847 34.9531 62.8186 33.754 61.765C 32.7508 60.8836 31.2492 60.8836 30.246 61.765C 29.0469 62.8186 27.1961 62.5847 26.2966 61.2661C 25.5441 60.1629 24.0898 59.7895 22.8988 60.3937C 21.4754 61.1159 19.7409 60.4292 19.1976 58.9283C 18.7431 57.6726 17.4273 56.9492 16.1236 57.2383C 14.5652 57.5838 13.056 56.4873 12.9031 54.8985C 12.7751 53.5692 11.6805 52.5413 10.3458 52.4971C 8.75051 52.4442 7.56141 51.0068 7.8084 49.4298C 8.01505 48.1105 7.21049 46.8427 5.92873 46.4679C 4.39667 46.02 3.60239 44.3321 4.2338 42.866C 4.76206 41.6395 4.29806 40.2115 3.14977 39.5297C 1.77725 38.7149 1.42769 36.8824 2.40385 35.6195C 3.22053 34.5629 3.12625 33.0643 2.18358 32.1184C 1.05683 30.9878 1.17397 29.126 2.43354 28.1455C 3.48733 27.3252 3.76868 25.8503 3.09087 24.6997C 2.28069 23.3244 2.85716 21.5502 4.32099 20.9137C 5.54568 20.3813 6.18499 19.0226 5.81462 17.7396C 5.37192 16.206 6.3715 14.6309 7.94762 14.3785C 9.26625 14.1674 10.2234 13.0104 10.1837 11.6756C 10.1363 10.0801 11.4962 8.80308 13.0855 8.95057C 14.4153 9.07396 15.63 8.19139 15.9236 6.88862C 16.2744 5.33146 17.9092 4.43276 19.4119 4.97088C 20.6692 5.42108 22.0653 4.86833 22.6736 3.6795C 23.4007 2.25852 25.2076 1.79459 26.5293 2.68952C 27.6351 3.43825 29.1248 3.25006 30.0096 2.24985Z"/>
<path id="path1_fill" d="M 7.57976 58.425L 7.64876 58.885L 8.06276 59.046L 10.4778 59.023L 11.1678 58.954L 11.6968 58.793L 12.2028 58.425L 12.3868 58.057L 12.6398 57.712L 12.8468 57.252L 13.5138 56.125L 13.7208 55.688L 14.0198 55.389L 14.4568 54.515L 14.7098 54.17L 14.9858 54.193L 15.2618 54.538L 17.5618 58.402L 17.9988 58.839L 18.5508 59.092L 21.1958 58.954L 21.6558 59.023L 22.1158 58.908L 22.1848 58.379L 21.9088 57.804L 21.4028 57.068L 21.1958 56.677L 20.3908 55.573L 20.2298 55.274L 19.9308 54.86L 19.4938 54.055L 18.8038 53.158L 17.7458 51.387L 17.4698 51.042L 17.3318 50.467L 17.4468 49.915L 17.7688 49.501L 18.2288 48.788L 18.4588 48.351L 20.0918 46.028L 20.2988 45.614L 21.6328 43.544L 21.5178 43.061L 21.0118 42.9L 20.2758 42.946L 18.6198 42.877L 18.1828 42.923L 17.6308 43.13L 17.1018 43.475L 16.9178 43.912L 16.1588 44.97L 15.9978 45.43L 14.9628 46.879L 14.6408 46.948L 14.4108 46.58L 14.1808 46.12L 13.9278 45.821L 13.7668 45.407L 12.5938 43.521L 12.1108 43.13L 11.5588 42.877L 11.0528 42.946L 10.5928 42.946L 10.0638 42.877L 9.35076 42.969L 8.66076 42.946L 8.13176 43.084L 8.08576 43.59L 8.31576 44.096L 8.89076 44.855L 9.25876 45.522L 9.90276 46.419L 10.3858 47.247L 10.6618 47.592L 10.9148 48.029L 11.1908 48.374L 11.6508 49.156L 11.9728 49.57L 12.1798 49.915L 12.3178 50.536L 12.2258 51.042L 11.6968 51.801L 11.2368 52.629L 11.0068 52.905L 10.7768 53.319L 10.4778 53.618L 10.0178 54.446L 9.74176 54.791L 9.00576 56.01L 8.49976 56.7L 8.26976 57.137L 8.01676 57.459L 7.78676 57.896L 7.57976 58.425ZM 36.9527 59.069L 37.4587 59L 37.9417 58.77L 38.1487 58.333L 38.1027 56.93L 38.1717 56.033L 38.1257 55.596L 38.1487 49.961L 38.1027 49.57L 38.1027 49.11L 38.1487 48.65L 38.1487 48.121L 38.1027 47.707L 38.1027 44.487L 38.1487 44.004L 38.1487 43.567L 37.8497 43.038L 37.3897 42.854L 36.7457 42.992L 36.1707 43.268L 31.6167 47.822L 31.2487 48.098L 28.9947 50.352L 28.6267 50.467L 28.4887 50.145L 28.5117 49.662L 28.4657 49.225L 28.5347 45.062L 28.4887 44.51L 28.4887 43.636L 28.2817 43.176L 27.7527 42.877L 27.3387 42.946L 26.8327 42.854L 26.3727 42.946L 24.9467 42.9L 24.4867 43.13L 24.2337 43.682L 24.2567 55.619L 24.2107 56.125L 24.2797 56.815L 24.2107 57.919L 24.2567 58.333L 24.4637 58.885L 24.9467 59.046L 25.6367 58.954L 26.1887 58.655L 26.5797 58.31L 26.9017 57.896L 28.4657 56.401L 28.8567 56.125L 29.1557 55.734L 30.4667 54.515L 31.7087 53.158L 32.0767 52.836L 32.3987 52.491L 33.4337 51.617L 33.6867 51.456L 33.8937 51.778L 33.8937 52.261L 33.8477 52.721L 33.9167 53.457L 33.8707 54.193L 33.9167 54.607L 33.8477 55.067L 33.8477 58.356L 34.0777 58.816L 34.5607 58.977L 35.0207 59.023L 36.9527 59.069ZM 45.8746 59.046L 47.4156 59L 48.0826 58.77L 48.3126 58.126L 48.3816 56.93L 48.3126 56.056L 48.3586 55.573L 48.3356 54.653L 48.3816 54.239L 48.3126 53.733L 48.3586 50.03L 48.2896 49.547L 48.3586 47.546L 48.5426 46.856L 48.9796 46.58L 49.8766 46.534L 50.7276 46.649L 51.2106 46.58L 51.6246 46.603L 52.0156 46.35L 52.2916 45.844L 52.3146 43.659L 52.0616 43.199L 51.6246 42.9L 50.1986 42.9L 49.7616 42.854L 49.2786 42.923L 48.8416 42.877L 46.9786 42.969L 46.5186 42.877L 46.0816 42.854L 45.5986 42.923L 45.0926 42.877L 44.6786 42.969L 43.3216 42.9L 42.6086 42.969L 40.9986 42.877L 40.5616 43.107L 40.2856 43.636L 40.3086 44.096L 40.2626 45.246L 40.3086 45.959L 40.5156 46.373L 40.9296 46.603L 41.3896 46.557L 43.5746 46.603L 44.0116 46.833L 44.2646 47.293L 44.2186 48.029L 44.2646 48.673L 44.2416 49.179L 44.2646 49.639L 44.2186 50.283L 44.2876 53.71L 44.2416 54.17L 44.2186 56.033L 44.2646 56.516L 44.2416 57.85L 44.1956 58.287L 44.4946 58.793L 45.1616 59.023L 45.8746 59.046ZM 9.43602 67.73L 9.52602 67.946L 9.69702 68.027L 9.89502 68L 10.264 68.018L 10.435 67.991L 10.615 67.991L 10.804 68.036L 10.975 67.928L 11.074 67.73L 11.056 64.184L 11.074 64.013L 11.074 63.806L 11.092 63.653L 11.074 63.473L 11.155 63.284L 11.344 63.176L 11.524 63.212L 11.704 63.203L 11.875 63.176L 12.235 63.194L 12.397 63.185L 12.748 63.203L 12.928 63.293L 13.036 63.554L 13.018 67.658L 13.126 67.928L 13.315 68L 13.486 67.982L 13.756 68.009L 14.287 67.991L 14.593 67.91L 14.683 67.757L 14.674 67.379L 14.692 67.217L 14.674 67.01L 14.692 66.65L 14.665 66.29L 14.692 65.948L 14.656 65.138L 14.683 64.868L 14.665 64.13L 14.683 63.968L 14.674 61.979L 14.602 61.817L 14.314 61.727L 13.864 61.7L 13.666 61.709L 13.495 61.691L 12.406 61.718L 12.235 61.691L 12.055 61.718L 11.857 61.691L 10.966 61.709L 10.777 61.727L 10.606 61.709L 10.075 61.709L 9.89502 61.727L 9.70602 61.691L 9.53502 61.799L 9.44502 61.979L 9.41802 62.33L 9.44502 62.519L 9.45402 62.87L 9.43602 63.05L 9.42702 63.428L 9.44502 63.617L 9.41802 64.697L 9.43602 64.859L 9.42702 65.579L 9.45402 65.768L 9.42702 67.379L 9.45402 67.568L 9.43602 67.73ZM 16.5678 68.027L 17.0088 68.009L 17.1708 68.018L 17.3778 68L 17.5668 67.928L 17.6478 67.739L 17.6388 67.559L 17.6478 67.361L 17.6298 67.028L 17.6478 66.857L 17.6388 66.65L 17.7198 66.488L 17.9268 66.389L 18.1248 66.371L 18.3138 66.407L 19.2408 66.335L 20.0958 65.993L 20.2308 65.885L 20.3568 65.741L 20.4738 65.624L 20.5908 65.489L 20.7798 65.201L 20.9328 64.85L 20.9598 64.652L 21.0138 64.508L 21.0318 63.77L 20.9958 63.617L 20.9688 63.419L 20.8608 63.086L 20.6898 62.78L 20.4738 62.483L 20.0688 62.132L 19.7718 61.934L 19.4118 61.826L 19.2588 61.763L 19.0788 61.763L 18.8988 61.7L 18.6288 61.691L 18.3408 61.7L 18.1428 61.727L 17.5938 61.718L 17.4138 61.691L 16.8558 61.727L 16.6578 61.718L 16.4958 61.691L 16.3068 61.727L 16.1178 61.826L 16.0368 61.97L 16.0458 63.059L 16.0098 63.419L 16.0278 63.59L 16.0188 65.921L 16.0368 66.092L 16.0278 67.757L 16.1268 67.928L 16.4058 68.018L 16.5678 68.027ZM 17.9178 64.949L 17.7378 64.841L 17.6568 64.688L 17.6298 63.959L 17.6478 63.77L 17.6478 63.401L 17.7378 63.23L 17.9268 63.14L 18.8628 63.167L 19.0428 63.248L 19.1868 63.347L 19.3038 63.464L 19.3938 63.644L 19.4208 63.806L 19.4388 64.058L 19.4208 64.301L 19.3578 64.463L 19.2768 64.607L 19.1598 64.751L 19.0158 64.859L 18.8718 64.904L 18.5928 64.94L 18.1338 64.931L 17.9178 64.949ZM 24.8946 68.117L 25.6956 68.036L 26.0376 67.928L 26.8386 67.568L 27.4686 66.965L 27.5856 66.803L 27.9366 66.182L 27.9996 66.011L 28.0266 65.831L 28.0806 65.687L 28.1166 65.489L 28.1616 64.859L 28.1166 64.238L 28.0446 63.905L 27.9726 63.716L 27.9276 63.509L 27.7656 63.212L 27.7026 63.05L 27.5856 62.897L 27.4776 62.789L 27.3606 62.627L 26.9736 62.276L 26.5146 61.988L 25.3356 61.619L 24.9126 61.61L 24.2826 61.646L 24.1026 61.682L 23.9226 61.736L 23.7606 61.808L 23.4186 61.898L 22.9596 62.186L 22.8336 62.294L 22.5456 62.492L 22.3026 62.762L 21.9966 63.212L 21.9156 63.365L 21.7446 63.86L 21.6726 64.247L 21.6366 65.291L 21.7356 65.858L 21.8706 66.164L 21.9246 66.353L 22.0146 66.515L 22.4376 67.091L 22.6896 67.334L 22.8066 67.469L 23.4186 67.793L 23.5896 67.865L 24.3546 68.09L 24.8946 68.117ZM 24.6426 66.533L 24.4626 66.47L 24.3006 66.452L 23.9946 66.29L 23.7156 66.047L 23.6256 65.921L 23.5086 65.795L 23.3376 65.291L 23.2926 64.841L 23.3016 64.571L 23.3646 64.238L 23.4186 64.076L 23.5266 63.95L 23.6076 63.797L 23.7246 63.653L 23.8596 63.536L 24.1206 63.356L 24.2826 63.275L 24.4716 63.23L 24.8856 63.194L 25.3176 63.221L 25.7946 63.428L 26.0736 63.635L 26.2806 63.941L 26.3526 64.103L 26.4066 64.283L 26.4696 64.445L 26.5056 64.832L 26.4516 65.282L 26.3706 65.651L 26.2716 65.786L 26.1906 65.921L 26.0826 66.083L 25.8036 66.299L 25.6416 66.371L 25.4976 66.452L 25.3356 66.47L 25.1646 66.515L 24.6426 66.533ZM 28.5159 68.837L 28.6239 69.008L 28.8579 69.089L 29.4519 69.089L 29.6229 69.107L 29.7939 69.098L 29.9649 68.99L 30.0819 68.81L 30.0819 68.63L 30.0549 68.45L 30.0639 68.279L 30.1629 68.099L 30.3429 68.009L 30.5319 67.982L 31.2429 68.018L 31.4409 67.991L 31.6119 68.018L 33.0699 68.009L 33.2589 68.09L 33.3399 68.288L 33.3669 68.621L 33.3579 68.828L 33.4479 68.999L 33.6099 69.107L 33.7719 69.107L 33.9339 69.071L 34.1319 69.098L 34.2849 69.098L 34.4379 69.08L 34.6179 69.098L 34.7979 69.017L 34.8699 68.828L 34.8879 67.748L 34.8609 67.505L 34.8879 66.875L 34.8069 66.686L 34.6449 66.614L 34.4829 66.623L 34.3299 66.533L 34.2489 66.317L 34.2489 65.615L 34.2309 65.435L 34.2579 63.977L 34.2399 63.797L 34.2579 63.428L 34.2399 63.275L 34.2399 63.077L 34.2669 62.87L 34.2399 62.699L 34.2579 62.519L 34.2399 61.988L 34.1589 61.799L 33.9699 61.7L 33.6909 61.727L 33.2589 61.7L 33.0789 61.718L 32.7009 61.7L 32.5209 61.709L 32.2689 61.682L 32.0709 61.709L 31.4409 61.691L 31.2609 61.718L 31.0719 61.682L 30.9009 61.718L 30.3519 61.727L 30.1809 61.709L 29.9829 61.79L 29.8749 61.97L 29.8299 62.321L 29.8299 62.51L 29.7849 62.681L 29.7849 62.87L 29.5509 64.679L 29.5599 64.814L 29.3889 66.083L 29.2629 66.389L 29.1459 66.497L 29.0109 66.578L 28.8039 66.596L 28.5879 66.704L 28.5429 66.875L 28.5339 67.064L 28.5429 67.226L 28.5249 67.595L 28.5429 67.955L 28.5249 68.279L 28.5429 68.477L 28.5159 68.837ZM 31.0899 66.65L 30.9549 66.596L 30.9369 66.416L 31.0179 66.119L 31.3149 63.392L 31.4049 63.221L 31.7019 63.113L 31.9809 63.104L 32.1519 63.14L 32.3319 63.113L 32.5299 63.23L 32.6109 63.392L 32.6019 65.345L 32.6199 65.507L 32.6199 66.407L 32.5299 66.56L 32.3589 66.632L 31.6299 66.668L 31.2699 66.632L 31.0899 66.65ZM 40.5615 68.018L 40.9035 67.991L 41.0745 68.009L 41.3535 68L 41.6055 67.955L 41.6325 67.739L 41.5695 67.532L 41.4345 67.199L 41.1915 66.731L 41.0655 66.398L 40.8855 66.074L 40.5435 65.255L 40.4535 65.12L 40.3635 64.949L 40.3095 64.751L 40.2285 64.616L 40.1745 64.472L 39.9855 64.139L 39.9225 63.95L 39.3285 62.699L 39.2745 62.519L 39.1755 62.357L 39.1215 62.195L 38.9505 61.88L 38.7975 61.718L 38.5005 61.628L 38.2125 61.727L 38.0505 61.88L 37.9695 62.033L 37.9065 62.213L 37.8255 62.339L 37.4655 63.167L 37.3665 63.302L 37.3215 63.482L 37.2225 63.653L 37.1685 63.815L 36.2505 65.741L 36.1965 65.939L 36.1065 66.074L 36.0435 66.254L 35.8815 66.542L 35.7465 66.902L 35.6475 67.028L 35.6025 67.19L 35.4225 67.55L 35.3685 67.73L 35.4135 67.955L 35.5935 68.009L 35.9445 67.991L 36.1245 68.009L 36.6285 67.991L 36.8355 67.928L 37.0065 67.766L 37.1685 67.469L 37.3395 67.298L 37.5285 67.199L 37.6995 67.226L 38.0775 67.19L 38.2395 67.217L 39.1215 67.208L 39.2835 67.226L 39.4815 67.199L 39.6795 67.298L 39.8505 67.442L 39.9315 67.613L 39.9855 67.775L 40.1655 67.91L 40.3725 68L 40.5615 68.018ZM 38.5185 65.777L 38.3385 65.741L 38.1315 65.759L 37.9875 65.696L 37.9785 65.525L 38.4015 64.553L 38.5005 64.472L 38.6265 64.544L 39.0495 65.534L 39.0135 65.696L 38.8785 65.768L 38.5185 65.777ZM 41.9707 67.757L 42.0067 67.955L 42.1957 68.036L 43.1317 67.991L 43.3207 68.018L 43.5097 68.027L 43.7437 67.964L 43.9237 67.793L 44.0137 67.631L 44.1127 67.424L 44.3917 66.974L 44.5537 66.641L 44.7337 66.326L 44.8147 66.155L 45.0127 65.813L 45.1747 65.678L 45.4177 65.615L 45.6067 65.705L 45.6787 65.894L 45.6877 67.739L 45.7687 67.901L 45.9487 68.018L 46.1287 68.018L 46.3177 67.991L 46.8577 68.027L 47.0557 68L 47.2357 67.901L 47.3167 67.712L 47.3257 67.352L 47.3077 67.181L 47.3077 67.028L 47.3347 66.839L 47.3167 66.272L 47.3257 66.083L 47.3167 65.885L 47.3977 65.732L 47.5777 65.633L 47.8027 65.66L 47.9917 65.831L 48.0727 66.011L 48.1627 66.146L 48.2437 66.317L 48.4417 66.641L 48.5227 66.83L 49.0807 67.775L 49.2607 67.955L 49.6027 68.027L 49.8817 68L 50.4307 68.009L 50.6017 68.036L 50.9977 67.964L 51.0427 67.748L 50.9437 67.55L 50.8357 67.415L 50.6647 67.1L 50.5567 66.947L 50.4757 66.794L 50.3587 66.659L 49.4137 65.165L 49.3777 64.949L 49.4497 64.733L 49.6387 64.409L 49.7647 64.058L 49.8187 63.869L 49.8907 63.707L 49.9987 63.248L 50.1067 63.023L 50.2417 62.897L 50.3857 62.834L 50.5657 62.834L 50.7187 62.735L 50.8177 62.546L 50.8267 62.168L 50.7997 61.979L 50.7367 61.817L 50.5387 61.691L 50.1787 61.628L 49.8277 61.619L 49.6567 61.673L 49.4947 61.691L 49.1527 61.835L 48.9997 61.952L 48.8737 62.069L 48.7567 62.222L 48.6667 62.375L 48.6037 62.546L 48.4507 63.248L 48.3247 63.581L 48.2437 63.725L 48.1267 63.887L 47.8927 64.049L 47.6407 64.148L 47.4157 64.076L 47.3077 63.887L 47.3257 63.194L 47.3077 63.05L 47.3257 62.843L 47.3257 61.97L 47.2267 61.79L 47.0377 61.709L 46.8757 61.7L 46.6867 61.718L 45.9397 61.709L 45.7687 61.808L 45.6787 61.979L 45.6877 62.159L 45.6697 62.51L 45.6877 62.69L 45.6877 63.212L 45.6697 63.392L 45.6697 63.545L 45.6967 63.743L 45.6967 63.905L 45.5887 64.076L 45.3547 64.148L 45.0847 64.022L 44.8777 63.887L 44.7517 63.716L 44.6797 63.581L 44.5537 63.266L 44.3827 62.564L 44.2387 62.24L 43.9957 61.952L 43.5907 61.727L 43.3477 61.655L 43.1677 61.637L 42.9877 61.655L 42.7987 61.628L 42.6277 61.628L 42.4567 61.682L 42.2857 61.808L 42.1957 62.096L 42.1777 62.276L 42.1777 62.573L 42.2677 62.735L 42.7447 62.915L 42.8797 63.041L 42.9877 63.266L 43.3567 64.418L 43.4557 64.589L 43.5547 64.715L 43.5997 64.931L 43.5727 65.165L 43.3837 65.453L 43.3027 65.624L 43.1857 65.768L 43.0957 65.903L 43.0147 66.056L 42.8977 66.191L 42.3307 67.1L 42.2587 67.271L 42.1507 67.406L 41.9707 67.757Z"/>
</defs>
</svg>
