<svg width="136" height="136" viewBox="0 0 136 136" version="1.1" xmlns="http://www.w3.org/2000/svg" xmlns:xlink="http://www.w3.org/1999/xlink">
<title>Group</title>
<desc>Created using Figma</desc>
<g id="Canvas" transform="translate(-9742 -264)">
<g id="Group">
<g id="Star" filter="url(#filter0_d)">
<use xlink:href="#path0_fill" transform="translate(9755 262)" fill="#FF0000"/>
</g>
<g id="&#208;&#165;&#208;&#184;&#209;&#130; &#208;&#191;&#209;&#128;&#208;&#190;&#208;&#180;&#208;&#176;&#208;&#182;">
<use xlink:href="#path1_fill" transform="translate(9758 266)" fill="#FFFFFF"/>
</g>
</g>
</g>
<defs>
<filter id="filter0_d" filterUnits="userSpaceOnUse" x="9742" y="264" width="136" height="136" color-interpolation-filters="sRGB">
<feFlood flood-opacity="0" result="BackgroundImageFix"/>
<feColorMatrix in="SourceAlpha" type="matrix" values="0 0 0 0 0 0 0 0 0 0 0 0 0 0 0 0 0 0 255 0"/>
<feOffset dx="0" dy="15"/>
<feGaussianBlur stdDeviation="7.5"/>
<feColorMatrix type="matrix" values="0 0 0 0 0 0 0 0 0 0 0 0 0 0 0 0 0 0 0.15 0"/>
<feBlend mode="normal" in2="BackgroundImageFix" result="effect1_dropShadow"/>
<feBlend mode="normal" in="SourceGraphic" in2="effect1_dropShadow" result="shape"/>
</filter>
<path id="path0_fill" d="M 51.579 3.86694C 53.3969 1.81214 56.6031 1.81214 58.421 3.86694L 58.421 3.86694C 59.9418 5.58604 62.5022 5.90949 64.4028 4.62262L 64.4028 4.62262C 66.6745 3.08445 69.7801 3.88182 71.0298 6.32414L 71.0298 6.32414C 72.0753 8.36744 74.4748 9.31748 76.6357 8.54369L 76.6357 8.54369C 79.2186 7.6188 82.0283 9.16345 82.6314 11.8398L 82.6314 11.8398C 83.1359 14.0789 85.2238 15.5959 87.5092 15.3838L 87.5092 15.3838C 90.2409 15.1303 92.5782 17.3252 92.4968 20.0674L 92.4968 20.0674C 92.4286 22.3617 94.0736 24.3502 96.34 24.7131L 96.34 24.7131C 99.049 25.1469 100.767 27.8541 100.006 30.49L 100.006 30.49C 99.3695 32.6952 100.468 35.0303 102.573 35.9455L 102.573 35.9455C 105.089 37.0394 106.08 40.0887 104.688 42.4525L 104.688 42.4525C 103.523 44.4302 104.006 46.9652 105.817 48.3751L 105.817 48.3751C 107.982 50.0603 108.184 53.2603 106.247 55.2035L 106.247 55.2035C 104.627 56.8293 104.465 59.405 105.868 61.221L 105.868 61.221C 107.546 63.3917 106.945 66.5412 104.586 67.9418L 104.586 67.9418C 102.613 69.1135 101.815 71.568 102.723 73.676L 102.723 73.676C 103.808 76.1957 102.443 79.0969 99.81 79.8668L 99.81 79.8668C 97.607 80.5109 96.2241 82.6899 96.5793 84.9575L 96.5793 84.9575C 97.0038 87.668 94.9601 90.1385 92.2181 90.2293L 92.2181 90.2293C 89.9241 90.3054 88.0428 92.072 87.8229 94.3567L 87.8229 94.3567C 87.56 97.0876 84.9661 98.9722 82.2876 98.3783L 82.2876 98.3783C 80.0468 97.8815 77.7853 99.1247 77.0041 101.283L 77.0041 101.283C 76.0703 103.863 73.0892 105.043 70.6426 103.802L 70.6426 103.802C 68.5957 102.763 66.096 103.405 64.8027 105.301L 64.8027 105.301C 63.2567 107.568 60.0757 107.969 58.0147 106.159L 58.0147 106.159C 56.2904 104.644 53.7096 104.644 51.9853 106.159L 51.9853 106.159C 49.9243 107.969 46.7433 107.568 45.1973 105.301L 45.1973 105.301C 43.904 103.405 41.4043 102.763 39.3574 103.802L 39.3574 103.802C 36.9108 105.043 33.9297 103.863 32.9959 101.283L 32.9959 101.283C 32.2147 99.1247 29.9532 97.8815 27.7124 98.3783L 27.7124 98.3783C 25.0339 98.9722 22.44 97.0876 22.1771 94.3567L 22.1771 94.3567C 21.9572 92.072 20.0759 90.3054 17.7819 90.2293L 17.7819 90.2293C 15.0399 90.1385 12.9962 87.668 13.4207 84.9575L 13.4207 84.9575C 13.7759 82.6899 12.393 80.5109 10.19 79.8668L 10.19 79.8668C 7.55678 79.0969 6.1916 76.1957 7.27684 73.676L 7.27684 73.676C 8.18479 71.568 7.3873 69.1135 5.41367 67.9418L 5.41367 67.9418C 3.05465 66.5412 2.45385 63.3917 4.13162 61.221L 4.13162 61.221C 5.53529 59.405 5.37324 56.8293 3.75303 55.2035L 3.75303 55.2035C 1.81643 53.2603 2.01776 50.0603 4.18264 48.3751L 4.18264 48.3751C 5.99384 46.9652 6.47743 44.4302 5.31243 42.4525L 5.31243 42.4525C 3.91994 40.0887 4.91074 37.0394 7.4267 35.9455L 7.4267 35.9455C 9.53163 35.0303 10.6305 32.6952 9.99388 30.49L 9.99388 30.49C 9.233 27.8541 10.951 25.1469 13.66 24.7131L 13.66 24.7131C 15.9264 24.3502 17.5714 22.3617 17.5032 20.0674L 17.5032 20.0674C 17.4218 17.3252 19.7591 15.1303 22.4908 15.3838L 22.4908 15.3838C 24.7762 15.5959 26.8641 14.0789 27.3686 11.8398L 27.3686 11.8398C 27.9717 9.16345 30.7814 7.6188 33.3643 8.54369L 33.3643 8.54369C 35.5252 9.31748 37.9247 8.36744 38.9702 6.32414L 38.9702 6.32414C 40.2199 3.88182 43.3255 3.08445 45.5972 4.62262L 45.5972 4.62262C 47.4978 5.90949 50.0582 5.58604 51.579 3.86694L 51.579 3.86694Z"/>
<path id="path1_fill" d="M 17.8822 58.125L 17.9872 58.825L 18.6172 59.07L 22.2922 59.035L 23.3422 58.93L 24.1472 58.685L 24.9172 58.125L 25.1972 57.565L 25.5822 57.04L 25.8972 56.34L 26.9122 54.625L 27.2272 53.96L 27.6822 53.505L 28.3472 52.175L 28.7322 51.65L 29.1522 51.685L 29.5722 52.21L 33.0722 58.09L 33.7372 58.755L 34.5772 59.14L 38.6022 58.93L 39.3022 59.035L 40.0022 58.86L 40.1072 58.055L 39.6872 57.18L 38.9172 56.06L 38.6022 55.465L 37.3772 53.785L 37.1322 53.33L 36.6772 52.7L 36.0122 51.475L 34.9622 50.11L 33.3522 47.415L 32.9322 46.89L 32.7222 46.015L 32.8972 45.175L 33.3872 44.545L 34.0872 43.46L 34.4372 42.795L 36.9222 39.26L 37.2372 38.63L 39.2672 35.48L 39.0922 34.745L 38.3222 34.5L 37.2022 34.57L 34.6822 34.465L 34.0172 34.535L 33.1772 34.85L 32.3722 35.375L 32.0922 36.04L 30.9372 37.65L 30.6922 38.35L 29.1172 40.555L 28.6272 40.66L 28.2772 40.1L 27.9272 39.4L 27.5422 38.945L 27.2972 38.315L 25.5122 35.445L 24.7772 34.85L 23.9372 34.465L 23.1672 34.57L 22.4672 34.57L 21.6622 34.465L 20.5772 34.605L 19.5272 34.57L 18.7222 34.78L 18.6522 35.55L 19.0022 36.32L 19.8772 37.475L 20.4372 38.49L 21.4172 39.855L 22.1522 41.115L 22.5722 41.64L 22.9572 42.305L 23.3772 42.83L 24.0772 44.02L 24.5672 44.65L 24.8822 45.175L 25.0922 46.12L 24.9522 46.89L 24.1472 48.045L 23.4472 49.305L 23.0972 49.725L 22.7472 50.355L 22.2922 50.81L 21.5922 52.07L 21.1722 52.595L 20.0522 54.45L 19.2822 55.5L 18.9322 56.165L 18.5472 56.655L 18.1972 57.32L 17.8822 58.125ZM 62.5803 59.105L 63.3503 59L 64.0853 58.65L 64.4003 57.985L 64.3303 55.85L 64.4353 54.485L 64.3653 53.82L 64.4003 45.245L 64.3303 44.65L 64.3303 43.95L 64.4003 43.25L 64.4003 42.445L 64.3303 41.815L 64.3303 36.915L 64.4003 36.18L 64.4003 35.515L 63.9453 34.71L 63.2453 34.43L 62.2653 34.64L 61.3903 35.06L 54.4603 41.99L 53.9003 42.41L 50.4703 45.84L 49.9103 46.015L 49.7003 45.525L 49.7353 44.79L 49.6653 44.125L 49.7703 37.79L 49.7003 36.95L 49.7003 35.62L 49.3853 34.92L 48.5803 34.465L 47.9503 34.57L 47.1803 34.43L 46.4803 34.57L 44.3103 34.5L 43.6103 34.85L 43.2253 35.69L 43.2603 53.855L 43.1903 54.625L 43.2953 55.675L 43.1903 57.355L 43.2603 57.985L 43.5753 58.825L 44.3103 59.07L 45.3603 58.93L 46.2003 58.475L 46.7953 57.95L 47.2853 57.32L 49.6653 55.045L 50.2603 54.625L 50.7153 54.03L 52.7103 52.175L 54.6003 50.11L 55.1603 49.62L 55.6503 49.095L 57.2253 47.765L 57.6103 47.52L 57.9253 48.01L 57.9253 48.745L 57.8553 49.445L 57.9603 50.565L 57.8903 51.685L 57.9603 52.315L 57.8553 53.015L 57.8553 58.02L 58.2053 58.72L 58.9403 58.965L 59.6403 59.035L 62.5803 59.105ZM 76.157 59.07L 78.502 59L 79.517 58.65L 79.867 57.67L 79.972 55.85L 79.867 54.52L 79.937 53.785L 79.902 52.385L 79.972 51.755L 79.867 50.985L 79.937 45.35L 79.832 44.615L 79.937 41.57L 80.217 40.52L 80.882 40.1L 82.247 40.03L 83.542 40.205L 84.277 40.1L 84.907 40.135L 85.502 39.75L 85.922 38.98L 85.957 35.655L 85.572 34.955L 84.907 34.5L 82.737 34.5L 82.072 34.43L 81.337 34.535L 80.672 34.465L 77.837 34.605L 77.137 34.465L 76.472 34.43L 75.737 34.535L 74.967 34.465L 74.337 34.605L 72.272 34.5L 71.187 34.605L 68.737 34.465L 68.072 34.815L 67.652 35.62L 67.687 36.32L 67.617 38.07L 67.687 39.155L 68.002 39.785L 68.632 40.135L 69.332 40.065L 72.657 40.135L 73.322 40.485L 73.707 41.185L 73.637 42.305L 73.707 43.285L 73.672 44.055L 73.707 44.755L 73.637 45.735L 73.742 50.95L 73.672 51.65L 73.637 54.485L 73.707 55.22L 73.672 57.25L 73.602 57.915L 74.057 58.685L 75.072 59.035L 76.157 59.07ZM 17.7267 73.55L 17.8767 73.91L 18.1617 74.045L 18.4917 74L 19.1067 74.03L 19.3917 73.985L 19.6917 73.985L 20.0067 74.06L 20.2917 73.88L 20.4567 73.55L 20.4267 67.64L 20.4567 67.355L 20.4567 67.01L 20.4867 66.755L 20.4567 66.455L 20.5917 66.14L 20.9067 65.96L 21.2067 66.02L 21.5067 66.005L 21.7917 65.96L 22.3917 65.99L 22.6617 65.975L 23.2467 66.005L 23.5467 66.155L 23.7267 66.59L 23.6967 73.43L 23.8767 73.88L 24.1917 74L 24.4767 73.97L 24.9267 74.015L 25.8117 73.985L 26.3217 73.85L 26.4717 73.595L 26.4567 72.965L 26.4867 72.695L 26.4567 72.35L 26.4867 71.75L 26.4417 71.15L 26.4867 70.58L 26.4267 69.23L 26.4717 68.78L 26.4417 67.55L 26.4717 67.28L 26.4567 63.965L 26.3367 63.695L 25.8567 63.545L 25.1067 63.5L 24.7767 63.515L 24.4917 63.485L 22.6767 63.53L 22.3917 63.485L 22.0917 63.53L 21.7617 63.485L 20.2767 63.515L 19.9617 63.545L 19.6767 63.515L 18.7917 63.515L 18.4917 63.545L 18.1767 63.485L 17.8917 63.665L 17.7417 63.965L 17.6967 64.55L 17.7417 64.865L 17.7567 65.45L 17.7267 65.75L 17.7117 66.38L 17.7417 66.695L 17.6967 68.495L 17.7267 68.765L 17.7117 69.965L 17.7567 70.28L 17.7117 72.965L 17.7567 73.28L 17.7267 73.55ZM 29.613 74.045L 30.348 74.015L 30.618 74.03L 30.963 74L 31.278 73.88L 31.413 73.565L 31.398 73.265L 31.413 72.935L 31.383 72.38L 31.413 72.095L 31.398 71.75L 31.533 71.48L 31.878 71.315L 32.208 71.285L 32.523 71.345L 34.068 71.225L 35.493 70.655L 35.718 70.475L 35.928 70.235L 36.123 70.04L 36.318 69.815L 36.633 69.335L 36.888 68.75L 36.933 68.42L 37.023 68.18L 37.053 66.95L 36.993 66.695L 36.948 66.365L 36.768 65.81L 36.483 65.3L 36.123 64.805L 35.448 64.22L 34.953 63.89L 34.353 63.71L 34.098 63.605L 33.798 63.605L 33.498 63.5L 33.048 63.485L 32.568 63.5L 32.238 63.545L 31.323 63.53L 31.023 63.485L 30.093 63.545L 29.763 63.53L 29.493 63.485L 29.178 63.545L 28.863 63.71L 28.728 63.95L 28.743 65.765L 28.683 66.365L 28.713 66.65L 28.698 70.535L 28.728 70.82L 28.713 73.595L 28.878 73.88L 29.343 74.03L 29.613 74.045ZM 31.863 68.915L 31.563 68.735L 31.428 68.48L 31.383 67.265L 31.413 66.95L 31.413 66.335L 31.563 66.05L 31.878 65.9L 33.438 65.945L 33.738 66.08L 33.978 66.245L 34.173 66.44L 34.323 66.74L 34.368 67.01L 34.398 67.43L 34.368 67.835L 34.263 68.105L 34.128 68.345L 33.933 68.585L 33.693 68.765L 33.453 68.84L 32.988 68.9L 32.223 68.885L 31.863 68.915ZM 43.4911 74.195L 44.8261 74.06L 45.3961 73.88L 46.7311 73.28L 47.7811 72.275L 47.9761 72.005L 48.5611 70.97L 48.6661 70.685L 48.7111 70.385L 48.8011 70.145L 48.8611 69.815L 48.9361 68.765L 48.8611 67.73L 48.7411 67.175L 48.6211 66.86L 48.5461 66.515L 48.2761 66.02L 48.1711 65.75L 47.9761 65.495L 47.7961 65.315L 47.6011 65.045L 46.9561 64.46L 46.1911 63.98L 44.2261 63.365L 43.5211 63.35L 42.4711 63.41L 42.1711 63.47L 41.8711 63.56L 41.6011 63.68L 41.0311 63.83L 40.2661 64.31L 40.0561 64.49L 39.5761 64.82L 39.1711 65.27L 38.6611 66.02L 38.5261 66.275L 38.2411 67.1L 38.1211 67.745L 38.0611 69.485L 38.2261 70.43L 38.4511 70.94L 38.5411 71.255L 38.6911 71.525L 39.3961 72.485L 39.8161 72.89L 40.0111 73.115L 41.0311 73.655L 41.3161 73.775L 42.5911 74.15L 43.4911 74.195ZM 43.0711 71.555L 42.7711 71.45L 42.5011 71.42L 41.9911 71.15L 41.5261 70.745L 41.3761 70.535L 41.1811 70.325L 40.8961 69.485L 40.8211 68.735L 40.8361 68.285L 40.9411 67.73L 41.0311 67.46L 41.2111 67.25L 41.3461 66.995L 41.5411 66.755L 41.7661 66.56L 42.2011 66.26L 42.4711 66.125L 42.7861 66.05L 43.4761 65.99L 44.1961 66.035L 44.9911 66.38L 45.4561 66.725L 45.8011 67.235L 45.9211 67.505L 46.0111 67.805L 46.1161 68.075L 46.1761 68.72L 46.0861 69.47L 45.9511 70.085L 45.7861 70.31L 45.6511 70.535L 45.4711 70.805L 45.0061 71.165L 44.7361 71.285L 44.4961 71.42L 44.2261 71.45L 43.9411 71.525L 43.0711 71.555ZM 49.5266 75.395L 49.7066 75.68L 50.0966 75.815L 51.0866 75.815L 51.3716 75.845L 51.6566 75.83L 51.9416 75.65L 52.1366 75.35L 52.1366 75.05L 52.0916 74.75L 52.1066 74.465L 52.2716 74.165L 52.5716 74.015L 52.8866 73.97L 54.0716 74.03L 54.4016 73.985L 54.6866 74.03L 57.1166 74.015L 57.4316 74.15L 57.5666 74.48L 57.6116 75.035L 57.5966 75.38L 57.7466 75.665L 58.0166 75.845L 58.2866 75.845L 58.5566 75.785L 58.8866 75.83L 59.1416 75.83L 59.3966 75.8L 59.6966 75.83L 59.9966 75.695L 60.1166 75.38L 60.1466 73.58L 60.1016 73.175L 60.1466 72.125L 60.0116 71.81L 59.7416 71.69L 59.4716 71.705L 59.2166 71.555L 59.0816 71.195L 59.0816 70.025L 59.0516 69.725L 59.0966 67.295L 59.0666 66.995L 59.0966 66.38L 59.0666 66.125L 59.0666 65.795L 59.1116 65.45L 59.0666 65.165L 59.0966 64.865L 59.0666 63.98L 58.9316 63.665L 58.6166 63.5L 58.1516 63.545L 57.4316 63.5L 57.1316 63.53L 56.5016 63.5L 56.2016 63.515L 55.7816 63.47L 55.4516 63.515L 54.4016 63.485L 54.1016 63.53L 53.7866 63.47L 53.5016 63.53L 52.5866 63.545L 52.3016 63.515L 51.9716 63.65L 51.7916 63.95L 51.7166 64.535L 51.7166 64.85L 51.6416 65.135L 51.6416 65.45L 51.2516 68.465L 51.2666 68.69L 50.9816 70.805L 50.7716 71.315L 50.5766 71.495L 50.3516 71.63L 50.0066 71.66L 49.6466 71.84L 49.5716 72.125L 49.5566 72.44L 49.5716 72.71L 49.5416 73.325L 49.5716 73.925L 49.5416 74.465L 49.5716 74.795L 49.5266 75.395ZM 53.8166 71.75L 53.5916 71.66L 53.5616 71.36L 53.6966 70.865L 54.1916 66.32L 54.3416 66.035L 54.8366 65.855L 55.3016 65.84L 55.5866 65.9L 55.8866 65.855L 56.2166 66.05L 56.3516 66.32L 56.3366 69.575L 56.3666 69.845L 56.3666 71.345L 56.2166 71.6L 55.9316 71.72L 54.7166 71.78L 54.1166 71.72L 53.8166 71.75ZM 69.6024 74.03L 70.1724 73.985L 70.4574 74.015L 70.9224 74L 71.3424 73.925L 71.3874 73.565L 71.2824 73.22L 71.0574 72.665L 70.6524 71.885L 70.4424 71.33L 70.1424 70.79L 69.5724 69.425L 69.4224 69.2L 69.2724 68.915L 69.1824 68.585L 69.0474 68.36L 68.9574 68.12L 68.6424 67.565L 68.5374 67.25L 67.5474 65.165L 67.4574 64.865L 67.2924 64.595L 67.2024 64.325L 66.9174 63.8L 66.6624 63.53L 66.1674 63.38L 65.6874 63.545L 65.4174 63.8L 65.2824 64.055L 65.1774 64.355L 65.0424 64.565L 64.4424 65.945L 64.2774 66.17L 64.2024 66.47L 64.0374 66.755L 63.9474 67.025L 62.4174 70.235L 62.3274 70.565L 62.1774 70.79L 62.0724 71.09L 61.8024 71.57L 61.5774 72.17L 61.4124 72.38L 61.3374 72.65L 61.0374 73.25L 60.9474 73.55L 61.0224 73.925L 61.3224 74.015L 61.9074 73.985L 62.2074 74.015L 63.0474 73.985L 63.3924 73.88L 63.6774 73.61L 63.9474 73.115L 64.2324 72.83L 64.5474 72.665L 64.8324 72.71L 65.4624 72.65L 65.7324 72.695L 67.2024 72.68L 67.4724 72.71L 67.8024 72.665L 68.1324 72.83L 68.4174 73.07L 68.5524 73.355L 68.6424 73.625L 68.9424 73.85L 69.2874 74L 69.6024 74.03ZM 66.1974 70.295L 65.8974 70.235L 65.5524 70.265L 65.3124 70.16L 65.2974 69.875L 66.0024 68.255L 66.1674 68.12L 66.3774 68.24L 67.0824 69.89L 67.0224 70.16L 66.7974 70.28L 66.1974 70.295ZM 71.9512 73.595L 72.0112 73.925L 72.3262 74.06L 73.8862 73.985L 74.2012 74.03L 74.5162 74.045L 74.9062 73.94L 75.2062 73.655L 75.3562 73.385L 75.5212 73.04L 75.9862 72.29L 76.2562 71.735L 76.5562 71.21L 76.6912 70.925L 77.0212 70.355L 77.2912 70.13L 77.6962 70.025L 78.0112 70.175L 78.1312 70.49L 78.1462 73.565L 78.2812 73.835L 78.5812 74.03L 78.8812 74.03L 79.1962 73.985L 80.0962 74.045L 80.4262 74L 80.7262 73.835L 80.8612 73.52L 80.8762 72.92L 80.8462 72.635L 80.8462 72.38L 80.8912 72.065L 80.8612 71.12L 80.8762 70.805L 80.8612 70.475L 80.9962 70.22L 81.2962 70.055L 81.6712 70.1L 81.9862 70.385L 82.1212 70.685L 82.2712 70.91L 82.4062 71.195L 82.7362 71.735L 82.8712 72.05L 83.8012 73.625L 84.1012 73.925L 84.6712 74.045L 85.1362 74L 86.0512 74.015L 86.3362 74.06L 86.9962 73.94L 87.0712 73.58L 86.9062 73.25L 86.7262 73.025L 86.4412 72.5L 86.2612 72.245L 86.1262 71.99L 85.9312 71.765L 84.3562 69.275L 84.2962 68.915L 84.4162 68.555L 84.7312 68.015L 84.9412 67.43L 85.0312 67.115L 85.1512 66.845L 85.3312 66.08L 85.5112 65.705L 85.7362 65.495L 85.9762 65.39L 86.2762 65.39L 86.5312 65.225L 86.6962 64.91L 86.7112 64.28L 86.6662 63.965L 86.5612 63.695L 86.2312 63.485L 85.6312 63.38L 85.0462 63.365L 84.7612 63.455L 84.4912 63.485L 83.9212 63.725L 83.6662 63.92L 83.4562 64.115L 83.2612 64.37L 83.1112 64.625L 83.0062 64.91L 82.7512 66.08L 82.5412 66.635L 82.4062 66.875L 82.2112 67.145L 81.8212 67.415L 81.4012 67.58L 81.0262 67.46L 80.8462 67.145L 80.8762 65.99L 80.8462 65.75L 80.8762 65.405L 80.8762 63.95L 80.7112 63.65L 80.3962 63.515L 80.1262 63.5L 79.8112 63.53L 78.5662 63.515L 78.2812 63.68L 78.1312 63.965L 78.1462 64.265L 78.1162 64.85L 78.1462 65.15L 78.1462 66.02L 78.1162 66.32L 78.1162 66.575L 78.1612 66.905L 78.1612 67.175L 77.9812 67.46L 77.5912 67.58L 77.1412 67.37L 76.7962 67.145L 76.5862 66.86L 76.4662 66.635L 76.2562 66.11L 75.9712 64.94L 75.7312 64.4L 75.3262 63.92L 74.6512 63.545L 74.2462 63.425L 73.9462 63.395L 73.6462 63.425L 73.3312 63.38L 73.0462 63.38L 72.7612 63.47L 72.4762 63.68L 72.3262 64.16L 72.2962 64.46L 72.2962 64.955L 72.4462 65.225L 73.2412 65.525L 73.4662 65.735L 73.6462 66.11L 74.2612 68.03L 74.4262 68.315L 74.5912 68.525L 74.6662 68.885L 74.6212 69.275L 74.3062 69.755L 74.1712 70.04L 73.9762 70.28L 73.8262 70.505L 73.6912 70.76L 73.4962 70.985L 72.5512 72.5L 72.4312 72.785L 72.2512 73.01L 71.9512 73.595Z"/>
</defs>
</svg>
