<svg width="317" height="51" viewBox="0 0 317 51" version="1.1" xmlns="http://www.w3.org/2000/svg" xmlns:xlink="http://www.w3.org/1999/xlink">
<title>&#208;&#157;&#208;&#176; &#208;&#186;&#208;&#190;&#208;&#187;&#208;&#187;&#208;&#181;&#208;&#186;&#209;&#134;&#208;&#184;&#209;&#142; &#194;&#171;&#208;&#147;&#208;&#190;&#208;&#180;&#209;&#139; &#208;&#160;&#208;&#190;&#208;&#182;&#208;&#180;&#208;&#181;&#208;&#189;&#208;&#184;&#209;&#143;&#194;&#187;</title>
<desc>Created using Figma</desc>
<g id="Canvas" transform="translate(-8667 -713)">
<g id="&#208;&#157;&#208;&#176; &#208;&#186;&#208;&#190;&#208;&#187;&#208;&#187;&#208;&#181;&#208;&#186;&#209;&#134;&#208;&#184;&#209;&#142; &#194;&#171;&#208;&#147;&#208;&#190;&#208;&#180;&#209;&#139; &#208;&#160;&#208;&#190;&#208;&#182;&#208;&#180;&#208;&#181;&#208;&#189;&#208;&#184;&#209;&#143;&#194;&#187;">
<use xlink:href="#path0_fill" transform="translate(8665 670)" fill="#FFC700"/>
<use xlink:href="#path1_fill" transform="translate(8665 670)" fill="#F2F2F2"/>
</g>
</g>
<defs>
<path id="path0_fill" d="M 6.64587 84.816L 7.41387 85.008L 7.86187 84.88L 8.30987 84.592L 9.23787 84.24L 9.46187 83.568L 9.01387 82.576L 8.85387 82.16L 8.40587 81.232L 8.24587 80.656L 7.95787 80.208L 7.82987 79.728L 7.57387 79.28L 7.57387 78.256L 8.98187 74.928L 9.20587 74.576L 9.39787 74.096L 9.20587 73.36L 8.72587 73.104L 8.24587 73.008L 7.38187 72.496L 6.58187 72.72L 2.90187 78.32L 2.86987 79.28L 3.18987 79.632L 3.47787 80.144L 3.79787 80.464L 5.46187 83.088L 5.81387 83.536L 6.64587 84.816ZM 12.5019 84.816L 13.2379 85.072L 14.1019 84.592L 14.9979 84.24L 15.2539 83.568L 15.0939 83.024L 13.6539 79.696L 13.3979 79.28L 13.4299 78.32L 13.6219 77.808L 13.8459 77.424L 13.9739 76.944L 14.3899 75.984L 14.6779 75.504L 14.8699 74.992L 14.9979 74.48L 15.2859 74.064L 15.0299 73.392L 13.1419 72.592L 12.4379 72.72L 11.5739 74.032L 11.3179 74.544L 11.0299 74.864L 9.33387 77.52L 9.01387 77.872L 8.69387 78.352L 8.75787 79.248L 8.98187 79.664L 9.30187 80.144L 9.62187 80.496L 9.84587 81.008L 10.1339 81.424L 10.4219 81.776L 10.7099 82.256L 11.3499 83.088L 11.6059 83.6L 12.2139 84.368L 12.5019 84.816ZM 17.6556 89.04L 17.9116 89.616L 18.9676 90L 21.1116 90.032L 21.7836 90.128L 22.4876 90L 23.0956 89.68L 23.4156 89.008L 23.4476 88.336L 23.4156 87.792L 23.4476 87.184L 23.4156 83.984L 23.4796 83.312L 23.4156 80.688L 23.5116 80.08L 23.4156 79.472L 23.4476 78.192L 23.3836 77.584L 23.4796 76.944L 23.4476 74.064L 23.7036 73.072L 24.3756 72.72L 24.9516 72.72L 25.5596 72.816L 26.2316 72.784L 26.8716 72.656L 27.4796 72.72L 30.3276 72.72L 31.2236 72.368L 31.6076 71.792L 31.5436 68.624L 31.2556 67.984L 30.6156 67.632L 30.0076 67.632L 29.3356 67.568L 28.3756 67.632L 27.4476 67.568L 26.8396 67.664L 26.1996 67.664L 25.5916 67.568L 24.2796 67.536L 23.6076 67.632L 22.9996 67.664L 22.3596 67.568L 18.8396 67.632L 17.9116 67.952L 17.5916 68.56L 17.6556 69.232L 17.5596 69.84L 17.6556 73.136L 17.5916 73.712L 17.5916 76.912L 17.6876 77.616L 17.5916 80.752L 17.6876 81.392L 17.5916 82.992L 17.6556 83.568L 17.6556 89.04ZM 43.1276 90.416L 45.9756 90.128L 47.1916 89.744L 50.0396 88.464L 52.2796 86.32L 52.6956 85.744L 53.9436 83.536L 54.1676 82.928L 54.2636 82.288L 54.4556 81.776L 54.5836 81.072L 54.7436 78.832L 54.5836 76.624L 54.3276 75.44L 54.0716 74.768L 53.9116 74.032L 53.3356 72.976L 53.1116 72.4L 52.6956 71.856L 52.3116 71.472L 51.8956 70.896L 50.5196 69.648L 48.8876 68.624L 44.6956 67.312L 43.1916 67.28L 40.9516 67.408L 40.3116 67.536L 39.6716 67.728L 39.0956 67.984L 37.8796 68.304L 36.2476 69.328L 35.7996 69.712L 34.7756 70.416L 33.9116 71.376L 32.8236 72.976L 32.5356 73.52L 31.9276 75.28L 31.6716 76.656L 31.5436 80.368L 31.8956 82.384L 32.3756 83.472L 32.5676 84.144L 32.8876 84.72L 34.3916 86.768L 35.2876 87.632L 35.7036 88.112L 37.8796 89.264L 38.4876 89.52L 41.2076 90.32L 43.1276 90.416ZM 42.2316 84.784L 41.5916 84.56L 41.0156 84.496L 39.9276 83.92L 38.9356 83.056L 38.6156 82.608L 38.1996 82.16L 37.5916 80.368L 37.4316 78.768L 37.4636 77.808L 37.6876 76.624L 37.8796 76.048L 38.2636 75.6L 38.5516 75.056L 38.9676 74.544L 39.4476 74.128L 40.3756 73.488L 40.9516 73.2L 41.6236 73.04L 43.0956 72.912L 44.6316 73.008L 46.3276 73.744L 47.3196 74.48L 48.0556 75.568L 48.3116 76.144L 48.5036 76.784L 48.7276 77.36L 48.8556 78.736L 48.6636 80.336L 48.3756 81.648L 48.0236 82.128L 47.7356 82.608L 47.3516 83.184L 46.3596 83.952L 45.7836 84.208L 45.2716 84.496L 44.6956 84.56L 44.0876 84.72L 42.2316 84.784ZM 55.0434 92.976L 55.4274 93.584L 56.2594 93.872L 58.3714 93.872L 58.9794 93.936L 59.5874 93.904L 60.1954 93.52L 60.6114 92.88L 60.6114 92.24L 60.5154 91.6L 60.5474 90.992L 60.8994 90.352L 61.5394 90.032L 62.2114 89.936L 64.7394 90.064L 65.4434 89.968L 66.0514 90.064L 71.2354 90.032L 71.9074 90.32L 72.1954 91.024L 72.2914 92.208L 72.2594 92.944L 72.5794 93.552L 73.1554 93.936L 73.7314 93.936L 74.3074 93.808L 75.0114 93.904L 75.5554 93.904L 76.0994 93.84L 76.7394 93.904L 77.3794 93.616L 77.6354 92.944L 77.6994 89.104L 77.6034 88.24L 77.6994 86L 77.4114 85.328L 76.8354 85.072L 76.2594 85.104L 75.7154 84.784L 75.4274 84.016L 75.4274 81.52L 75.3634 80.88L 75.4594 75.696L 75.3954 75.056L 75.4594 73.744L 75.3954 73.2L 75.3954 72.496L 75.4914 71.76L 75.3954 71.152L 75.4594 70.512L 75.3954 68.624L 75.1074 67.952L 74.4354 67.6L 73.4434 67.696L 71.9074 67.6L 71.2674 67.664L 69.9234 67.6L 69.2834 67.632L 68.3874 67.536L 67.6834 67.632L 65.4434 67.568L 64.8034 67.664L 64.1314 67.536L 63.5234 67.664L 61.5714 67.696L 60.9634 67.632L 60.2594 67.92L 59.8754 68.56L 59.7154 69.808L 59.7154 70.48L 59.5554 71.088L 59.5554 71.76L 58.7234 78.192L 58.7554 78.672L 58.1474 83.184L 57.6994 84.272L 57.2834 84.656L 56.8034 84.944L 56.0674 85.008L 55.2994 85.392L 55.1394 86L 55.1074 86.672L 55.1394 87.248L 55.0754 88.56L 55.1394 89.84L 55.0754 90.992L 55.1394 91.696L 55.0434 92.976ZM 64.1954 85.2L 63.7154 85.008L 63.6514 84.368L 63.9394 83.312L 64.9954 73.616L 65.3154 73.008L 66.3714 72.624L 67.3634 72.592L 67.9714 72.72L 68.6114 72.624L 69.3154 73.04L 69.6034 73.616L 69.5714 80.56L 69.6354 81.136L 69.6354 84.336L 69.3154 84.88L 68.7074 85.136L 66.1154 85.264L 64.8354 85.136L 64.1954 85.2ZM 80.3999 89.04L 80.7199 89.616L 81.3919 90.064L 82.7999 90.096L 83.4079 90L 86.3839 90.032L 87.6959 89.936L 89.6159 90.096L 91.8559 89.936L 93.7119 89.328L 94.3199 88.976L 94.7999 88.784L 95.3439 88.336L 95.8879 88.08L 96.3359 87.6L 97.3599 86.128L 98.0959 84.336L 98.2239 83.728L 98.2879 81.2L 98.0639 79.984L 97.6479 78.736L 97.3279 78.32L 97.1359 77.68L 95.7919 76.272L 94.8639 75.568L 94.2559 75.248L 93.1359 74.864L 91.2479 74.384L 90.5759 74.352L 89.6159 74.384L 87.9839 74.288L 87.2159 74.32L 86.4799 74L 86.0959 73.36L 86.1279 68.656L 85.8079 67.92L 85.2319 67.696L 83.2479 67.696L 82.7039 67.6L 82.0639 67.568L 81.4239 67.632L 80.7199 67.984L 80.4319 68.528L 80.3999 71.248L 80.4639 71.792L 80.4319 73.68L 80.4959 74.32L 80.4959 75.024L 80.4319 75.632L 80.4959 78.256L 80.4319 78.768L 80.4959 80.08L 80.3999 81.968L 80.4639 82.608L 80.3999 89.04ZM 109.36 90.128L 110.64 90.064L 111.216 89.744L 111.536 89.136L 111.536 85.968L 111.152 85.36L 110.448 85.008L 109.776 85.008L 109.008 84.752L 108.624 84.016L 108.72 83.408L 108.688 79.888L 108.752 79.184L 108.624 76.88L 108.752 73.648L 108.976 72.912L 109.68 72.624L 110.32 72.528L 110.992 72.272L 111.312 71.76L 111.344 68.592L 110.96 67.984L 110.384 67.632L 106.512 67.632L 105.936 67.568L 105.296 67.696L 102.672 67.696L 102.064 67.6L 101.328 67.6L 100.688 67.92L 100.368 68.688L 100.464 71.056L 100.4 71.664L 100.752 72.304L 101.456 72.656L 102.096 72.656L 102.704 73.04L 102.992 73.904L 103.088 83.728L 102.736 84.688L 100.624 85.328L 100.272 85.904L 100.176 88.848L 100.496 89.712L 101.136 90L 101.744 90L 102.352 89.936L 103.28 90.064L 104.272 90.032L 104.912 89.968L 106.192 90.096L 107.152 89.968L 108.72 89.968L 109.36 90.128ZM 87.2159 84.976L 86.4799 84.592L 86.1279 84.08L 86.1279 83.376L 86.1919 82.16L 86.1279 80.24L 86.5439 79.728L 87.1519 79.408L 87.8239 79.44L 88.5599 79.344L 90.6079 79.568L 91.2479 79.76L 91.7919 80.08L 92.2399 80.592L 92.4319 81.136L 92.5279 82.224L 92.5279 83.152L 92.2079 83.824L 91.8559 84.272L 90.6399 84.784L 89.6159 84.912L 88.6239 84.848L 87.2159 84.976ZM 124.212 90.096L 125.78 90.032L 126.356 90.064L 127.092 90L 127.764 89.744L 128.052 89.072L 128.02 88.432L 128.052 87.728L 127.988 86.544L 128.052 85.936L 128.02 85.2L 128.308 84.624L 129.044 84.272L 129.748 84.208L 130.42 84.336L 133.716 84.08L 136.756 82.864L 137.236 82.48L 137.684 81.968L 138.1 81.552L 138.516 81.072L 139.188 80.048L 139.732 78.8L 139.828 78.096L 140.02 77.584L 140.084 74.96L 139.956 74.416L 139.86 73.712L 139.476 72.528L 138.868 71.44L 138.1 70.384L 136.66 69.136L 135.604 68.432L 134.324 68.048L 133.78 67.824L 133.14 67.824L 132.5 67.6L 131.54 67.568L 130.516 67.6L 129.812 67.696L 127.86 67.664L 127.22 67.568L 125.236 67.696L 124.532 67.664L 123.956 67.568L 123.284 67.696L 122.612 68.048L 122.324 68.56L 122.356 72.432L 122.228 73.712L 122.292 74.32L 122.26 82.608L 122.324 83.216L 122.292 89.136L 122.644 89.744L 123.636 90.064L 124.212 90.096ZM 129.012 79.152L 128.372 78.768L 128.084 78.224L 127.988 75.632L 128.052 74.96L 128.052 73.648L 128.372 73.04L 129.044 72.72L 132.372 72.816L 133.012 73.104L 133.524 73.456L 133.94 73.872L 134.26 74.512L 134.356 75.088L 134.42 75.984L 134.356 76.848L 134.132 77.424L 133.844 77.936L 133.428 78.448L 132.916 78.832L 132.404 78.992L 131.412 79.12L 129.78 79.088L 129.012 79.152ZM 152.859 90.416L 155.707 90.128L 156.923 89.744L 159.771 88.464L 162.011 86.32L 162.427 85.744L 163.675 83.536L 163.899 82.928L 163.995 82.288L 164.187 81.776L 164.315 81.072L 164.475 78.832L 164.315 76.624L 164.059 75.44L 163.803 74.768L 163.643 74.032L 163.067 72.976L 162.843 72.4L 162.427 71.856L 162.043 71.472L 161.627 70.896L 160.251 69.648L 158.619 68.624L 154.427 67.312L 152.923 67.28L 150.683 67.408L 150.043 67.536L 149.403 67.728L 148.827 67.984L 147.611 68.304L 145.979 69.328L 145.531 69.712L 144.507 70.416L 143.643 71.376L 142.555 72.976L 142.267 73.52L 141.659 75.28L 141.403 76.656L 141.275 80.368L 141.627 82.384L 142.107 83.472L 142.299 84.144L 142.619 84.72L 144.123 86.768L 145.019 87.632L 145.435 88.112L 147.611 89.264L 148.219 89.52L 150.939 90.32L 152.859 90.416ZM 151.963 84.784L 151.323 84.56L 150.747 84.496L 149.659 83.92L 148.667 83.056L 148.347 82.608L 147.931 82.16L 147.323 80.368L 147.163 78.768L 147.195 77.808L 147.419 76.624L 147.611 76.048L 147.995 75.6L 148.283 75.056L 148.699 74.544L 149.179 74.128L 150.107 73.488L 150.683 73.2L 151.355 73.04L 152.827 72.912L 154.363 73.008L 156.059 73.744L 157.051 74.48L 157.787 75.568L 158.043 76.144L 158.235 76.784L 158.459 77.36L 158.587 78.736L 158.395 80.336L 158.107 81.648L 157.755 82.128L 157.467 82.608L 157.083 83.184L 156.091 83.952L 155.515 84.208L 155.003 84.496L 154.427 84.56L 153.819 84.72L 151.963 84.784ZM 164.426 89.136L 164.554 89.84L 165.226 90.128L 168.554 89.968L 169.226 90.064L 169.898 90.096L 170.73 89.872L 171.37 89.264L 171.69 88.688L 172.042 87.952L 173.034 86.352L 173.61 85.168L 174.25 84.048L 174.538 83.44L 175.242 82.224L 175.818 81.744L 176.682 81.52L 177.354 81.84L 177.61 82.512L 177.642 89.072L 177.93 89.648L 178.57 90.064L 179.21 90.064L 179.882 89.968L 181.802 90.096L 182.506 90L 183.146 89.648L 183.434 88.976L 183.466 87.696L 183.402 87.088L 183.402 86.544L 183.498 85.872L 183.434 83.856L 183.466 83.184L 183.434 82.48L 183.722 81.936L 184.362 81.584L 185.162 81.68L 185.834 82.288L 186.122 82.928L 186.442 83.408L 186.73 84.016L 187.434 85.168L 187.722 85.84L 189.706 89.2L 190.346 89.84L 191.562 90.096L 192.554 90L 194.506 90.032L 195.114 90.128L 196.522 89.872L 196.682 89.104L 196.33 88.4L 195.946 87.92L 195.338 86.8L 194.954 86.256L 194.666 85.712L 194.25 85.232L 190.89 79.92L 190.762 79.152L 191.018 78.384L 191.69 77.232L 192.138 75.984L 192.33 75.312L 192.586 74.736L 192.97 73.104L 193.354 72.304L 193.834 71.856L 194.346 71.632L 194.986 71.632L 195.53 71.28L 195.882 70.608L 195.914 69.264L 195.818 68.592L 195.594 68.016L 194.89 67.568L 193.61 67.344L 192.362 67.312L 191.754 67.504L 191.178 67.568L 189.962 68.08L 189.418 68.496L 188.97 68.912L 188.554 69.456L 188.234 70L 188.01 70.608L 187.466 73.104L 187.018 74.288L 186.73 74.8L 186.314 75.376L 185.482 75.952L 184.586 76.304L 183.786 76.048L 183.402 75.376L 183.466 72.912L 183.402 72.4L 183.466 71.664L 183.466 68.56L 183.114 67.92L 182.442 67.632L 181.866 67.6L 181.194 67.664L 178.538 67.632L 177.93 67.984L 177.61 68.592L 177.642 69.232L 177.578 70.48L 177.642 71.12L 177.642 72.976L 177.578 73.616L 177.578 74.16L 177.674 74.864L 177.674 75.44L 177.29 76.048L 176.458 76.304L 175.498 75.856L 174.762 75.376L 174.314 74.768L 174.058 74.288L 173.61 73.168L 173.002 70.672L 172.49 69.52L 171.626 68.496L 170.186 67.696L 169.322 67.44L 168.682 67.376L 168.042 67.44L 167.37 67.344L 166.762 67.344L 166.154 67.536L 165.546 67.984L 165.226 69.008L 165.162 69.648L 165.162 70.704L 165.482 71.28L 167.178 71.92L 167.658 72.368L 168.042 73.168L 169.354 77.264L 169.706 77.872L 170.058 78.32L 170.218 79.088L 170.122 79.92L 169.45 80.944L 169.162 81.552L 168.746 82.064L 168.426 82.544L 168.138 83.088L 167.722 83.568L 165.706 86.8L 165.45 87.408L 165.066 87.888L 164.426 89.136ZM 197.252 92.976L 197.636 93.584L 198.468 93.872L 200.58 93.872L 201.188 93.936L 201.796 93.904L 202.404 93.52L 202.82 92.88L 202.82 92.24L 202.724 91.6L 202.756 90.992L 203.108 90.352L 203.748 90.032L 204.42 89.936L 206.948 90.064L 207.652 89.968L 208.26 90.064L 213.444 90.032L 214.116 90.32L 214.404 91.024L 214.5 92.208L 214.468 92.944L 214.788 93.552L 215.364 93.936L 215.94 93.936L 216.516 93.808L 217.22 93.904L 217.764 93.904L 218.308 93.84L 218.948 93.904L 219.588 93.616L 219.844 92.944L 219.908 89.104L 219.812 88.24L 219.908 86L 219.62 85.328L 219.044 85.072L 218.468 85.104L 217.924 84.784L 217.636 84.016L 217.636 81.52L 217.572 80.88L 217.668 75.696L 217.604 75.056L 217.668 73.744L 217.604 73.2L 217.604 72.496L 217.7 71.76L 217.604 71.152L 217.668 70.512L 217.604 68.624L 217.316 67.952L 216.644 67.6L 215.652 67.696L 214.116 67.6L 213.476 67.664L 212.132 67.6L 211.492 67.632L 210.596 67.536L 209.892 67.632L 207.652 67.568L 207.012 67.664L 206.34 67.536L 205.732 67.664L 203.78 67.696L 203.172 67.632L 202.468 67.92L 202.084 68.56L 201.924 69.808L 201.924 70.48L 201.764 71.088L 201.764 71.76L 200.932 78.192L 200.964 78.672L 200.356 83.184L 199.908 84.272L 199.492 84.656L 199.012 84.944L 198.276 85.008L 197.508 85.392L 197.348 86L 197.316 86.672L 197.348 87.248L 197.284 88.56L 197.348 89.84L 197.284 90.992L 197.348 91.696L 197.252 92.976ZM 206.404 85.2L 205.924 85.008L 205.86 84.368L 206.148 83.312L 207.204 73.616L 207.524 73.008L 208.58 72.624L 209.572 72.592L 210.18 72.72L 210.82 72.624L 211.524 73.04L 211.812 73.616L 211.78 80.56L 211.844 81.136L 211.844 84.336L 211.524 84.88L 210.916 85.136L 208.324 85.264L 207.044 85.136L 206.404 85.2ZM 231.377 90.096L 235.953 90.032L 236.625 89.744L 236.977 89.072L 236.977 85.84L 236.625 85.2L 235.953 84.912L 235.217 84.976L 234.609 84.88L 232.977 84.848L 231.921 84.976L 231.281 84.912L 230.577 84.944L 229.969 84.848L 229.265 84.912L 228.593 84.592L 228.337 84.016L 228.337 82L 228.625 81.328L 229.201 80.976L 230.161 80.944L 231.185 81.04L 232.401 80.976L 233.713 81.008L 234.353 80.944L 235.089 80.976L 235.729 80.72L 235.953 80.08L 236.049 77.2L 235.729 76.304L 234.993 75.888L 233.105 75.888L 232.433 75.952L 231.089 75.856L 229.233 75.92L 228.561 75.632L 228.305 74.64L 228.305 73.648L 228.593 73.04L 229.297 72.784L 229.905 72.816L 230.513 72.688L 235.089 72.752L 235.697 72.72L 236.369 72.336L 236.689 71.76L 236.657 71.12L 236.689 70.48L 236.625 68.56L 236.337 67.952L 235.697 67.696L 235.025 67.696L 234.449 67.568L 231.857 67.6L 231.153 67.664L 230.513 67.6L 229.969 67.632L 229.329 67.568L 226.705 67.632L 226.065 67.536L 225.457 67.664L 224.881 67.6L 224.241 67.664L 223.601 67.632L 222.929 67.888L 222.577 68.56L 222.641 69.776L 222.545 71.088L 222.641 71.792L 222.577 74.928L 222.673 75.6L 222.609 76.208L 222.577 78.832L 222.673 79.408L 222.641 84.592L 222.577 85.2L 222.673 85.84L 222.577 88.048L 222.641 88.752L 222.897 89.616L 223.857 90.032L 226.161 90.064L 226.865 90L 227.441 90.032L 228.753 89.936L 229.361 90.064L 230.097 90.096L 230.737 90.032L 231.377 90.096ZM 239.96 89.104L 240.344 89.712L 240.952 90.064L 241.592 90.032L 242.872 90.096L 243.544 90.032L 244.888 90.064L 245.56 89.68L 245.816 89.072L 245.88 88.464L 245.816 87.76L 245.816 82.096L 246.104 81.424L 246.776 81.008L 250.552 80.976L 251.224 81.072L 251.8 81.072L 252.408 81.424L 252.728 82.032L 252.76 89.104L 253.112 89.616L 254.04 90.032L 255.704 90.032L 256.344 89.968L 257.656 90.064L 258.264 89.648L 258.648 89.104L 258.584 86.192L 258.68 85.168L 258.584 84.656L 258.616 68.592L 258.328 67.92L 257.688 67.664L 254.008 67.632L 253.08 67.856L 252.76 68.624L 252.728 69.84L 252.792 70.384L 252.728 71.696L 252.824 72.304L 252.792 74.8L 252.44 75.44L 251.8 75.792L 251.192 75.696L 249.944 75.824L 249.272 75.76L 248.696 75.824L 246.808 75.792L 246.2 75.504L 245.88 74.896L 245.848 74.192L 245.848 73.52L 245.816 72.944L 245.848 70.448L 245.912 69.744L 245.848 68.56L 245.56 67.952L 244.888 67.6L 244.184 67.664L 241.016 67.6L 240.312 67.92L 239.992 68.56L 239.928 69.264L 239.992 71.76L 239.928 72.4L 240.056 73.712L 239.992 74.928L 240.024 75.696L 239.96 76.336L 239.96 85.904L 240.056 86.48L 239.96 89.104ZM 280.166 90.096L 280.87 90L 281.542 89.68L 281.83 89.072L 281.766 87.12L 281.862 85.872L 281.798 85.264L 281.83 77.424L 281.766 76.88L 281.766 76.24L 281.83 75.6L 281.83 74.864L 281.766 74.288L 281.766 69.808L 281.83 69.136L 281.83 68.528L 281.414 67.792L 280.774 67.536L 279.878 67.728L 279.078 68.112L 272.742 74.448L 272.23 74.832L 269.094 77.968L 268.582 78.128L 268.39 77.68L 268.422 77.008L 268.358 76.4L 268.454 70.608L 268.39 69.84L 268.39 68.624L 268.102 67.984L 267.366 67.568L 266.79 67.664L 266.086 67.536L 265.446 67.664L 263.462 67.6L 262.822 67.92L 262.47 68.688L 262.502 85.296L 262.438 86L 262.534 86.96L 262.438 88.496L 262.502 89.072L 262.79 89.84L 263.462 90.064L 264.422 89.936L 265.19 89.52L 265.734 89.04L 266.182 88.464L 268.358 86.384L 268.902 86L 269.318 85.456L 271.142 83.76L 272.87 81.872L 273.382 81.424L 273.83 80.944L 275.27 79.728L 275.622 79.504L 275.91 79.952L 275.91 80.624L 275.846 81.264L 275.942 82.288L 275.878 83.312L 275.942 83.888L 275.846 84.528L 275.846 89.104L 276.166 89.744L 276.838 89.968L 277.478 90.032L 280.166 90.096ZM 284.323 89.168L 284.483 89.84L 285.219 90L 289.379 90L 290.467 89.776L 291.011 89.2L 291.363 88.752L 291.747 88.112L 292.003 87.536L 292.387 87.088L 293.635 84.816L 293.987 84.336L 294.563 83.728L 295.299 83.408L 296.547 83.472L 297.123 83.76L 297.379 84.368L 297.443 87.152L 297.379 87.728L 297.411 88.784L 297.699 89.712L 298.403 89.968L 300.963 90L 301.539 90.064L 302.211 90.032L 302.787 89.712L 303.107 89.008L 303.139 88.464L 303.075 87.12L 303.171 86.544L 303.075 82.928L 303.139 82.352L 303.139 81.68L 303.075 81.104L 303.171 80.112L 303.075 77.936L 303.203 76.272L 303.107 74.64L 303.203 73.104L 303.107 72.464L 303.171 71.824L 303.075 69.872L 303.171 68.56L 302.819 67.92L 301.891 67.664L 299.651 67.696L 299.043 67.6L 298.467 67.664L 297.795 67.664L 297.155 67.568L 295.875 67.696L 295.203 67.664L 294.659 67.728L 293.603 67.632L 290.723 68.048L 290.083 68.304L 289.507 68.496L 288.931 68.752L 287.939 69.552L 287.043 70.48L 286.371 71.536L 286.051 72.176L 285.507 73.872L 285.411 74.512L 285.315 76.528L 285.603 77.712L 286.051 78.96L 286.339 79.408L 286.563 80.08L 287.363 81.04L 287.875 81.424L 288.131 82.256L 288.035 82.992L 284.707 88.368L 284.323 89.168ZM 294.659 78.224L 292.771 78.16L 292.163 77.872L 291.747 77.52L 291.395 76.944L 291.203 76.464L 291.043 75.472L 291.107 74.608L 291.363 74.096L 291.715 73.552L 292.195 73.2L 292.739 72.976L 293.667 72.784L 294.307 72.848L 294.915 72.784L 296.483 72.784L 297.091 73.104L 297.443 73.68L 297.475 76.208L 297.379 76.816L 297.379 77.424L 297.059 78.032L 296.451 78.256L 294.659 78.224ZM 314.059 85.072L 314.827 84.848L 315.403 84.08L 315.659 83.568L 315.979 83.216L 316.587 82.288L 316.811 81.84L 317.131 81.488L 317.675 80.528L 318.027 80.176L 318.251 79.664L 318.539 79.248L 318.539 78.448L 317.739 77.104L 317.451 76.72L 317.131 76.24L 316.843 75.888L 316.011 74.576L 315.659 74.16L 314.859 72.848L 314.059 72.56L 313.675 72.816L 312.779 73.168L 312.331 73.456L 312.075 74.096L 312.811 76.048L 313.067 76.432L 313.643 77.904L 313.867 78.352L 313.835 79.248L 312.235 83.184L 311.979 83.664L 312.267 84.336L 312.747 84.496L 313.163 84.72L 313.611 84.848L 314.059 85.072ZM 308.267 85.104L 308.971 84.944L 309.323 84.496L 309.547 84.048L 310.411 82.672L 310.763 82.32L 311.339 81.488L 311.563 80.944L 311.883 80.624L 312.779 79.312L 312.747 78.448L 312.491 77.968L 311.851 77.104L 311.339 76.24L 310.987 75.856L 310.763 75.408L 309.003 72.848L 308.235 72.656L 307.819 72.848L 307.371 72.944L 306.923 73.232L 306.475 73.424L 306.251 74.128L 306.987 75.952L 307.275 76.4L 307.435 76.976L 307.627 77.392L 307.851 77.936L 308.043 78.352L 308.011 79.28L 307.883 79.824L 306.155 83.664L 306.411 84.336L 307.307 84.656L 307.755 84.912L 308.267 85.104Z"/>
<path id="path1_fill" d="M 102.499 51.938L 95.1071 51.938L 95.1071 59L 93.2811 59L 93.2811 43.6L 95.1071 43.6L 95.1071 50.31L 102.499 50.31L 102.499 43.6L 104.325 43.6L 104.325 59L 102.499 59L 102.499 51.938ZM 107.71 48.814C 108.268 48.4767 108.913 48.2273 109.646 48.066C 110.394 47.9047 111.172 47.824 111.978 47.824C 112.741 47.824 113.35 47.9267 113.804 48.132C 114.274 48.3373 114.626 48.6087 114.86 48.946C 115.11 49.2687 115.271 49.628 115.344 50.024C 115.432 50.42 115.476 50.816 115.476 51.212C 115.476 52.092 115.454 52.95 115.41 53.786C 115.366 54.622 115.344 55.414 115.344 56.162C 115.344 56.7047 115.366 57.218 115.41 57.702C 115.454 58.186 115.535 58.6333 115.652 59.044L 114.354 59.044L 113.892 57.504L 113.782 57.504C 113.65 57.7093 113.482 57.9147 113.276 58.12C 113.086 58.3107 112.851 58.4867 112.572 58.648C 112.294 58.7947 111.971 58.9193 111.604 59.022C 111.238 59.1247 110.82 59.176 110.35 59.176C 109.881 59.176 109.441 59.1027 109.03 58.956C 108.634 58.8093 108.29 58.604 107.996 58.34C 107.703 58.0613 107.468 57.7313 107.292 57.35C 107.131 56.9687 107.05 56.536 107.05 56.052C 107.05 55.4067 107.182 54.8713 107.446 54.446C 107.71 54.006 108.077 53.6613 108.546 53.412C 109.03 53.148 109.602 52.9647 110.262 52.862C 110.937 52.7447 111.678 52.686 112.484 52.686C 112.69 52.686 112.888 52.686 113.078 52.686C 113.284 52.686 113.489 52.7007 113.694 52.73C 113.738 52.29 113.76 51.894 113.76 51.542C 113.76 50.7353 113.599 50.1707 113.276 49.848C 112.954 49.5253 112.367 49.364 111.516 49.364C 111.267 49.364 110.996 49.386 110.702 49.43C 110.424 49.4593 110.13 49.5107 109.822 49.584C 109.529 49.6427 109.243 49.7233 108.964 49.826C 108.7 49.914 108.466 50.0167 108.26 50.134L 107.71 48.814ZM 110.834 57.636C 111.245 57.636 111.612 57.5847 111.934 57.482C 112.257 57.3647 112.536 57.2253 112.77 57.064C 113.005 56.888 113.196 56.6973 113.342 56.492C 113.504 56.2867 113.621 56.0887 113.694 55.898L 113.694 54.072C 113.489 54.0573 113.276 54.05 113.056 54.05C 112.851 54.0353 112.646 54.028 112.44 54.028C 111.986 54.028 111.538 54.0573 111.098 54.116C 110.673 54.16 110.292 54.2553 109.954 54.402C 109.632 54.534 109.368 54.7247 109.162 54.974C 108.972 55.2087 108.876 55.5093 108.876 55.876C 108.876 56.3893 109.06 56.8147 109.426 57.152C 109.793 57.4747 110.262 57.636 110.834 57.636ZM 127.438 54.05L 126.426 54.05L 126.426 59L 124.666 59L 124.666 48L 126.426 48L 126.426 52.972L 127.372 52.664L 130.892 48L 132.806 48L 129.396 52.422L 128.472 53.148L 129.616 54.028L 133.29 59L 131.112 59L 127.438 54.05ZM 134.319 53.5C 134.319 51.6373 134.73 50.2147 135.551 49.232C 136.387 48.2347 137.583 47.736 139.137 47.736C 139.959 47.736 140.67 47.8753 141.271 48.154C 141.887 48.418 142.393 48.8067 142.789 49.32C 143.185 49.8187 143.479 50.4273 143.669 51.146C 143.86 51.85 143.955 52.6347 143.955 53.5C 143.955 55.3627 143.537 56.7927 142.701 57.79C 141.88 58.7727 140.692 59.264 139.137 59.264C 138.316 59.264 137.597 59.132 136.981 58.868C 136.38 58.5893 135.881 58.2007 135.485 57.702C 135.089 57.1887 134.796 56.58 134.605 55.876C 134.415 55.1573 134.319 54.3653 134.319 53.5ZM 136.145 53.5C 136.145 54.0573 136.197 54.5927 136.299 55.106C 136.417 55.6193 136.593 56.0667 136.827 56.448C 137.062 56.8293 137.37 57.1373 137.751 57.372C 138.133 57.6067 138.595 57.724 139.137 57.724C 141.132 57.7387 142.129 56.3307 142.129 53.5C 142.129 52.928 142.071 52.3853 141.953 51.872C 141.851 51.3587 141.682 50.9113 141.447 50.53C 141.213 50.1487 140.905 49.848 140.523 49.628C 140.142 49.3933 139.68 49.276 139.137 49.276C 137.143 49.2613 136.145 50.6693 136.145 53.5ZM 152.519 49.54L 149.329 49.54C 149.285 50.156 149.241 50.8233 149.197 51.542C 149.153 52.246 149.087 52.9573 148.999 53.676C 148.911 54.38 148.794 55.062 148.647 55.722C 148.501 56.3673 148.31 56.9393 148.075 57.438C 147.855 57.9367 147.577 58.34 147.239 58.648C 146.917 58.9413 146.528 59.088 146.073 59.088C 145.795 59.088 145.553 59.0733 145.347 59.044C 145.142 59.0147 144.959 58.9633 144.797 58.89L 145.061 57.416C 145.237 57.4747 145.428 57.504 145.633 57.504C 145.927 57.504 146.191 57.3793 146.425 57.13C 146.66 56.8807 146.865 56.4113 147.041 55.722C 147.217 55.018 147.364 54.05 147.481 52.818C 147.599 51.586 147.679 49.98 147.723 48L 154.279 48L 154.279 59L 152.519 59L 152.519 49.54ZM 163.584 49.54L 160.394 49.54C 160.35 50.156 160.306 50.8233 160.262 51.542C 160.218 52.246 160.152 52.9573 160.064 53.676C 159.976 54.38 159.858 55.062 159.712 55.722C 159.565 56.3673 159.374 56.9393 159.14 57.438C 158.92 57.9367 158.641 58.34 158.304 58.648C 157.981 58.9413 157.592 59.088 157.138 59.088C 156.859 59.088 156.617 59.0733 156.412 59.044C 156.206 59.0147 156.023 58.9633 155.862 58.89L 156.126 57.416C 156.302 57.4747 156.492 57.504 156.698 57.504C 156.991 57.504 157.255 57.3793 157.49 57.13C 157.724 56.8807 157.93 56.4113 158.106 55.722C 158.282 55.018 158.428 54.05 158.546 52.818C 158.663 51.586 158.744 49.98 158.788 48L 165.344 48L 165.344 59L 163.584 59L 163.584 49.54ZM 176.76 58.12C 176.32 58.472 175.763 58.7507 175.088 58.956C 174.428 59.1613 173.724 59.264 172.976 59.264C 172.14 59.264 171.414 59.132 170.798 58.868C 170.182 58.5893 169.676 58.2007 169.28 57.702C 168.884 57.1887 168.591 56.58 168.4 55.876C 168.209 55.172 168.114 54.38 168.114 53.5C 168.114 51.6227 168.532 50.1927 169.368 49.21C 170.204 48.2273 171.399 47.736 172.954 47.736C 173.453 47.736 173.951 47.7947 174.45 47.912C 174.949 48.0147 175.396 48.22 175.792 48.528C 176.188 48.836 176.511 49.276 176.76 49.848C 177.009 50.4053 177.134 51.146 177.134 52.07C 177.134 52.554 177.09 53.0893 177.002 53.676L 169.94 53.676C 169.94 54.3213 170.006 54.8933 170.138 55.392C 170.27 55.8907 170.475 56.316 170.754 56.668C 171.033 57.0053 171.392 57.2693 171.832 57.46C 172.287 57.636 172.837 57.724 173.482 57.724C 173.981 57.724 174.479 57.636 174.978 57.46C 175.477 57.284 175.851 57.0787 176.1 56.844L 176.76 58.12ZM 172.976 49.276C 172.111 49.276 171.414 49.5033 170.886 49.958C 170.373 50.4127 170.065 51.19 169.962 52.29L 175.418 52.29C 175.418 51.1753 175.205 50.398 174.78 49.958C 174.355 49.5033 173.753 49.276 172.976 49.276ZM 182.674 54.05L 181.662 54.05L 181.662 59L 179.902 59L 179.902 48L 181.662 48L 181.662 52.972L 182.608 52.664L 186.128 48L 188.042 48L 184.632 52.422L 183.708 53.148L 184.852 54.028L 188.526 59L 186.348 59L 182.674 54.05ZM 200.286 61.794L 199.098 61.794L 198.768 59L 190.408 59L 190.408 48L 192.168 48L 192.168 57.46L 196.942 57.46L 196.942 48L 198.702 48L 198.702 57.46L 200.286 57.46L 200.286 61.794ZM 209.325 52.488L 209.391 51.124L 209.325 51.124L 208.423 52.532L 203.473 59L 202.461 59L 202.461 48L 204.221 48L 204.221 54.71L 204.155 56.008L 204.243 56.008L 205.101 54.644L 210.051 48L 211.085 48L 211.085 59L 209.325 59L 209.325 52.488ZM 223.006 59.264C 222.214 59.264 221.532 59.1467 220.96 58.912C 220.403 58.6627 219.941 58.318 219.574 57.878C 219.222 57.4233 218.951 56.8807 218.76 56.25C 218.584 55.6047 218.474 54.9007 218.43 54.138L 216.23 54.138L 216.23 59L 214.47 59L 214.47 48L 216.23 48L 216.23 52.598L 218.452 52.598C 218.57 51.0287 218.995 49.826 219.728 48.99C 220.476 48.154 221.584 47.736 223.05 47.736C 223.857 47.736 224.539 47.8753 225.096 48.154C 225.668 48.418 226.13 48.8067 226.482 49.32C 226.849 49.8187 227.113 50.4273 227.274 51.146C 227.436 51.85 227.516 52.6347 227.516 53.5C 227.516 55.3627 227.142 56.7927 226.394 57.79C 225.661 58.7727 224.532 59.264 223.006 59.264ZM 220.168 53.5C 220.168 54.072 220.212 54.6147 220.3 55.128C 220.388 55.6413 220.542 56.096 220.762 56.492C 220.982 56.8733 221.276 57.174 221.642 57.394C 222.024 57.614 222.493 57.724 223.05 57.724C 223.989 57.724 224.664 57.3867 225.074 56.712C 225.485 56.0227 225.69 54.952 225.69 53.5C 225.69 52.928 225.646 52.3853 225.558 51.872C 225.485 51.3587 225.346 50.9113 225.14 50.53C 224.935 50.134 224.664 49.826 224.326 49.606C 223.989 49.386 223.556 49.276 223.028 49.276C 222.016 49.276 221.283 49.6207 220.828 50.31C 220.388 50.9847 220.168 52.048 220.168 53.5Z"/>
</defs>
</svg>
