<svg width="639" height="98" viewBox="0 0 639 98" version="1.1" xmlns="http://www.w3.org/2000/svg" xmlns:xlink="http://www.w3.org/1999/xlink">
<title>&#208;&#157;&#208;&#176; &#208;&#186;&#208;&#190;&#208;&#187;&#208;&#187;&#208;&#181;&#208;&#186;&#209;&#134;&#208;&#184;&#209;&#142; &#194;&#171;&#208;&#147;&#208;&#190;&#208;&#180;&#209;&#139; &#208;&#160;&#208;&#190;&#208;&#182;&#208;&#180;&#208;&#181;&#208;&#189;&#208;&#184;&#209;&#143;&#194;&#187;</title>
<desc>Created using Figma</desc>
<g id="Canvas" transform="translate(-9146 -304)">
<g id="&#208;&#157;&#208;&#176; &#208;&#186;&#208;&#190;&#208;&#187;&#208;&#187;&#208;&#181;&#208;&#186;&#209;&#134;&#208;&#184;&#209;&#142; &#194;&#171;&#208;&#147;&#208;&#190;&#208;&#180;&#209;&#139; &#208;&#160;&#208;&#190;&#208;&#182;&#208;&#180;&#208;&#181;&#208;&#189;&#208;&#184;&#209;&#143;&#194;&#187;">
<use xlink:href="#path0_fill" transform="translate(9125 275)" fill="#FFC700"/>
<use xlink:href="#path1_fill" transform="translate(9125 275)" fill="#F2F2F2"/>
</g>
</g>
<defs>
<path id="path0_fill" d="M 28.9264 108.956L 30.4144 109.328L 31.2824 109.08L 32.1504 108.522L 33.9484 107.84L 34.3824 106.538L 33.5144 104.616L 33.2044 103.81L 32.3364 102.012L 32.0264 100.896L 31.4684 100.028L 31.2204 99.098L 30.7244 98.23L 30.7244 96.246L 33.4524 89.798L 33.8864 89.116L 34.2584 88.186L 33.8864 86.76L 32.9564 86.264L 32.0264 86.078L 30.3524 85.086L 28.8024 85.52L 21.6724 96.37L 21.6104 98.23L 22.2304 98.912L 22.7884 99.904L 23.4084 100.524L 26.6324 105.608L 27.3144 106.476L 28.9264 108.956ZM 40.2724 108.956L 41.6984 109.452L 43.3724 108.522L 45.1084 107.84L 45.6044 106.538L 45.2944 105.484L 42.5044 99.036L 42.0084 98.23L 42.0704 96.37L 42.4424 95.378L 42.8764 94.634L 43.1244 93.704L 43.9304 91.844L 44.4884 90.914L 44.8604 89.922L 45.1084 88.93L 45.6664 88.124L 45.1704 86.822L 41.5124 85.272L 40.1484 85.52L 38.4744 88.062L 37.9784 89.054L 37.4204 89.674L 34.1344 94.82L 33.5144 95.502L 32.8944 96.432L 33.0184 98.168L 33.4524 98.974L 34.0724 99.904L 34.6924 100.586L 35.1264 101.578L 35.6844 102.384L 36.2424 103.066L 36.8004 103.996L 38.0404 105.608L 38.5364 106.6L 39.7144 108.088L 40.2724 108.956ZM 52.1178 117.14L 52.6138 118.256L 54.6598 119L 58.8138 119.062L 60.1158 119.248L 61.4798 119L 62.6578 118.38L 63.2778 117.078L 63.3398 115.776L 63.2778 114.722L 63.3398 113.544L 63.2778 107.344L 63.4018 106.042L 63.2778 100.958L 63.4638 99.78L 63.2778 98.602L 63.3398 96.122L 63.2158 94.944L 63.4018 93.704L 63.3398 88.124L 63.8358 86.202L 65.1378 85.52L 66.2538 85.52L 67.4318 85.706L 68.7338 85.644L 69.9738 85.396L 71.1518 85.52L 76.6698 85.52L 78.4058 84.838L 79.1498 83.722L 79.0258 77.584L 78.4678 76.344L 77.2278 75.662L 76.0498 75.662L 74.7478 75.538L 72.8878 75.662L 71.0898 75.538L 69.9118 75.724L 68.6718 75.724L 67.4938 75.538L 64.9518 75.476L 63.6498 75.662L 62.4718 75.724L 61.2318 75.538L 54.4118 75.662L 52.6138 76.282L 51.9938 77.46L 52.1178 78.762L 51.9318 79.94L 52.1178 86.326L 51.9938 87.442L 51.9938 93.642L 52.1798 95.006L 51.9938 101.082L 52.1798 102.322L 51.9938 105.422L 52.1178 106.538L 52.1178 117.14ZM 103.33 119.806L 108.848 119.248L 111.204 118.504L 116.722 116.024L 121.062 111.87L 121.868 110.754L 124.286 106.476L 124.72 105.298L 124.906 104.058L 125.278 103.066L 125.526 101.702L 125.836 97.362L 125.526 93.084L 125.03 90.79L 124.534 89.488L 124.224 88.062L 123.108 86.016L 122.674 84.9L 121.868 83.846L 121.124 83.102L 120.318 81.986L 117.652 79.568L 114.49 77.584L 106.368 75.042L 103.454 74.98L 99.1138 75.228L 97.8738 75.476L 96.6338 75.848L 95.5178 76.344L 93.1618 76.964L 89.9998 78.948L 89.1318 79.692L 87.1478 81.056L 85.4738 82.916L 83.3658 86.016L 82.8078 87.07L 81.6298 90.48L 81.1338 93.146L 80.8858 100.338L 81.5678 104.244L 82.4978 106.352L 82.8698 107.654L 83.4898 108.77L 86.4038 112.738L 88.1398 114.412L 88.9458 115.342L 93.1618 117.574L 94.3398 118.07L 99.6098 119.62L 103.33 119.806ZM 101.594 108.894L 100.354 108.46L 99.2378 108.336L 97.1298 107.22L 95.2078 105.546L 94.5878 104.678L 93.7818 103.81L 92.6038 100.338L 92.2938 97.238L 92.3558 95.378L 92.7898 93.084L 93.1618 91.968L 93.9058 91.1L 94.4638 90.046L 95.2698 89.054L 96.1998 88.248L 97.9978 87.008L 99.1138 86.45L 100.416 86.14L 103.268 85.892L 106.244 86.078L 109.53 87.504L 111.452 88.93L 112.878 91.038L 113.374 92.154L 113.746 93.394L 114.18 94.51L 114.428 97.176L 114.056 100.276L 113.498 102.818L 112.816 103.748L 112.258 104.678L 111.514 105.794L 109.592 107.282L 108.476 107.778L 107.484 108.336L 106.368 108.46L 105.19 108.77L 101.594 108.894ZM 128.277 124.766L 129.021 125.944L 130.633 126.502L 134.725 126.502L 135.903 126.626L 137.081 126.564L 138.259 125.82L 139.065 124.58L 139.065 123.34L 138.879 122.1L 138.941 120.922L 139.623 119.682L 140.863 119.062L 142.165 118.876L 147.063 119.124L 148.427 118.938L 149.605 119.124L 159.649 119.062L 160.951 119.62L 161.509 120.984L 161.695 123.278L 161.633 124.704L 162.253 125.882L 163.369 126.626L 164.485 126.626L 165.601 126.378L 166.965 126.564L 168.019 126.564L 169.073 126.44L 170.313 126.564L 171.553 126.006L 172.049 124.704L 172.173 117.264L 171.987 115.59L 172.173 111.25L 171.615 109.948L 170.499 109.452L 169.383 109.514L 168.329 108.894L 167.771 107.406L 167.771 102.57L 167.647 101.33L 167.833 91.286L 167.709 90.046L 167.833 87.504L 167.709 86.45L 167.709 85.086L 167.895 83.66L 167.709 82.482L 167.833 81.242L 167.709 77.584L 167.151 76.282L 165.849 75.6L 163.927 75.786L 160.951 75.6L 159.711 75.724L 157.107 75.6L 155.867 75.662L 154.131 75.476L 152.767 75.662L 148.427 75.538L 147.187 75.724L 145.885 75.476L 144.707 75.724L 140.925 75.786L 139.747 75.662L 138.383 76.22L 137.639 77.46L 137.329 79.878L 137.329 81.18L 137.019 82.358L 137.019 83.66L 135.407 96.122L 135.469 97.052L 134.291 105.794L 133.423 107.902L 132.617 108.646L 131.687 109.204L 130.261 109.328L 128.773 110.072L 128.463 111.25L 128.401 112.552L 128.463 113.668L 128.339 116.21L 128.463 118.69L 128.339 120.922L 128.463 122.286L 128.277 124.766ZM 146.009 109.7L 145.079 109.328L 144.955 108.088L 145.513 106.042L 147.559 87.256L 148.179 86.078L 150.225 85.334L 152.147 85.272L 153.325 85.52L 154.565 85.334L 155.929 86.14L 156.487 87.256L 156.425 100.71L 156.549 101.826L 156.549 108.026L 155.929 109.08L 154.751 109.576L 149.729 109.824L 147.249 109.576L 146.009 109.7ZM 179.265 117.14L 179.885 118.256L 181.187 119.124L 183.915 119.186L 185.093 119L 190.859 119.062L 193.401 118.876L 197.121 119.186L 201.461 118.876L 205.057 117.698L 206.235 117.016L 207.165 116.644L 208.219 115.776L 209.273 115.28L 210.141 114.35L 212.125 111.498L 213.551 108.026L 213.799 106.848L 213.923 101.95L 213.489 99.594L 212.683 97.176L 212.063 96.37L 211.691 95.13L 209.087 92.402L 207.289 91.038L 206.111 90.418L 203.941 89.674L 200.283 88.744L 198.981 88.682L 197.121 88.744L 193.959 88.558L 192.471 88.62L 191.045 88L 190.301 86.76L 190.363 77.646L 189.743 76.22L 188.627 75.786L 184.783 75.786L 183.729 75.6L 182.489 75.538L 181.249 75.662L 179.885 76.344L 179.327 77.398L 179.265 82.668L 179.389 83.722L 179.327 87.38L 179.451 88.62L 179.451 89.984L 179.327 91.162L 179.451 96.246L 179.327 97.238L 179.451 99.78L 179.265 103.438L 179.389 104.678L 179.265 117.14ZM 235.375 119.248L 237.855 119.124L 238.971 118.504L 239.591 117.326L 239.591 111.188L 238.847 110.01L 237.483 109.328L 236.181 109.328L 234.693 108.832L 233.949 107.406L 234.135 106.228L 234.073 99.408L 234.197 98.044L 233.949 93.58L 234.197 87.318L 234.631 85.892L 235.995 85.334L 237.235 85.148L 238.537 84.652L 239.157 83.66L 239.219 77.522L 238.475 76.344L 237.359 75.662L 229.857 75.662L 228.741 75.538L 227.501 75.786L 222.417 75.786L 221.239 75.6L 219.813 75.6L 218.573 76.22L 217.953 77.708L 218.139 82.296L 218.015 83.474L 218.697 84.714L 220.061 85.396L 221.301 85.396L 222.479 86.14L 223.037 87.814L 223.223 106.848L 222.541 108.708L 218.449 109.948L 217.767 111.064L 217.581 116.768L 218.201 118.442L 219.441 119L 220.619 119L 221.797 118.876L 223.595 119.124L 225.517 119.062L 226.757 118.938L 229.237 119.186L 231.097 118.938L 234.135 118.938L 235.375 119.248ZM 192.471 109.266L 191.045 108.522L 190.363 107.53L 190.363 106.166L 190.487 103.81L 190.363 100.09L 191.169 99.098L 192.347 98.478L 193.649 98.54L 195.075 98.354L 199.043 98.788L 200.283 99.16L 201.337 99.78L 202.205 100.772L 202.577 101.826L 202.763 103.934L 202.763 105.732L 202.143 107.034L 201.461 107.902L 199.105 108.894L 197.121 109.142L 195.199 109.018L 192.471 109.266ZM 267.871 119.186L 270.909 119.062L 272.025 119.124L 273.451 119L 274.753 118.504L 275.311 117.202L 275.249 115.962L 275.311 114.598L 275.187 112.304L 275.311 111.126L 275.249 109.7L 275.807 108.584L 277.233 107.902L 278.597 107.778L 279.899 108.026L 286.285 107.53L 292.175 105.174L 293.105 104.43L 293.973 103.438L 294.779 102.632L 295.585 101.702L 296.887 99.718L 297.941 97.3L 298.127 95.936L 298.499 94.944L 298.623 89.86L 298.375 88.806L 298.189 87.442L 297.445 85.148L 296.267 83.04L 294.779 80.994L 291.989 78.576L 289.943 77.212L 287.463 76.468L 286.409 76.034L 285.169 76.034L 283.929 75.6L 282.069 75.538L 280.085 75.6L 278.721 75.786L 274.939 75.724L 273.699 75.538L 269.855 75.786L 268.491 75.724L 267.375 75.538L 266.073 75.786L 264.771 76.468L 264.213 77.46L 264.275 84.962L 264.027 87.442L 264.151 88.62L 264.089 104.678L 264.213 105.856L 264.151 117.326L 264.833 118.504L 266.755 119.124L 267.871 119.186ZM 277.171 97.982L 275.931 97.238L 275.373 96.184L 275.187 91.162L 275.311 89.86L 275.311 87.318L 275.931 86.14L 277.233 85.52L 283.681 85.706L 284.921 86.264L 285.913 86.946L 286.719 87.752L 287.339 88.992L 287.525 90.108L 287.649 91.844L 287.525 93.518L 287.091 94.634L 286.533 95.626L 285.727 96.618L 284.735 97.362L 283.743 97.672L 281.821 97.92L 278.659 97.858L 277.171 97.982ZM 325.234 119.806L 330.752 119.248L 333.108 118.504L 338.626 116.024L 342.966 111.87L 343.772 110.754L 346.19 106.476L 346.624 105.298L 346.81 104.058L 347.182 103.066L 347.43 101.702L 347.74 97.362L 347.43 93.084L 346.934 90.79L 346.438 89.488L 346.128 88.062L 345.012 86.016L 344.578 84.9L 343.772 83.846L 343.028 83.102L 342.222 81.986L 339.556 79.568L 336.394 77.584L 328.272 75.042L 325.358 74.98L 321.018 75.228L 319.778 75.476L 318.538 75.848L 317.422 76.344L 315.066 76.964L 311.904 78.948L 311.036 79.692L 309.052 81.056L 307.378 82.916L 305.27 86.016L 304.712 87.07L 303.534 90.48L 303.038 93.146L 302.79 100.338L 303.472 104.244L 304.402 106.352L 304.774 107.654L 305.394 108.77L 308.308 112.738L 310.044 114.412L 310.85 115.342L 315.066 117.574L 316.244 118.07L 321.514 119.62L 325.234 119.806ZM 323.498 108.894L 322.258 108.46L 321.142 108.336L 319.034 107.22L 317.112 105.546L 316.492 104.678L 315.686 103.81L 314.508 100.338L 314.198 97.238L 314.26 95.378L 314.694 93.084L 315.066 91.968L 315.81 91.1L 316.368 90.046L 317.174 89.054L 318.104 88.248L 319.902 87.008L 321.018 86.45L 322.32 86.14L 325.172 85.892L 328.148 86.078L 331.434 87.504L 333.356 88.93L 334.782 91.038L 335.278 92.154L 335.65 93.394L 336.084 94.51L 336.332 97.176L 335.96 100.276L 335.402 102.818L 334.72 103.748L 334.162 104.678L 333.418 105.794L 331.496 107.282L 330.38 107.778L 329.388 108.336L 328.272 108.46L 327.094 108.77L 323.498 108.894ZM 349.506 117.326L 349.754 118.69L 351.056 119.248L 357.504 118.938L 358.806 119.124L 360.108 119.186L 361.72 118.752L 362.96 117.574L 363.58 116.458L 364.262 115.032L 366.184 111.932L 367.3 109.638L 368.54 107.468L 369.098 106.29L 370.462 103.934L 371.578 103.004L 373.252 102.57L 374.554 103.19L 375.05 104.492L 375.112 117.202L 375.67 118.318L 376.91 119.124L 378.15 119.124L 379.452 118.938L 383.172 119.186L 384.536 119L 385.776 118.318L 386.334 117.016L 386.396 114.536L 386.272 113.358L 386.272 112.304L 386.458 111.002L 386.334 107.096L 386.396 105.794L 386.334 104.43L 386.892 103.376L 388.132 102.694L 389.682 102.88L 390.984 104.058L 391.542 105.298L 392.162 106.228L 392.72 107.406L 394.084 109.638L 394.642 110.94L 398.486 117.45L 399.726 118.69L 402.082 119.186L 404.004 119L 407.786 119.062L 408.964 119.248L 411.692 118.752L 412.002 117.264L 411.32 115.9L 410.576 114.97L 409.398 112.8L 408.654 111.746L 408.096 110.692L 407.29 109.762L 400.78 99.47L 400.532 97.982L 401.028 96.494L 402.33 94.262L 403.198 91.844L 403.57 90.542L 404.066 89.426L 404.81 86.264L 405.554 84.714L 406.484 83.846L 407.476 83.412L 408.716 83.412L 409.77 82.73L 410.452 81.428L 410.514 78.824L 410.328 77.522L 409.894 76.406L 408.53 75.538L 406.05 75.104L 403.632 75.042L 402.454 75.414L 401.338 75.538L 398.982 76.53L 397.928 77.336L 397.06 78.142L 396.254 79.196L 395.634 80.25L 395.2 81.428L 394.146 86.264L 393.278 88.558L 392.72 89.55L 391.914 90.666L 390.302 91.782L 388.566 92.464L 387.016 91.968L 386.272 90.666L 386.396 85.892L 386.272 84.9L 386.396 83.474L 386.396 77.46L 385.714 76.22L 384.412 75.662L 383.296 75.6L 381.994 75.724L 376.848 75.662L 375.67 76.344L 375.05 77.522L 375.112 78.762L 374.988 81.18L 375.112 82.42L 375.112 86.016L 374.988 87.256L 374.988 88.31L 375.174 89.674L 375.174 90.79L 374.43 91.968L 372.818 92.464L 370.958 91.596L 369.532 90.666L 368.664 89.488L 368.168 88.558L 367.3 86.388L 366.122 81.552L 365.13 79.32L 363.456 77.336L 360.666 75.786L 358.992 75.29L 357.752 75.166L 356.512 75.29L 355.21 75.104L 354.032 75.104L 352.854 75.476L 351.676 76.344L 351.056 78.328L 350.932 79.568L 350.932 81.614L 351.552 82.73L 354.838 83.97L 355.768 84.838L 356.512 86.388L 359.054 94.324L 359.736 95.502L 360.418 96.37L 360.728 97.858L 360.542 99.47L 359.24 101.454L 358.682 102.632L 357.876 103.624L 357.256 104.554L 356.698 105.608L 355.892 106.538L 351.986 112.8L 351.49 113.978L 350.746 114.908L 349.506 117.326ZM 414.966 124.766L 415.71 125.944L 417.322 126.502L 421.414 126.502L 422.592 126.626L 423.77 126.564L 424.948 125.82L 425.754 124.58L 425.754 123.34L 425.568 122.1L 425.63 120.922L 426.312 119.682L 427.552 119.062L 428.854 118.876L 433.752 119.124L 435.116 118.938L 436.294 119.124L 446.338 119.062L 447.64 119.62L 448.198 120.984L 448.384 123.278L 448.322 124.704L 448.942 125.882L 450.058 126.626L 451.174 126.626L 452.29 126.378L 453.654 126.564L 454.708 126.564L 455.762 126.44L 457.002 126.564L 458.242 126.006L 458.738 124.704L 458.862 117.264L 458.676 115.59L 458.862 111.25L 458.304 109.948L 457.188 109.452L 456.072 109.514L 455.018 108.894L 454.46 107.406L 454.46 102.57L 454.336 101.33L 454.522 91.286L 454.398 90.046L 454.522 87.504L 454.398 86.45L 454.398 85.086L 454.584 83.66L 454.398 82.482L 454.522 81.242L 454.398 77.584L 453.84 76.282L 452.538 75.6L 450.616 75.786L 447.64 75.6L 446.4 75.724L 443.796 75.6L 442.556 75.662L 440.82 75.476L 439.456 75.662L 435.116 75.538L 433.876 75.724L 432.574 75.476L 431.396 75.724L 427.614 75.786L 426.436 75.662L 425.072 76.22L 424.328 77.46L 424.018 79.878L 424.018 81.18L 423.708 82.358L 423.708 83.66L 422.096 96.122L 422.158 97.052L 420.98 105.794L 420.112 107.902L 419.306 108.646L 418.376 109.204L 416.95 109.328L 415.462 110.072L 415.152 111.25L 415.09 112.552L 415.152 113.668L 415.028 116.21L 415.152 118.69L 415.028 120.922L 415.152 122.286L 414.966 124.766ZM 432.698 109.7L 431.768 109.328L 431.644 108.088L 432.202 106.042L 434.248 87.256L 434.868 86.078L 436.914 85.334L 438.836 85.272L 440.014 85.52L 441.254 85.334L 442.618 86.14L 443.176 87.256L 443.114 100.71L 443.238 101.826L 443.238 108.026L 442.618 109.08L 441.44 109.576L 436.418 109.824L 433.938 109.576L 432.698 109.7ZM 482.942 119.186L 491.808 119.062L 493.11 118.504L 493.792 117.202L 493.792 110.94L 493.11 109.7L 491.808 109.142L 490.382 109.266L 489.204 109.08L 486.042 109.018L 483.996 109.266L 482.756 109.142L 481.392 109.204L 480.214 109.018L 478.85 109.142L 477.548 108.522L 477.052 107.406L 477.052 103.5L 477.61 102.198L 478.726 101.516L 480.586 101.454L 482.57 101.64L 484.926 101.516L 487.468 101.578L 488.708 101.454L 490.134 101.516L 491.374 101.02L 491.808 99.78L 491.994 94.2L 491.374 92.464L 489.948 91.658L 486.29 91.658L 484.988 91.782L 482.384 91.596L 478.788 91.72L 477.486 91.162L 476.99 89.24L 476.99 87.318L 477.548 86.14L 478.912 85.644L 480.09 85.706L 481.268 85.458L 490.134 85.582L 491.312 85.52L 492.614 84.776L 493.234 83.66L 493.172 82.42L 493.234 81.18L 493.11 77.46L 492.552 76.282L 491.312 75.786L 490.01 75.786L 488.894 75.538L 483.872 75.6L 482.508 75.724L 481.268 75.6L 480.214 75.662L 478.974 75.538L 473.89 75.662L 472.65 75.476L 471.472 75.724L 470.356 75.6L 469.116 75.724L 467.876 75.662L 466.574 76.158L 465.892 77.46L 466.016 79.816L 465.83 82.358L 466.016 83.722L 465.892 89.798L 466.078 91.1L 465.954 92.278L 465.892 97.362L 466.078 98.478L 466.016 108.522L 465.892 109.7L 466.078 110.94L 465.892 115.218L 466.016 116.582L 466.512 118.256L 468.372 119.062L 472.836 119.124L 474.2 119L 475.316 119.062L 477.858 118.876L 479.036 119.124L 480.462 119.186L 481.702 119.062L 482.942 119.186ZM 501.433 117.264L 502.177 118.442L 503.355 119.124L 504.595 119.062L 507.075 119.186L 508.377 119.062L 510.981 119.124L 512.283 118.38L 512.779 117.202L 512.903 116.024L 512.779 114.66L 512.779 103.686L 513.337 102.384L 514.639 101.578L 521.955 101.516L 523.257 101.702L 524.373 101.702L 525.551 102.384L 526.171 103.562L 526.233 117.264L 526.915 118.256L 528.713 119.062L 531.937 119.062L 533.177 118.938L 535.719 119.124L 536.897 118.318L 537.641 117.264L 537.517 111.622L 537.703 109.638L 537.517 108.646L 537.579 77.522L 537.021 76.22L 535.781 75.724L 528.651 75.662L 526.853 76.096L 526.233 77.584L 526.171 79.94L 526.295 80.994L 526.171 83.536L 526.357 84.714L 526.295 89.55L 525.613 90.79L 524.373 91.472L 523.195 91.286L 520.777 91.534L 519.475 91.41L 518.359 91.534L 514.701 91.472L 513.523 90.914L 512.903 89.736L 512.841 88.372L 512.841 87.07L 512.779 85.954L 512.841 81.118L 512.965 79.754L 512.841 77.46L 512.283 76.282L 510.981 75.6L 509.617 75.724L 503.479 75.6L 502.115 76.22L 501.495 77.46L 501.371 78.824L 501.495 83.66L 501.371 84.9L 501.619 87.442L 501.495 89.798L 501.557 91.286L 501.433 92.526L 501.433 111.064L 501.619 112.18L 501.433 117.264ZM 581.191 119.186L 582.555 119L 583.857 118.38L 584.415 117.202L 584.291 113.42L 584.477 111.002L 584.353 109.824L 584.415 94.634L 584.291 93.58L 584.291 92.34L 584.415 91.1L 584.415 89.674L 584.291 88.558L 584.291 79.878L 584.415 78.576L 584.415 77.398L 583.609 75.972L 582.369 75.476L 580.633 75.848L 579.083 76.592L 566.807 88.868L 565.815 89.612L 559.739 95.688L 558.747 95.998L 558.375 95.13L 558.437 93.828L 558.313 92.65L 558.499 81.428L 558.375 79.94L 558.375 77.584L 557.817 76.344L 556.391 75.538L 555.275 75.724L 553.911 75.476L 552.671 75.724L 548.827 75.6L 547.587 76.22L 546.905 77.708L 546.967 109.886L 546.843 111.25L 547.029 113.11L 546.843 116.086L 546.967 117.202L 547.525 118.69L 548.827 119.124L 550.687 118.876L 552.175 118.07L 553.229 117.14L 554.097 116.024L 558.313 111.994L 559.367 111.25L 560.173 110.196L 563.707 106.91L 567.055 103.252L 568.047 102.384L 568.915 101.454L 571.705 99.098L 572.387 98.664L 572.945 99.532L 572.945 100.834L 572.821 102.074L 573.007 104.058L 572.883 106.042L 573.007 107.158L 572.821 108.398L 572.821 117.264L 573.441 118.504L 574.743 118.938L 575.983 119.062L 581.191 119.186ZM 591.106 117.388L 591.416 118.69L 592.842 119L 600.902 119L 603.01 118.566L 604.064 117.45L 604.746 116.582L 605.49 115.342L 605.986 114.226L 606.73 113.358L 609.148 108.956L 609.83 108.026L 610.946 106.848L 612.372 106.228L 614.79 106.352L 615.906 106.91L 616.402 108.088L 616.526 113.482L 616.402 114.598L 616.464 116.644L 617.022 118.442L 618.386 118.938L 623.346 119L 624.462 119.124L 625.764 119.062L 626.88 118.442L 627.5 117.078L 627.562 116.024L 627.438 113.42L 627.624 112.304L 627.438 105.298L 627.562 104.182L 627.562 102.88L 627.438 101.764L 627.624 99.842L 627.438 95.626L 627.686 92.402L 627.5 89.24L 627.686 86.264L 627.5 85.024L 627.624 83.784L 627.438 80.002L 627.624 77.46L 626.942 76.22L 625.144 75.724L 620.804 75.786L 619.626 75.6L 618.51 75.724L 617.208 75.724L 615.968 75.538L 613.488 75.786L 612.186 75.724L 611.132 75.848L 609.086 75.662L 603.506 76.468L 602.266 76.964L 601.15 77.336L 600.034 77.832L 598.112 79.382L 596.376 81.18L 595.074 83.226L 594.454 84.466L 593.4 87.752L 593.214 88.992L 593.028 92.898L 593.586 95.192L 594.454 97.61L 595.012 98.478L 595.446 99.78L 596.996 101.64L 597.988 102.384L 598.484 103.996L 598.298 105.422L 591.85 115.838L 591.106 117.388ZM 611.132 96.184L 607.474 96.06L 606.296 95.502L 605.49 94.82L 604.808 93.704L 604.436 92.774L 604.126 90.852L 604.25 89.178L 604.746 88.186L 605.428 87.132L 606.358 86.45L 607.412 86.016L 609.21 85.644L 610.45 85.768L 611.628 85.644L 614.666 85.644L 615.844 86.264L 616.526 87.38L 616.588 92.278L 616.402 93.456L 616.402 94.634L 615.782 95.812L 614.604 96.246L 611.132 96.184ZM 650.58 109.452L 652.068 109.018L 653.184 107.53L 653.68 106.538L 654.3 105.856L 655.478 104.058L 655.912 103.19L 656.532 102.508L 657.586 100.648L 658.268 99.966L 658.702 98.974L 659.26 98.168L 659.26 96.618L 657.71 94.014L 657.152 93.27L 656.532 92.34L 655.974 91.658L 654.362 89.116L 653.68 88.31L 652.13 85.768L 650.58 85.21L 649.836 85.706L 648.1 86.388L 647.232 86.946L 646.736 88.186L 648.162 91.968L 648.658 92.712L 649.774 95.564L 650.208 96.432L 650.146 98.168L 647.046 105.794L 646.55 106.724L 647.108 108.026L 648.038 108.336L 648.844 108.77L 649.712 109.018L 650.58 109.452ZM 639.358 109.514L 640.722 109.204L 641.404 108.336L 641.838 107.468L 643.512 104.802L 644.194 104.12L 645.31 102.508L 645.744 101.454L 646.364 100.834L 648.1 98.292L 648.038 96.618L 647.542 95.688L 646.302 94.014L 645.31 92.34L 644.628 91.596L 644.194 90.728L 640.784 85.768L 639.296 85.396L 638.49 85.768L 637.622 85.954L 636.754 86.512L 635.886 86.884L 635.452 88.248L 636.878 91.782L 637.436 92.65L 637.746 93.766L 638.118 94.572L 638.552 95.626L 638.924 96.432L 638.862 98.23L 638.614 99.284L 635.266 106.724L 635.762 108.026L 637.498 108.646L 638.366 109.142L 639.358 109.514Z"/>
<path id="path1_fill" d="M 230.226 45.518L 216.114 45.518L 216.114 59L 212.628 59L 212.628 29.6L 216.114 29.6L 216.114 42.41L 230.226 42.41L 230.226 29.6L 233.712 29.6L 233.712 59L 230.226 59L 230.226 45.518ZM 240.174 39.554C 241.238 38.91 242.47 38.434 243.87 38.126C 245.298 37.818 246.782 37.664 248.322 37.664C 249.778 37.664 250.94 37.86 251.808 38.252C 252.704 38.644 253.376 39.162 253.824 39.806C 254.3 40.422 254.608 41.108 254.748 41.864C 254.916 42.62 255 43.376 255 44.132C 255 45.812 254.958 47.45 254.874 49.046C 254.79 50.642 254.748 52.154 254.748 53.582C 254.748 54.618 254.79 55.598 254.874 56.522C 254.958 57.446 255.112 58.3 255.336 59.084L 252.858 59.084L 251.976 56.144L 251.766 56.144C 251.514 56.536 251.192 56.928 250.8 57.32C 250.436 57.684 249.988 58.02 249.456 58.328C 248.924 58.608 248.308 58.846 247.608 59.042C 246.908 59.238 246.11 59.336 245.214 59.336C 244.318 59.336 243.478 59.196 242.694 58.916C 241.938 58.636 241.28 58.244 240.72 57.74C 240.16 57.208 239.712 56.578 239.376 55.85C 239.068 55.122 238.914 54.296 238.914 53.372C 238.914 52.14 239.166 51.118 239.67 50.306C 240.174 49.466 240.874 48.808 241.77 48.332C 242.694 47.828 243.786 47.478 245.046 47.282C 246.334 47.058 247.748 46.946 249.288 46.946C 249.68 46.946 250.058 46.946 250.422 46.946C 250.814 46.946 251.206 46.974 251.598 47.03C 251.682 46.19 251.724 45.434 251.724 44.762C 251.724 43.222 251.416 42.144 250.8 41.528C 250.184 40.912 249.064 40.604 247.44 40.604C 246.964 40.604 246.446 40.646 245.886 40.73C 245.354 40.786 244.794 40.884 244.206 41.024C 243.646 41.136 243.1 41.29 242.568 41.486C 242.064 41.654 241.616 41.85 241.224 42.074L 240.174 39.554ZM 246.138 56.396C 246.922 56.396 247.622 56.298 248.238 56.102C 248.854 55.878 249.386 55.612 249.834 55.304C 250.282 54.968 250.646 54.604 250.926 54.212C 251.234 53.82 251.458 53.442 251.598 53.078L 251.598 49.592C 251.206 49.564 250.8 49.55 250.38 49.55C 249.988 49.522 249.596 49.508 249.204 49.508C 248.336 49.508 247.482 49.564 246.642 49.676C 245.83 49.76 245.102 49.942 244.458 50.222C 243.842 50.474 243.338 50.838 242.946 51.314C 242.582 51.762 242.4 52.336 242.4 53.036C 242.4 54.016 242.75 54.828 243.45 55.472C 244.15 56.088 245.046 56.396 246.138 56.396ZM 277.836 49.55L 275.904 49.55L 275.904 59L 272.544 59L 272.544 38L 275.904 38L 275.904 47.492L 277.71 46.904L 284.43 38L 288.084 38L 281.574 46.442L 279.81 47.828L 281.994 49.508L 289.008 59L 284.85 59L 277.836 49.55ZM 290.973 48.5C 290.973 44.944 291.757 42.228 293.325 40.352C 294.921 38.448 297.203 37.496 300.171 37.496C 301.739 37.496 303.097 37.762 304.245 38.294C 305.421 38.798 306.387 39.54 307.143 40.52C 307.899 41.472 308.459 42.634 308.823 44.006C 309.187 45.35 309.369 46.848 309.369 48.5C 309.369 52.056 308.571 54.786 306.975 56.69C 305.407 58.566 303.139 59.504 300.171 59.504C 298.603 59.504 297.231 59.252 296.055 58.748C 294.907 58.216 293.955 57.474 293.199 56.522C 292.443 55.542 291.883 54.38 291.519 53.036C 291.155 51.664 290.973 50.152 290.973 48.5ZM 294.459 48.5C 294.459 49.564 294.557 50.586 294.753 51.566C 294.977 52.546 295.313 53.4 295.761 54.128C 296.209 54.856 296.797 55.444 297.525 55.892C 298.253 56.34 299.135 56.564 300.171 56.564C 303.979 56.592 305.883 53.904 305.883 48.5C 305.883 47.408 305.771 46.372 305.547 45.392C 305.351 44.412 305.029 43.558 304.581 42.83C 304.133 42.102 303.545 41.528 302.817 41.108C 302.089 40.66 301.207 40.436 300.171 40.436C 296.363 40.408 294.459 43.096 294.459 48.5ZM 325.719 40.94L 319.629 40.94C 319.545 42.116 319.461 43.39 319.377 44.762C 319.293 46.106 319.167 47.464 318.999 48.836C 318.831 50.18 318.607 51.482 318.327 52.742C 318.047 53.974 317.683 55.066 317.235 56.018C 316.815 56.97 316.283 57.74 315.639 58.328C 315.023 58.888 314.281 59.168 313.413 59.168C 312.881 59.168 312.419 59.14 312.027 59.084C 311.635 59.028 311.285 58.93 310.977 58.79L 311.481 55.976C 311.817 56.088 312.181 56.144 312.573 56.144C 313.133 56.144 313.637 55.906 314.085 55.43C 314.533 54.954 314.925 54.058 315.261 52.742C 315.597 51.398 315.877 49.55 316.101 47.198C 316.325 44.846 316.479 41.78 316.563 38L 329.079 38L 329.079 59L 325.719 59L 325.719 40.94ZM 346.842 40.94L 340.752 40.94C 340.668 42.116 340.584 43.39 340.5 44.762C 340.416 46.106 340.29 47.464 340.122 48.836C 339.954 50.18 339.73 51.482 339.45 52.742C 339.17 53.974 338.806 55.066 338.358 56.018C 337.938 56.97 337.406 57.74 336.762 58.328C 336.146 58.888 335.404 59.168 334.536 59.168C 334.004 59.168 333.542 59.14 333.15 59.084C 332.758 59.028 332.408 58.93 332.1 58.79L 332.604 55.976C 332.94 56.088 333.304 56.144 333.696 56.144C 334.256 56.144 334.76 55.906 335.208 55.43C 335.656 54.954 336.048 54.058 336.384 52.742C 336.72 51.398 337 49.55 337.224 47.198C 337.448 44.846 337.602 41.78 337.686 38L 350.202 38L 350.202 59L 346.842 59L 346.842 40.94ZM 371.997 57.32C 371.157 57.992 370.093 58.524 368.805 58.916C 367.545 59.308 366.201 59.504 364.773 59.504C 363.177 59.504 361.791 59.252 360.615 58.748C 359.439 58.216 358.473 57.474 357.717 56.522C 356.961 55.542 356.401 54.38 356.037 53.036C 355.673 51.692 355.491 50.18 355.491 48.5C 355.491 44.916 356.289 42.186 357.885 40.31C 359.481 38.434 361.763 37.496 364.731 37.496C 365.683 37.496 366.635 37.608 367.587 37.832C 368.539 38.028 369.393 38.42 370.149 39.008C 370.905 39.596 371.521 40.436 371.997 41.528C 372.473 42.592 372.711 44.006 372.711 45.77C 372.711 46.694 372.627 47.716 372.459 48.836L 358.977 48.836C 358.977 50.068 359.103 51.16 359.355 52.112C 359.607 53.064 359.999 53.876 360.531 54.548C 361.063 55.192 361.749 55.696 362.589 56.06C 363.457 56.396 364.507 56.564 365.739 56.564C 366.691 56.564 367.643 56.396 368.595 56.06C 369.547 55.724 370.261 55.332 370.737 54.884L 371.997 57.32ZM 364.773 40.436C 363.121 40.436 361.791 40.87 360.783 41.738C 359.803 42.606 359.215 44.09 359.019 46.19L 369.435 46.19C 369.435 44.062 369.029 42.578 368.217 41.738C 367.405 40.87 366.257 40.436 364.773 40.436ZM 383.287 49.55L 381.355 49.55L 381.355 59L 377.995 59L 377.995 38L 381.355 38L 381.355 47.492L 383.161 46.904L 389.881 38L 393.535 38L 387.025 46.442L 385.261 47.828L 387.445 49.508L 394.459 59L 390.301 59L 383.287 49.55ZM 416.909 64.334L 414.641 64.334L 414.011 59L 398.051 59L 398.051 38L 401.411 38L 401.411 56.06L 410.525 56.06L 410.525 38L 413.885 38L 413.885 56.06L 416.909 56.06L 416.909 64.334ZM 434.165 46.568L 434.291 43.964L 434.165 43.964L 432.443 46.652L 422.993 59L 421.061 59L 421.061 38L 424.421 38L 424.421 50.81L 424.295 53.288L 424.463 53.288L 426.101 50.684L 435.551 38L 437.525 38L 437.525 59L 434.165 59L 434.165 46.568ZM 460.285 59.504C 458.773 59.504 457.471 59.28 456.379 58.832C 455.315 58.356 454.433 57.698 453.733 56.858C 453.061 55.99 452.543 54.954 452.179 53.75C 451.843 52.518 451.633 51.174 451.549 49.718L 447.349 49.718L 447.349 59L 443.989 59L 443.989 38L 447.349 38L 447.349 46.778L 451.591 46.778C 451.815 43.782 452.627 41.486 454.027 39.89C 455.455 38.294 457.569 37.496 460.369 37.496C 461.909 37.496 463.211 37.762 464.275 38.294C 465.367 38.798 466.249 39.54 466.921 40.52C 467.621 41.472 468.125 42.634 468.433 44.006C 468.741 45.35 468.895 46.848 468.895 48.5C 468.895 52.056 468.181 54.786 466.753 56.69C 465.353 58.566 463.197 59.504 460.285 59.504ZM 454.867 48.5C 454.867 49.592 454.951 50.628 455.119 51.608C 455.287 52.588 455.581 53.456 456.001 54.212C 456.421 54.94 456.981 55.514 457.681 55.934C 458.409 56.354 459.305 56.564 460.369 56.564C 462.161 56.564 463.449 55.92 464.233 54.632C 465.017 53.316 465.409 51.272 465.409 48.5C 465.409 47.408 465.325 46.372 465.157 45.392C 465.017 44.412 464.751 43.558 464.359 42.83C 463.967 42.074 463.449 41.486 462.805 41.066C 462.161 40.646 461.335 40.436 460.327 40.436C 458.395 40.436 456.995 41.094 456.127 42.41C 455.287 43.698 454.867 45.728 454.867 48.5Z"/>
</defs>
</svg>
