<svg width="615" height="98" viewBox="0 0 615 98" version="1.1" xmlns="http://www.w3.org/2000/svg" xmlns:xlink="http://www.w3.org/1999/xlink">


<g id="Canvas" transform="translate(-9118 -304)">
<g>
<use xlink:href="#path0_fill" transform="translate(9085 275)" fill="#FFC700"/>
<use xlink:href="#path1_fill" transform="translate(9085 275)" fill="#F2F2F2"/>
</g>
</g>
<defs>
<path id="path0_fill" d="M 40.4606 108.956L 41.9486 109.328L 42.8166 109.08L 43.6846 108.522L 45.4826 107.84L 45.9166 106.538L 45.0486 104.616L 44.7386 103.81L 43.8706 102.012L 43.5606 100.896L 43.0026 100.028L 42.7546 99.098L 42.2586 98.23L 42.2586 96.246L 44.9866 89.798L 45.4206 89.116L 45.7926 88.186L 45.4206 86.76L 44.4906 86.264L 43.5606 86.078L 41.8866 85.086L 40.3366 85.52L 33.2066 96.37L 33.1446 98.23L 33.7646 98.912L 34.3226 99.904L 34.9426 100.524L 38.1666 105.608L 38.8486 106.476L 40.4606 108.956ZM 51.8066 108.956L 53.2326 109.452L 54.9066 108.522L 56.6426 107.84L 57.1386 106.538L 56.8286 105.484L 54.0386 99.036L 53.5426 98.23L 53.6046 96.37L 53.9766 95.378L 54.4106 94.634L 54.6586 93.704L 55.4646 91.844L 56.0226 90.914L 56.3946 89.922L 56.6426 88.93L 57.2006 88.124L 56.7046 86.822L 53.0466 85.272L 51.6826 85.52L 50.0086 88.062L 49.5126 89.054L 48.9546 89.674L 45.6686 94.82L 45.0486 95.502L 44.4286 96.432L 44.5526 98.168L 44.9866 98.974L 45.6066 99.904L 46.2266 100.586L 46.6606 101.578L 47.2186 102.384L 47.7766 103.066L 48.3346 103.996L 49.5746 105.608L 50.0706 106.6L 51.2486 108.088L 51.8066 108.956ZM 63.652 117.14L 64.148 118.256L 66.194 119L 70.348 119.062L 71.65 119.248L 73.014 119L 74.192 118.38L 74.812 117.078L 74.874 115.776L 74.812 114.722L 74.874 113.544L 74.812 107.344L 74.936 106.042L 74.812 100.958L 74.998 99.78L 74.812 98.602L 74.874 96.122L 74.75 94.944L 74.936 93.704L 74.874 88.124L 75.37 86.202L 76.672 85.52L 77.788 85.52L 78.966 85.706L 80.268 85.644L 81.508 85.396L 82.686 85.52L 88.204 85.52L 89.94 84.838L 90.684 83.722L 90.56 77.584L 90.002 76.344L 88.762 75.662L 87.584 75.662L 86.282 75.538L 84.422 75.662L 82.624 75.538L 81.446 75.724L 80.206 75.724L 79.028 75.538L 76.486 75.476L 75.184 75.662L 74.006 75.724L 72.766 75.538L 65.946 75.662L 64.148 76.282L 63.528 77.46L 63.652 78.762L 63.466 79.94L 63.652 86.326L 63.528 87.442L 63.528 93.642L 63.714 95.006L 63.528 101.082L 63.714 102.322L 63.528 105.422L 63.652 106.538L 63.652 117.14ZM 114.864 119.806L 120.382 119.248L 122.738 118.504L 128.256 116.024L 132.596 111.87L 133.402 110.754L 135.82 106.476L 136.254 105.298L 136.44 104.058L 136.812 103.066L 137.06 101.702L 137.37 97.362L 137.06 93.084L 136.564 90.79L 136.068 89.488L 135.758 88.062L 134.642 86.016L 134.208 84.9L 133.402 83.846L 132.658 83.102L 131.852 81.986L 129.186 79.568L 126.024 77.584L 117.902 75.042L 114.988 74.98L 110.648 75.228L 109.408 75.476L 108.168 75.848L 107.052 76.344L 104.696 76.964L 101.534 78.948L 100.666 79.692L 98.682 81.056L 97.008 82.916L 94.9 86.016L 94.342 87.07L 93.164 90.48L 92.668 93.146L 92.42 100.338L 93.102 104.244L 94.032 106.352L 94.404 107.654L 95.024 108.77L 97.938 112.738L 99.674 114.412L 100.48 115.342L 104.696 117.574L 105.874 118.07L 111.144 119.62L 114.864 119.806ZM 113.128 108.894L 111.888 108.46L 110.772 108.336L 108.664 107.22L 106.742 105.546L 106.122 104.678L 105.316 103.81L 104.138 100.338L 103.828 97.238L 103.89 95.378L 104.324 93.084L 104.696 91.968L 105.44 91.1L 105.998 90.046L 106.804 89.054L 107.734 88.248L 109.532 87.008L 110.648 86.45L 111.95 86.14L 114.802 85.892L 117.778 86.078L 121.064 87.504L 122.986 88.93L 124.412 91.038L 124.908 92.154L 125.28 93.394L 125.714 94.51L 125.962 97.176L 125.59 100.276L 125.032 102.818L 124.35 103.748L 123.792 104.678L 123.048 105.794L 121.126 107.282L 120.01 107.778L 119.018 108.336L 117.902 108.46L 116.724 108.77L 113.128 108.894ZM 139.811 124.766L 140.555 125.944L 142.167 126.502L 146.259 126.502L 147.437 126.626L 148.615 126.564L 149.793 125.82L 150.599 124.58L 150.599 123.34L 150.413 122.1L 150.475 120.922L 151.157 119.682L 152.397 119.062L 153.699 118.876L 158.597 119.124L 159.961 118.938L 161.139 119.124L 171.183 119.062L 172.485 119.62L 173.043 120.984L 173.229 123.278L 173.167 124.704L 173.787 125.882L 174.903 126.626L 176.019 126.626L 177.135 126.378L 178.499 126.564L 179.553 126.564L 180.607 126.44L 181.847 126.564L 183.087 126.006L 183.583 124.704L 183.707 117.264L 183.521 115.59L 183.707 111.25L 183.149 109.948L 182.033 109.452L 180.917 109.514L 179.863 108.894L 179.305 107.406L 179.305 102.57L 179.181 101.33L 179.367 91.286L 179.243 90.046L 179.367 87.504L 179.243 86.45L 179.243 85.086L 179.429 83.66L 179.243 82.482L 179.367 81.242L 179.243 77.584L 178.685 76.282L 177.383 75.6L 175.461 75.786L 172.485 75.6L 171.245 75.724L 168.641 75.6L 167.401 75.662L 165.665 75.476L 164.301 75.662L 159.961 75.538L 158.721 75.724L 157.419 75.476L 156.241 75.724L 152.459 75.786L 151.281 75.662L 149.917 76.22L 149.173 77.46L 148.863 79.878L 148.863 81.18L 148.553 82.358L 148.553 83.66L 146.941 96.122L 147.003 97.052L 145.825 105.794L 144.957 107.902L 144.151 108.646L 143.221 109.204L 141.795 109.328L 140.307 110.072L 139.997 111.25L 139.935 112.552L 139.997 113.668L 139.873 116.21L 139.997 118.69L 139.873 120.922L 139.997 122.286L 139.811 124.766ZM 157.543 109.7L 156.613 109.328L 156.489 108.088L 157.047 106.042L 159.093 87.256L 159.713 86.078L 161.759 85.334L 163.681 85.272L 164.859 85.52L 166.099 85.334L 167.463 86.14L 168.021 87.256L 167.959 100.71L 168.083 101.826L 168.083 108.026L 167.463 109.08L 166.285 109.576L 161.263 109.824L 158.783 109.576L 157.543 109.7ZM 222.791 119.124L 225.147 118.938L 226.325 119.062L 228.247 119L 229.983 118.69L 230.169 117.202L 229.735 115.776L 228.805 113.482L 227.131 110.258L 226.263 107.964L 225.023 105.732L 222.667 100.09L 222.047 99.16L 221.427 97.982L 221.055 96.618L 220.497 95.688L 220.125 94.696L 218.823 92.402L 218.389 91.1L 214.297 82.482L 213.925 81.242L 213.243 80.126L 212.871 79.01L 211.693 76.84L 210.639 75.724L 208.593 75.104L 206.609 75.786L 205.493 76.84L 204.935 77.894L 204.501 79.134L 203.943 80.002L 201.463 85.706L 200.781 86.636L 200.471 87.876L 199.789 89.054L 199.417 90.17L 193.093 103.438L 192.721 104.802L 192.101 105.732L 191.667 106.972L 190.551 108.956L 189.621 111.436L 188.939 112.304L 188.629 113.42L 187.389 115.9L 187.017 117.14L 187.327 118.69L 188.567 119.062L 190.985 118.938L 192.225 119.062L 195.697 118.938L 197.123 118.504L 198.301 117.388L 199.417 115.342L 200.595 114.164L 201.897 113.482L 203.075 113.668L 205.679 113.42L 206.795 113.606L 212.871 113.544L 213.987 113.668L 215.351 113.482L 216.715 114.164L 217.893 115.156L 218.451 116.334L 218.823 117.45L 220.063 118.38L 221.489 119L 222.791 119.124ZM 208.717 103.686L 207.477 103.438L 206.051 103.562L 205.059 103.128L 204.997 101.95L 207.911 95.254L 208.593 94.696L 209.461 95.192L 212.375 102.012L 212.127 103.128L 211.197 103.624L 208.717 103.686ZM 256.337 119.186L 259.375 119.062L 260.491 119.124L 261.917 119L 263.219 118.504L 263.777 117.202L 263.715 115.962L 263.777 114.598L 263.653 112.304L 263.777 111.126L 263.715 109.7L 264.273 108.584L 265.699 107.902L 267.063 107.778L 268.365 108.026L 274.751 107.53L 280.641 105.174L 281.571 104.43L 282.439 103.438L 283.245 102.632L 284.051 101.702L 285.353 99.718L 286.407 97.3L 286.593 95.936L 286.965 94.944L 287.089 89.86L 286.841 88.806L 286.655 87.442L 285.911 85.148L 284.733 83.04L 283.245 80.994L 280.455 78.576L 278.409 77.212L 275.929 76.468L 274.875 76.034L 273.635 76.034L 272.395 75.6L 270.535 75.538L 268.551 75.6L 267.187 75.786L 263.405 75.724L 262.165 75.538L 258.321 75.786L 256.957 75.724L 255.841 75.538L 254.539 75.786L 253.237 76.468L 252.679 77.46L 252.741 84.962L 252.493 87.442L 252.617 88.62L 252.555 104.678L 252.679 105.856L 252.617 117.326L 253.299 118.504L 255.221 119.124L 256.337 119.186ZM 265.637 97.982L 264.397 97.238L 263.839 96.184L 263.653 91.162L 263.777 89.86L 263.777 87.318L 264.397 86.14L 265.699 85.52L 272.147 85.706L 273.387 86.264L 274.379 86.946L 275.185 87.752L 275.805 88.992L 275.991 90.108L 276.115 91.844L 275.991 93.518L 275.557 94.634L 274.999 95.626L 274.193 96.618L 273.201 97.362L 272.209 97.672L 270.287 97.92L 267.125 97.858L 265.637 97.982ZM 313.7 119.806L 319.218 119.248L 321.574 118.504L 327.092 116.024L 331.432 111.87L 332.238 110.754L 334.656 106.476L 335.09 105.298L 335.276 104.058L 335.648 103.066L 335.896 101.702L 336.206 97.362L 335.896 93.084L 335.4 90.79L 334.904 89.488L 334.594 88.062L 333.478 86.016L 333.044 84.9L 332.238 83.846L 331.494 83.102L 330.688 81.986L 328.022 79.568L 324.86 77.584L 316.738 75.042L 313.824 74.98L 309.484 75.228L 308.244 75.476L 307.004 75.848L 305.888 76.344L 303.532 76.964L 300.37 78.948L 299.502 79.692L 297.518 81.056L 295.844 82.916L 293.736 86.016L 293.178 87.07L 292 90.48L 291.504 93.146L 291.256 100.338L 291.938 104.244L 292.868 106.352L 293.24 107.654L 293.86 108.77L 296.774 112.738L 298.51 114.412L 299.316 115.342L 303.532 117.574L 304.71 118.07L 309.98 119.62L 313.7 119.806ZM 311.964 108.894L 310.724 108.46L 309.608 108.336L 307.5 107.22L 305.578 105.546L 304.958 104.678L 304.152 103.81L 302.974 100.338L 302.664 97.238L 302.726 95.378L 303.16 93.084L 303.532 91.968L 304.276 91.1L 304.834 90.046L 305.64 89.054L 306.57 88.248L 308.368 87.008L 309.484 86.45L 310.786 86.14L 313.638 85.892L 316.614 86.078L 319.9 87.504L 321.822 88.93L 323.248 91.038L 323.744 92.154L 324.116 93.394L 324.55 94.51L 324.798 97.176L 324.426 100.276L 323.868 102.818L 323.186 103.748L 322.628 104.678L 321.884 105.794L 319.962 107.282L 318.846 107.778L 317.854 108.336L 316.738 108.46L 315.56 108.77L 311.964 108.894ZM 337.972 117.326L 338.22 118.69L 339.522 119.248L 345.97 118.938L 347.272 119.124L 348.574 119.186L 350.186 118.752L 351.426 117.574L 352.046 116.458L 352.728 115.032L 354.65 111.932L 355.766 109.638L 357.006 107.468L 357.564 106.29L 358.928 103.934L 360.044 103.004L 361.718 102.57L 363.02 103.19L 363.516 104.492L 363.578 117.202L 364.136 118.318L 365.376 119.124L 366.616 119.124L 367.918 118.938L 371.638 119.186L 373.002 119L 374.242 118.318L 374.8 117.016L 374.862 114.536L 374.738 113.358L 374.738 112.304L 374.924 111.002L 374.8 107.096L 374.862 105.794L 374.8 104.43L 375.358 103.376L 376.598 102.694L 378.148 102.88L 379.45 104.058L 380.008 105.298L 380.628 106.228L 381.186 107.406L 382.55 109.638L 383.108 110.94L 386.952 117.45L 388.192 118.69L 390.548 119.186L 392.47 119L 396.252 119.062L 397.43 119.248L 400.158 118.752L 400.468 117.264L 399.786 115.9L 399.042 114.97L 397.864 112.8L 397.12 111.746L 396.562 110.692L 395.756 109.762L 389.246 99.47L 388.998 97.982L 389.494 96.494L 390.796 94.262L 391.664 91.844L 392.036 90.542L 392.532 89.426L 393.276 86.264L 394.02 84.714L 394.95 83.846L 395.942 83.412L 397.182 83.412L 398.236 82.73L 398.918 81.428L 398.98 78.824L 398.794 77.522L 398.36 76.406L 396.996 75.538L 394.516 75.104L 392.098 75.042L 390.92 75.414L 389.804 75.538L 387.448 76.53L 386.394 77.336L 385.526 78.142L 384.72 79.196L 384.1 80.25L 383.666 81.428L 382.612 86.264L 381.744 88.558L 381.186 89.55L 380.38 90.666L 378.768 91.782L 377.032 92.464L 375.482 91.968L 374.738 90.666L 374.862 85.892L 374.738 84.9L 374.862 83.474L 374.862 77.46L 374.18 76.22L 372.878 75.662L 371.762 75.6L 370.46 75.724L 365.314 75.662L 364.136 76.344L 363.516 77.522L 363.578 78.762L 363.454 81.18L 363.578 82.42L 363.578 86.016L 363.454 87.256L 363.454 88.31L 363.64 89.674L 363.64 90.79L 362.896 91.968L 361.284 92.464L 359.424 91.596L 357.998 90.666L 357.13 89.488L 356.634 88.558L 355.766 86.388L 354.588 81.552L 353.596 79.32L 351.922 77.336L 349.132 75.786L 347.458 75.29L 346.218 75.166L 344.978 75.29L 343.676 75.104L 342.498 75.104L 341.32 75.476L 340.142 76.344L 339.522 78.328L 339.398 79.568L 339.398 81.614L 340.018 82.73L 343.304 83.97L 344.234 84.838L 344.978 86.388L 347.52 94.324L 348.202 95.502L 348.884 96.37L 349.194 97.858L 349.008 99.47L 347.706 101.454L 347.148 102.632L 346.342 103.624L 345.722 104.554L 345.164 105.608L 344.358 106.538L 340.452 112.8L 339.956 113.978L 339.212 114.908L 337.972 117.326ZM 403.432 124.766L 404.176 125.944L 405.788 126.502L 409.88 126.502L 411.058 126.626L 412.236 126.564L 413.414 125.82L 414.22 124.58L 414.22 123.34L 414.034 122.1L 414.096 120.922L 414.778 119.682L 416.018 119.062L 417.32 118.876L 422.218 119.124L 423.582 118.938L 424.76 119.124L 434.804 119.062L 436.106 119.62L 436.664 120.984L 436.85 123.278L 436.788 124.704L 437.408 125.882L 438.524 126.626L 439.64 126.626L 440.756 126.378L 442.12 126.564L 443.174 126.564L 444.228 126.44L 445.468 126.564L 446.708 126.006L 447.204 124.704L 447.328 117.264L 447.142 115.59L 447.328 111.25L 446.77 109.948L 445.654 109.452L 444.538 109.514L 443.484 108.894L 442.926 107.406L 442.926 102.57L 442.802 101.33L 442.988 91.286L 442.864 90.046L 442.988 87.504L 442.864 86.45L 442.864 85.086L 443.05 83.66L 442.864 82.482L 442.988 81.242L 442.864 77.584L 442.306 76.282L 441.004 75.6L 439.082 75.786L 436.106 75.6L 434.866 75.724L 432.262 75.6L 431.022 75.662L 429.286 75.476L 427.922 75.662L 423.582 75.538L 422.342 75.724L 421.04 75.476L 419.862 75.724L 416.08 75.786L 414.902 75.662L 413.538 76.22L 412.794 77.46L 412.484 79.878L 412.484 81.18L 412.174 82.358L 412.174 83.66L 410.562 96.122L 410.624 97.052L 409.446 105.794L 408.578 107.902L 407.772 108.646L 406.842 109.204L 405.416 109.328L 403.928 110.072L 403.618 111.25L 403.556 112.552L 403.618 113.668L 403.494 116.21L 403.618 118.69L 403.494 120.922L 403.618 122.286L 403.432 124.766ZM 421.164 109.7L 420.234 109.328L 420.11 108.088L 420.668 106.042L 422.714 87.256L 423.334 86.078L 425.38 85.334L 427.302 85.272L 428.48 85.52L 429.72 85.334L 431.084 86.14L 431.642 87.256L 431.58 100.71L 431.704 101.826L 431.704 108.026L 431.084 109.08L 429.906 109.576L 424.884 109.824L 422.404 109.576L 421.164 109.7ZM 471.408 119.186L 480.274 119.062L 481.576 118.504L 482.258 117.202L 482.258 110.94L 481.576 109.7L 480.274 109.142L 478.848 109.266L 477.67 109.08L 474.508 109.018L 472.462 109.266L 471.222 109.142L 469.858 109.204L 468.68 109.018L 467.316 109.142L 466.014 108.522L 465.518 107.406L 465.518 103.5L 466.076 102.198L 467.192 101.516L 469.052 101.454L 471.036 101.64L 473.392 101.516L 475.934 101.578L 477.174 101.454L 478.6 101.516L 479.84 101.02L 480.274 99.78L 480.46 94.2L 479.84 92.464L 478.414 91.658L 474.756 91.658L 473.454 91.782L 470.85 91.596L 467.254 91.72L 465.952 91.162L 465.456 89.24L 465.456 87.318L 466.014 86.14L 467.378 85.644L 468.556 85.706L 469.734 85.458L 478.6 85.582L 479.778 85.52L 481.08 84.776L 481.7 83.66L 481.638 82.42L 481.7 81.18L 481.576 77.46L 481.018 76.282L 479.778 75.786L 478.476 75.786L 477.36 75.538L 472.338 75.6L 470.974 75.724L 469.734 75.6L 468.68 75.662L 467.44 75.538L 462.356 75.662L 461.116 75.476L 459.938 75.724L 458.822 75.6L 457.582 75.724L 456.342 75.662L 455.04 76.158L 454.358 77.46L 454.482 79.816L 454.296 82.358L 454.482 83.722L 454.358 89.798L 454.544 91.1L 454.42 92.278L 454.358 97.362L 454.544 98.478L 454.482 108.522L 454.358 109.7L 454.544 110.94L 454.358 115.218L 454.482 116.582L 454.978 118.256L 456.838 119.062L 461.302 119.124L 462.666 119L 463.782 119.062L 466.324 118.876L 467.502 119.124L 468.928 119.186L 470.168 119.062L 471.408 119.186ZM 489.899 117.264L 490.643 118.442L 491.821 119.124L 493.061 119.062L 495.541 119.186L 496.843 119.062L 499.447 119.124L 500.749 118.38L 501.245 117.202L 501.369 116.024L 501.245 114.66L 501.245 103.686L 501.803 102.384L 503.105 101.578L 510.421 101.516L 511.723 101.702L 512.839 101.702L 514.017 102.384L 514.637 103.562L 514.699 117.264L 515.381 118.256L 517.179 119.062L 520.403 119.062L 521.643 118.938L 524.185 119.124L 525.363 118.318L 526.107 117.264L 525.983 111.622L 526.169 109.638L 525.983 108.646L 526.045 77.522L 525.487 76.22L 524.247 75.724L 517.117 75.662L 515.319 76.096L 514.699 77.584L 514.637 79.94L 514.761 80.994L 514.637 83.536L 514.823 84.714L 514.761 89.55L 514.079 90.79L 512.839 91.472L 511.661 91.286L 509.243 91.534L 507.941 91.41L 506.825 91.534L 503.167 91.472L 501.989 90.914L 501.369 89.736L 501.307 88.372L 501.307 87.07L 501.245 85.954L 501.307 81.118L 501.431 79.754L 501.307 77.46L 500.749 76.282L 499.447 75.6L 498.083 75.724L 491.945 75.6L 490.581 76.22L 489.961 77.46L 489.837 78.824L 489.961 83.66L 489.837 84.9L 490.085 87.442L 489.961 89.798L 490.023 91.286L 489.899 92.526L 489.899 111.064L 490.085 112.18L 489.899 117.264ZM 569.657 119.186L 571.021 119L 572.323 118.38L 572.881 117.202L 572.757 113.42L 572.943 111.002L 572.819 109.824L 572.881 94.634L 572.757 93.58L 572.757 92.34L 572.881 91.1L 572.881 89.674L 572.757 88.558L 572.757 79.878L 572.881 78.576L 572.881 77.398L 572.075 75.972L 570.835 75.476L 569.099 75.848L 567.549 76.592L 555.273 88.868L 554.281 89.612L 548.205 95.688L 547.213 95.998L 546.841 95.13L 546.903 93.828L 546.779 92.65L 546.965 81.428L 546.841 79.94L 546.841 77.584L 546.283 76.344L 544.857 75.538L 543.741 75.724L 542.377 75.476L 541.137 75.724L 537.293 75.6L 536.053 76.22L 535.371 77.708L 535.433 109.886L 535.309 111.25L 535.495 113.11L 535.309 116.086L 535.433 117.202L 535.991 118.69L 537.293 119.124L 539.153 118.876L 540.641 118.07L 541.695 117.14L 542.563 116.024L 546.779 111.994L 547.833 111.25L 548.639 110.196L 552.173 106.91L 555.521 103.252L 556.513 102.384L 557.381 101.454L 560.171 99.098L 560.853 98.664L 561.411 99.532L 561.411 100.834L 561.287 102.074L 561.473 104.058L 561.349 106.042L 561.473 107.158L 561.287 108.398L 561.287 117.264L 561.907 118.504L 563.209 118.938L 564.449 119.062L 569.657 119.186ZM 579.571 117.388L 579.881 118.69L 581.307 119L 589.367 119L 591.475 118.566L 592.529 117.45L 593.211 116.582L 593.955 115.342L 594.451 114.226L 595.195 113.358L 597.613 108.956L 598.295 108.026L 599.411 106.848L 600.837 106.228L 603.255 106.352L 604.371 106.91L 604.867 108.088L 604.991 113.482L 604.867 114.598L 604.929 116.644L 605.487 118.442L 606.851 118.938L 611.811 119L 612.927 119.124L 614.229 119.062L 615.345 118.442L 615.965 117.078L 616.027 116.024L 615.903 113.42L 616.089 112.304L 615.903 105.298L 616.027 104.182L 616.027 102.88L 615.903 101.764L 616.089 99.842L 615.903 95.626L 616.151 92.402L 615.965 89.24L 616.151 86.264L 615.965 85.024L 616.089 83.784L 615.903 80.002L 616.089 77.46L 615.407 76.22L 613.609 75.724L 609.269 75.786L 608.091 75.6L 606.975 75.724L 605.673 75.724L 604.433 75.538L 601.953 75.786L 600.651 75.724L 599.597 75.848L 597.551 75.662L 591.971 76.468L 590.731 76.964L 589.615 77.336L 588.499 77.832L 586.577 79.382L 584.841 81.18L 583.539 83.226L 582.919 84.466L 581.865 87.752L 581.679 88.992L 581.493 92.898L 582.051 95.192L 582.919 97.61L 583.477 98.478L 583.911 99.78L 585.461 101.64L 586.453 102.384L 586.949 103.996L 586.763 105.422L 580.315 115.838L 579.571 117.388ZM 599.597 96.184L 595.939 96.06L 594.761 95.502L 593.955 94.82L 593.273 93.704L 592.901 92.774L 592.591 90.852L 592.715 89.178L 593.211 88.186L 593.893 87.132L 594.823 86.45L 595.877 86.016L 597.675 85.644L 598.915 85.768L 600.093 85.644L 603.131 85.644L 604.309 86.264L 604.991 87.38L 605.053 92.278L 604.867 93.456L 604.867 94.634L 604.247 95.812L 603.069 96.246L 599.597 96.184ZM 639.046 109.452L 640.534 109.018L 641.65 107.53L 642.146 106.538L 642.766 105.856L 643.944 104.058L 644.378 103.19L 644.998 102.508L 646.052 100.648L 646.734 99.966L 647.168 98.974L 647.726 98.168L 647.726 96.618L 646.176 94.014L 645.618 93.27L 644.998 92.34L 644.44 91.658L 642.828 89.116L 642.146 88.31L 640.596 85.768L 639.046 85.21L 638.302 85.706L 636.566 86.388L 635.698 86.946L 635.202 88.186L 636.628 91.968L 637.124 92.712L 638.24 95.564L 638.674 96.432L 638.612 98.168L 635.512 105.794L 635.016 106.724L 635.574 108.026L 636.504 108.336L 637.31 108.77L 638.178 109.018L 639.046 109.452ZM 627.824 109.514L 629.188 109.204L 629.87 108.336L 630.304 107.468L 631.978 104.802L 632.66 104.12L 633.776 102.508L 634.21 101.454L 634.83 100.834L 636.566 98.292L 636.504 96.618L 636.008 95.688L 634.768 94.014L 633.776 92.34L 633.094 91.596L 632.66 90.728L 629.25 85.768L 627.762 85.396L 626.956 85.768L 626.088 85.954L 625.22 86.512L 624.352 86.884L 623.918 88.248L 625.344 91.782L 625.902 92.65L 626.212 93.766L 626.584 94.572L 627.018 95.626L 627.39 96.432L 627.328 98.23L 627.08 99.284L 623.732 106.724L 624.228 108.026L 625.964 108.646L 626.832 109.142L 627.824 109.514Z"/>
<path id="path1_fill" d="M 230.226 45.518L 216.114 45.518L 216.114 59L 212.628 59L 212.628 29.6L 216.114 29.6L 216.114 42.41L 230.226 42.41L 230.226 29.6L 233.712 29.6L 233.712 59L 230.226 59L 230.226 45.518ZM 240.174 39.554C 241.238 38.91 242.47 38.434 243.87 38.126C 245.298 37.818 246.782 37.664 248.322 37.664C 249.778 37.664 250.94 37.86 251.808 38.252C 252.704 38.644 253.376 39.162 253.824 39.806C 254.3 40.422 254.608 41.108 254.748 41.864C 254.916 42.62 255 43.376 255 44.132C 255 45.812 254.958 47.45 254.874 49.046C 254.79 50.642 254.748 52.154 254.748 53.582C 254.748 54.618 254.79 55.598 254.874 56.522C 254.958 57.446 255.112 58.3 255.336 59.084L 252.858 59.084L 251.976 56.144L 251.766 56.144C 251.514 56.536 251.192 56.928 250.8 57.32C 250.436 57.684 249.988 58.02 249.456 58.328C 248.924 58.608 248.308 58.846 247.608 59.042C 246.908 59.238 246.11 59.336 245.214 59.336C 244.318 59.336 243.478 59.196 242.694 58.916C 241.938 58.636 241.28 58.244 240.72 57.74C 240.16 57.208 239.712 56.578 239.376 55.85C 239.068 55.122 238.914 54.296 238.914 53.372C 238.914 52.14 239.166 51.118 239.67 50.306C 240.174 49.466 240.874 48.808 241.77 48.332C 242.694 47.828 243.786 47.478 245.046 47.282C 246.334 47.058 247.748 46.946 249.288 46.946C 249.68 46.946 250.058 46.946 250.422 46.946C 250.814 46.946 251.206 46.974 251.598 47.03C 251.682 46.19 251.724 45.434 251.724 44.762C 251.724 43.222 251.416 42.144 250.8 41.528C 250.184 40.912 249.064 40.604 247.44 40.604C 246.964 40.604 246.446 40.646 245.886 40.73C 245.354 40.786 244.794 40.884 244.206 41.024C 243.646 41.136 243.1 41.29 242.568 41.486C 242.064 41.654 241.616 41.85 241.224 42.074L 240.174 39.554ZM 246.138 56.396C 246.922 56.396 247.622 56.298 248.238 56.102C 248.854 55.878 249.386 55.612 249.834 55.304C 250.282 54.968 250.646 54.604 250.926 54.212C 251.234 53.82 251.458 53.442 251.598 53.078L 251.598 49.592C 251.206 49.564 250.8 49.55 250.38 49.55C 249.988 49.522 249.596 49.508 249.204 49.508C 248.336 49.508 247.482 49.564 246.642 49.676C 245.83 49.76 245.102 49.942 244.458 50.222C 243.842 50.474 243.338 50.838 242.946 51.314C 242.582 51.762 242.4 52.336 242.4 53.036C 242.4 54.016 242.75 54.828 243.45 55.472C 244.15 56.088 245.046 56.396 246.138 56.396ZM 277.836 49.55L 275.904 49.55L 275.904 59L 272.544 59L 272.544 38L 275.904 38L 275.904 47.492L 277.71 46.904L 284.43 38L 288.084 38L 281.574 46.442L 279.81 47.828L 281.994 49.508L 289.008 59L 284.85 59L 277.836 49.55ZM 290.973 48.5C 290.973 44.944 291.757 42.228 293.325 40.352C 294.921 38.448 297.203 37.496 300.171 37.496C 301.739 37.496 303.097 37.762 304.245 38.294C 305.421 38.798 306.387 39.54 307.143 40.52C 307.899 41.472 308.459 42.634 308.823 44.006C 309.187 45.35 309.369 46.848 309.369 48.5C 309.369 52.056 308.571 54.786 306.975 56.69C 305.407 58.566 303.139 59.504 300.171 59.504C 298.603 59.504 297.231 59.252 296.055 58.748C 294.907 58.216 293.955 57.474 293.199 56.522C 292.443 55.542 291.883 54.38 291.519 53.036C 291.155 51.664 290.973 50.152 290.973 48.5ZM 294.459 48.5C 294.459 49.564 294.557 50.586 294.753 51.566C 294.977 52.546 295.313 53.4 295.761 54.128C 296.209 54.856 296.797 55.444 297.525 55.892C 298.253 56.34 299.135 56.564 300.171 56.564C 303.979 56.592 305.883 53.904 305.883 48.5C 305.883 47.408 305.771 46.372 305.547 45.392C 305.351 44.412 305.029 43.558 304.581 42.83C 304.133 42.102 303.545 41.528 302.817 41.108C 302.089 40.66 301.207 40.436 300.171 40.436C 296.363 40.408 294.459 43.096 294.459 48.5ZM 325.719 40.94L 319.629 40.94C 319.545 42.116 319.461 43.39 319.377 44.762C 319.293 46.106 319.167 47.464 318.999 48.836C 318.831 50.18 318.607 51.482 318.327 52.742C 318.047 53.974 317.683 55.066 317.235 56.018C 316.815 56.97 316.283 57.74 315.639 58.328C 315.023 58.888 314.281 59.168 313.413 59.168C 312.881 59.168 312.419 59.14 312.027 59.084C 311.635 59.028 311.285 58.93 310.977 58.79L 311.481 55.976C 311.817 56.088 312.181 56.144 312.573 56.144C 313.133 56.144 313.637 55.906 314.085 55.43C 314.533 54.954 314.925 54.058 315.261 52.742C 315.597 51.398 315.877 49.55 316.101 47.198C 316.325 44.846 316.479 41.78 316.563 38L 329.079 38L 329.079 59L 325.719 59L 325.719 40.94ZM 346.842 40.94L 340.752 40.94C 340.668 42.116 340.584 43.39 340.5 44.762C 340.416 46.106 340.29 47.464 340.122 48.836C 339.954 50.18 339.73 51.482 339.45 52.742C 339.17 53.974 338.806 55.066 338.358 56.018C 337.938 56.97 337.406 57.74 336.762 58.328C 336.146 58.888 335.404 59.168 334.536 59.168C 334.004 59.168 333.542 59.14 333.15 59.084C 332.758 59.028 332.408 58.93 332.1 58.79L 332.604 55.976C 332.94 56.088 333.304 56.144 333.696 56.144C 334.256 56.144 334.76 55.906 335.208 55.43C 335.656 54.954 336.048 54.058 336.384 52.742C 336.72 51.398 337 49.55 337.224 47.198C 337.448 44.846 337.602 41.78 337.686 38L 350.202 38L 350.202 59L 346.842 59L 346.842 40.94ZM 371.997 57.32C 371.157 57.992 370.093 58.524 368.805 58.916C 367.545 59.308 366.201 59.504 364.773 59.504C 363.177 59.504 361.791 59.252 360.615 58.748C 359.439 58.216 358.473 57.474 357.717 56.522C 356.961 55.542 356.401 54.38 356.037 53.036C 355.673 51.692 355.491 50.18 355.491 48.5C 355.491 44.916 356.289 42.186 357.885 40.31C 359.481 38.434 361.763 37.496 364.731 37.496C 365.683 37.496 366.635 37.608 367.587 37.832C 368.539 38.028 369.393 38.42 370.149 39.008C 370.905 39.596 371.521 40.436 371.997 41.528C 372.473 42.592 372.711 44.006 372.711 45.77C 372.711 46.694 372.627 47.716 372.459 48.836L 358.977 48.836C 358.977 50.068 359.103 51.16 359.355 52.112C 359.607 53.064 359.999 53.876 360.531 54.548C 361.063 55.192 361.749 55.696 362.589 56.06C 363.457 56.396 364.507 56.564 365.739 56.564C 366.691 56.564 367.643 56.396 368.595 56.06C 369.547 55.724 370.261 55.332 370.737 54.884L 371.997 57.32ZM 364.773 40.436C 363.121 40.436 361.791 40.87 360.783 41.738C 359.803 42.606 359.215 44.09 359.019 46.19L 369.435 46.19C 369.435 44.062 369.029 42.578 368.217 41.738C 367.405 40.87 366.257 40.436 364.773 40.436ZM 383.287 49.55L 381.355 49.55L 381.355 59L 377.995 59L 377.995 38L 381.355 38L 381.355 47.492L 383.161 46.904L 389.881 38L 393.535 38L 387.025 46.442L 385.261 47.828L 387.445 49.508L 394.459 59L 390.301 59L 383.287 49.55ZM 416.909 64.334L 414.641 64.334L 414.011 59L 398.051 59L 398.051 38L 401.411 38L 401.411 56.06L 410.525 56.06L 410.525 38L 413.885 38L 413.885 56.06L 416.909 56.06L 416.909 64.334ZM 434.165 46.568L 434.291 43.964L 434.165 43.964L 432.443 46.652L 422.993 59L 421.061 59L 421.061 38L 424.421 38L 424.421 50.81L 424.295 53.288L 424.463 53.288L 426.101 50.684L 435.551 38L 437.525 38L 437.525 59L 434.165 59L 434.165 46.568ZM 460.285 59.504C 458.773 59.504 457.471 59.28 456.379 58.832C 455.315 58.356 454.433 57.698 453.733 56.858C 453.061 55.99 452.543 54.954 452.179 53.75C 451.843 52.518 451.633 51.174 451.549 49.718L 447.349 49.718L 447.349 59L 443.989 59L 443.989 38L 447.349 38L 447.349 46.778L 451.591 46.778C 451.815 43.782 452.627 41.486 454.027 39.89C 455.455 38.294 457.569 37.496 460.369 37.496C 461.909 37.496 463.211 37.762 464.275 38.294C 465.367 38.798 466.249 39.54 466.921 40.52C 467.621 41.472 468.125 42.634 468.433 44.006C 468.741 45.35 468.895 46.848 468.895 48.5C 468.895 52.056 468.181 54.786 466.753 56.69C 465.353 58.566 463.197 59.504 460.285 59.504ZM 454.867 48.5C 454.867 49.592 454.951 50.628 455.119 51.608C 455.287 52.588 455.581 53.456 456.001 54.212C 456.421 54.94 456.981 55.514 457.681 55.934C 458.409 56.354 459.305 56.564 460.369 56.564C 462.161 56.564 463.449 55.92 464.233 54.632C 465.017 53.316 465.409 51.272 465.409 48.5C 465.409 47.408 465.325 46.372 465.157 45.392C 465.017 44.412 464.751 43.558 464.359 42.83C 463.967 42.074 463.449 41.486 462.805 41.066C 462.161 40.646 461.335 40.436 460.327 40.436C 458.395 40.436 456.995 41.094 456.127 42.41C 455.287 43.698 454.867 45.728 454.867 48.5Z"/>
</defs>
</svg>
