<svg width="318" height="51" viewBox="0 0 318 51" version="1.1" xmlns="http://www.w3.org/2000/svg" xmlns:xlink="http://www.w3.org/1999/xlink">
<title>&#208;&#157;&#208;&#176; &#208;&#186;&#208;&#190;&#208;&#187;&#208;&#187;&#208;&#181;&#208;&#186;&#209;&#134;&#208;&#184;&#209;&#142; &#194;&#171;&#208;&#147;&#208;&#190;&#208;&#180;&#208;&#176; &#208;&#160;&#208;&#190;&#208;&#182;&#208;&#180;&#208;&#181;&#208;&#189;&#208;&#184;&#209;&#143;&#194;&#187;</title>
<desc>Created using Figma</desc>
<g id="Canvas" transform="translate(-8666 -713)">
<g id="&#208;&#157;&#208;&#176; &#208;&#186;&#208;&#190;&#208;&#187;&#208;&#187;&#208;&#181;&#208;&#186;&#209;&#134;&#208;&#184;&#209;&#142; &#194;&#171;&#208;&#147;&#208;&#190;&#208;&#180;&#208;&#176; &#208;&#160;&#208;&#190;&#208;&#182;&#208;&#180;&#208;&#181;&#208;&#189;&#208;&#184;&#209;&#143;&#194;&#187;">
<use xlink:href="#path0_fill" transform="translate(8665 670)" fill="#FFC700"/>
<use xlink:href="#path1_fill" transform="translate(8665 670)" fill="#F2F2F2"/>
</g>
</g>
<defs>
<path id="path0_fill" d="M 5.399 84.816L 6.167 85.008L 6.615 84.88L 7.063 84.592L 7.991 84.24L 8.215 83.568L 7.767 82.576L 7.607 82.16L 7.159 81.232L 6.999 80.656L 6.711 80.208L 6.583 79.728L 6.327 79.28L 6.327 78.256L 7.735 74.928L 7.959 74.576L 8.151 74.096L 7.959 73.36L 7.479 73.104L 6.999 73.008L 6.135 72.496L 5.335 72.72L 1.655 78.32L 1.623 79.28L 1.943 79.632L 2.231 80.144L 2.551 80.464L 4.215 83.088L 4.567 83.536L 5.399 84.816ZM 11.255 84.816L 11.991 85.072L 12.855 84.592L 13.751 84.24L 14.007 83.568L 13.847 83.024L 12.407 79.696L 12.151 79.28L 12.183 78.32L 12.375 77.808L 12.599 77.424L 12.727 76.944L 13.143 75.984L 13.431 75.504L 13.623 74.992L 13.751 74.48L 14.039 74.064L 13.783 73.392L 11.895 72.592L 11.191 72.72L 10.327 74.032L 10.071 74.544L 9.783 74.864L 8.087 77.52L 7.767 77.872L 7.447 78.352L 7.511 79.248L 7.735 79.664L 8.055 80.144L 8.375 80.496L 8.599 81.008L 8.887 81.424L 9.175 81.776L 9.463 82.256L 10.103 83.088L 10.359 83.6L 10.967 84.368L 11.255 84.816ZM 17.3688 89.04L 17.6247 89.616L 18.6807 90L 20.8247 90.032L 21.4967 90.128L 22.2007 90L 22.8088 89.68L 23.1287 89.008L 23.1608 88.336L 23.1287 87.792L 23.1608 87.184L 23.1287 83.984L 23.1927 83.312L 23.1287 80.688L 23.2247 80.08L 23.1287 79.472L 23.1608 78.192L 23.0968 77.584L 23.1927 76.944L 23.1608 74.064L 23.4167 73.072L 24.0887 72.72L 24.6648 72.72L 25.2727 72.816L 25.9447 72.784L 26.5848 72.656L 27.1927 72.72L 30.0407 72.72L 30.9368 72.368L 31.3207 71.792L 31.2568 68.624L 30.9688 67.984L 30.3287 67.632L 29.7207 67.632L 29.0487 67.568L 28.0887 67.632L 27.1608 67.568L 26.5527 67.664L 25.9128 67.664L 25.3048 67.568L 23.9928 67.536L 23.3208 67.632L 22.7127 67.664L 22.0728 67.568L 18.5528 67.632L 17.6247 67.952L 17.3047 68.56L 17.3688 69.232L 17.2727 69.84L 17.3688 73.136L 17.3047 73.712L 17.3047 76.912L 17.4007 77.616L 17.3047 80.752L 17.4007 81.392L 17.3047 82.992L 17.3688 83.568L 17.3688 89.04ZM 43.8007 90.416L 46.6488 90.128L 47.8647 89.744L 50.7127 88.464L 52.9527 86.32L 53.3687 85.744L 54.6168 83.536L 54.8407 82.928L 54.9368 82.288L 55.1287 81.776L 55.2568 81.072L 55.4167 78.832L 55.2568 76.624L 55.0007 75.44L 54.7447 74.768L 54.5847 74.032L 54.0088 72.976L 53.7847 72.4L 53.3687 71.856L 52.9848 71.472L 52.5688 70.896L 51.1928 69.648L 49.5607 68.624L 45.3687 67.312L 43.8647 67.28L 41.6248 67.408L 40.9847 67.536L 40.3448 67.728L 39.7688 67.984L 38.5528 68.304L 36.9208 69.328L 36.4728 69.712L 35.4488 70.416L 34.5847 71.376L 33.4968 72.976L 33.2088 73.52L 32.6007 75.28L 32.3448 76.656L 32.2168 80.368L 32.5688 82.384L 33.0487 83.472L 33.2408 84.144L 33.5608 84.72L 35.0648 86.768L 35.9608 87.632L 36.3767 88.112L 38.5528 89.264L 39.1608 89.52L 41.8807 90.32L 43.8007 90.416ZM 42.9047 84.784L 42.2647 84.56L 41.6888 84.496L 40.6007 83.92L 39.6088 83.056L 39.2887 82.608L 38.8727 82.16L 38.2648 80.368L 38.1048 78.768L 38.1368 77.808L 38.3608 76.624L 38.5528 76.048L 38.9367 75.6L 39.2247 75.056L 39.6407 74.544L 40.1208 74.128L 41.0487 73.488L 41.6248 73.2L 42.2968 73.04L 43.7688 72.912L 45.3048 73.008L 47.0007 73.744L 47.9928 74.48L 48.7288 75.568L 48.9848 76.144L 49.1768 76.784L 49.4007 77.36L 49.5287 78.736L 49.3368 80.336L 49.0487 81.648L 48.6968 82.128L 48.4088 82.608L 48.0247 83.184L 47.0327 83.952L 46.4567 84.208L 45.9447 84.496L 45.3687 84.56L 44.7607 84.72L 42.9047 84.784ZM 56.6765 92.976L 57.0605 93.584L 57.8925 93.872L 60.0045 93.872L 60.6125 93.936L 61.2205 93.904L 61.8285 93.52L 62.2445 92.88L 62.2445 92.24L 62.1485 91.6L 62.1805 90.992L 62.5325 90.352L 63.1725 90.032L 63.8445 89.936L 66.3725 90.064L 67.0765 89.968L 67.6845 90.064L 72.8685 90.032L 73.5405 90.32L 73.8285 91.024L 73.9245 92.208L 73.8925 92.944L 74.2125 93.552L 74.7885 93.936L 75.3645 93.936L 75.9405 93.808L 76.6445 93.904L 77.1885 93.904L 77.7325 93.84L 78.3725 93.904L 79.0125 93.616L 79.2685 92.944L 79.3325 89.104L 79.2365 88.24L 79.3325 86L 79.0445 85.328L 78.4685 85.072L 77.8925 85.104L 77.3485 84.784L 77.0605 84.016L 77.0605 81.52L 76.9965 80.88L 77.0925 75.696L 77.0285 75.056L 77.0925 73.744L 77.0285 73.2L 77.0285 72.496L 77.1245 71.76L 77.0285 71.152L 77.0925 70.512L 77.0285 68.624L 76.7405 67.952L 76.0685 67.6L 75.0765 67.696L 73.5405 67.6L 72.9005 67.664L 71.5565 67.6L 70.9165 67.632L 70.0205 67.536L 69.3165 67.632L 67.0765 67.568L 66.4365 67.664L 65.7645 67.536L 65.1565 67.664L 63.2045 67.696L 62.5965 67.632L 61.8925 67.92L 61.5085 68.56L 61.3485 69.808L 61.3485 70.48L 61.1885 71.088L 61.1885 71.76L 60.3565 78.192L 60.3885 78.672L 59.7805 83.184L 59.3325 84.272L 58.9165 84.656L 58.4365 84.944L 57.7005 85.008L 56.9325 85.392L 56.7725 86L 56.7405 86.672L 56.7725 87.248L 56.7085 88.56L 56.7725 89.84L 56.7085 90.992L 56.7725 91.696L 56.6765 92.976ZM 65.8285 85.2L 65.3485 85.008L 65.2845 84.368L 65.5725 83.312L 66.6285 73.616L 66.9485 73.008L 68.0045 72.624L 68.9965 72.592L 69.6045 72.72L 70.2445 72.624L 70.9485 73.04L 71.2365 73.616L 71.2045 80.56L 71.2685 81.136L 71.2685 84.336L 70.9485 84.88L 70.3405 85.136L 67.7485 85.264L 66.4685 85.136L 65.8285 85.2ZM 99.505 90.064L 100.721 89.968L 101.329 90.032L 102.321 90L 103.217 89.84L 103.313 89.072L 103.089 88.336L 102.609 87.152L 101.745 85.488L 101.297 84.304L 100.657 83.152L 99.441 80.24L 99.121 79.76L 98.801 79.152L 98.609 78.448L 98.321 77.968L 98.129 77.456L 97.457 76.272L 97.233 75.6L 95.121 71.152L 94.929 70.512L 94.577 69.936L 94.385 69.36L 93.777 68.24L 93.233 67.664L 92.177 67.344L 91.153 67.696L 90.577 68.24L 90.289 68.784L 90.065 69.424L 89.777 69.872L 88.497 72.816L 88.145 73.296L 87.985 73.936L 87.633 74.544L 87.441 75.12L 84.177 81.968L 83.985 82.672L 83.665 83.152L 83.441 83.792L 82.865 84.816L 82.385 86.096L 82.033 86.544L 81.873 87.12L 81.233 88.4L 81.041 89.04L 81.201 89.84L 81.841 90.032L 83.089 89.968L 83.729 90.032L 85.521 89.968L 86.257 89.744L 86.865 89.168L 87.441 88.112L 88.049 87.504L 88.721 87.152L 89.329 87.248L 90.673 87.12L 91.249 87.216L 94.385 87.184L 94.961 87.248L 95.665 87.152L 96.369 87.504L 96.977 88.016L 97.265 88.624L 97.457 89.2L 98.097 89.68L 98.833 90L 99.505 90.064ZM 92.241 82.096L 91.601 81.968L 90.865 82.032L 90.353 81.808L 90.321 81.2L 91.825 77.744L 92.177 77.456L 92.625 77.712L 94.129 81.232L 94.001 81.808L 93.521 82.064L 92.241 82.096ZM 116.819 90.096L 118.387 90.032L 118.963 90.064L 119.699 90L 120.371 89.744L 120.659 89.072L 120.627 88.432L 120.659 87.728L 120.595 86.544L 120.659 85.936L 120.627 85.2L 120.915 84.624L 121.651 84.272L 122.355 84.208L 123.027 84.336L 126.323 84.08L 129.363 82.864L 129.843 82.48L 130.291 81.968L 130.707 81.552L 131.123 81.072L 131.795 80.048L 132.339 78.8L 132.435 78.096L 132.627 77.584L 132.691 74.96L 132.563 74.416L 132.467 73.712L 132.083 72.528L 131.475 71.44L 130.707 70.384L 129.267 69.136L 128.211 68.432L 126.931 68.048L 126.387 67.824L 125.747 67.824L 125.107 67.6L 124.147 67.568L 123.123 67.6L 122.419 67.696L 120.467 67.664L 119.827 67.568L 117.843 67.696L 117.139 67.664L 116.563 67.568L 115.891 67.696L 115.219 68.048L 114.931 68.56L 114.963 72.432L 114.835 73.712L 114.899 74.32L 114.867 82.608L 114.931 83.216L 114.899 89.136L 115.251 89.744L 116.243 90.064L 116.819 90.096ZM 121.619 79.152L 120.979 78.768L 120.691 78.224L 120.595 75.632L 120.659 74.96L 120.659 73.648L 120.979 73.04L 121.651 72.72L 124.979 72.816L 125.619 73.104L 126.131 73.456L 126.547 73.872L 126.867 74.512L 126.963 75.088L 127.027 75.984L 126.963 76.848L 126.739 77.424L 126.451 77.936L 126.035 78.448L 125.523 78.832L 125.011 78.992L 124.019 79.12L 122.387 79.088L 121.619 79.152ZM 146.426 90.416L 149.274 90.128L 150.49 89.744L 153.338 88.464L 155.578 86.32L 155.994 85.744L 157.242 83.536L 157.466 82.928L 157.562 82.288L 157.754 81.776L 157.882 81.072L 158.042 78.832L 157.882 76.624L 157.626 75.44L 157.37 74.768L 157.21 74.032L 156.634 72.976L 156.41 72.4L 155.994 71.856L 155.61 71.472L 155.194 70.896L 153.818 69.648L 152.186 68.624L 147.994 67.312L 146.49 67.28L 144.25 67.408L 143.61 67.536L 142.97 67.728L 142.394 67.984L 141.178 68.304L 139.546 69.328L 139.098 69.712L 138.074 70.416L 137.21 71.376L 136.122 72.976L 135.834 73.52L 135.226 75.28L 134.97 76.656L 134.842 80.368L 135.194 82.384L 135.674 83.472L 135.866 84.144L 136.186 84.72L 137.69 86.768L 138.586 87.632L 139.002 88.112L 141.178 89.264L 141.786 89.52L 144.506 90.32L 146.426 90.416ZM 145.53 84.784L 144.89 84.56L 144.314 84.496L 143.226 83.92L 142.234 83.056L 141.914 82.608L 141.498 82.16L 140.89 80.368L 140.73 78.768L 140.762 77.808L 140.986 76.624L 141.178 76.048L 141.562 75.6L 141.85 75.056L 142.266 74.544L 142.746 74.128L 143.674 73.488L 144.25 73.2L 144.922 73.04L 146.394 72.912L 147.93 73.008L 149.626 73.744L 150.618 74.48L 151.354 75.568L 151.61 76.144L 151.802 76.784L 152.026 77.36L 152.154 78.736L 151.962 80.336L 151.674 81.648L 151.322 82.128L 151.034 82.608L 150.65 83.184L 149.658 83.952L 149.082 84.208L 148.57 84.496L 147.994 84.56L 147.386 84.72L 145.53 84.784ZM 158.953 89.136L 159.081 89.84L 159.753 90.128L 163.081 89.968L 163.753 90.064L 164.425 90.096L 165.257 89.872L 165.897 89.264L 166.217 88.688L 166.569 87.952L 167.561 86.352L 168.137 85.168L 168.777 84.048L 169.065 83.44L 169.769 82.224L 170.345 81.744L 171.209 81.52L 171.881 81.84L 172.137 82.512L 172.169 89.072L 172.457 89.648L 173.097 90.064L 173.737 90.064L 174.409 89.968L 176.329 90.096L 177.033 90L 177.673 89.648L 177.961 88.976L 177.993 87.696L 177.929 87.088L 177.929 86.544L 178.025 85.872L 177.961 83.856L 177.993 83.184L 177.961 82.48L 178.249 81.936L 178.889 81.584L 179.689 81.68L 180.361 82.288L 180.649 82.928L 180.969 83.408L 181.257 84.016L 181.961 85.168L 182.249 85.84L 184.233 89.2L 184.873 89.84L 186.089 90.096L 187.081 90L 189.033 90.032L 189.641 90.128L 191.049 89.872L 191.209 89.104L 190.857 88.4L 190.473 87.92L 189.865 86.8L 189.481 86.256L 189.193 85.712L 188.777 85.232L 185.417 79.92L 185.289 79.152L 185.545 78.384L 186.217 77.232L 186.665 75.984L 186.857 75.312L 187.113 74.736L 187.497 73.104L 187.881 72.304L 188.361 71.856L 188.873 71.632L 189.513 71.632L 190.057 71.28L 190.409 70.608L 190.441 69.264L 190.345 68.592L 190.121 68.016L 189.417 67.568L 188.137 67.344L 186.889 67.312L 186.281 67.504L 185.705 67.568L 184.489 68.08L 183.945 68.496L 183.497 68.912L 183.081 69.456L 182.761 70L 182.537 70.608L 181.993 73.104L 181.545 74.288L 181.257 74.8L 180.841 75.376L 180.009 75.952L 179.113 76.304L 178.313 76.048L 177.929 75.376L 177.993 72.912L 177.929 72.4L 177.993 71.664L 177.993 68.56L 177.641 67.92L 176.969 67.632L 176.393 67.6L 175.721 67.664L 173.065 67.632L 172.457 67.984L 172.137 68.592L 172.169 69.232L 172.105 70.48L 172.169 71.12L 172.169 72.976L 172.105 73.616L 172.105 74.16L 172.201 74.864L 172.201 75.44L 171.817 76.048L 170.985 76.304L 170.025 75.856L 169.289 75.376L 168.841 74.768L 168.585 74.288L 168.137 73.168L 167.529 70.672L 167.017 69.52L 166.153 68.496L 164.713 67.696L 163.849 67.44L 163.209 67.376L 162.569 67.44L 161.897 67.344L 161.289 67.344L 160.681 67.536L 160.073 67.984L 159.753 69.008L 159.689 69.648L 159.689 70.704L 160.009 71.28L 161.705 71.92L 162.185 72.368L 162.569 73.168L 163.881 77.264L 164.233 77.872L 164.585 78.32L 164.745 79.088L 164.649 79.92L 163.977 80.944L 163.689 81.552L 163.273 82.064L 162.953 82.544L 162.665 83.088L 162.249 83.568L 160.233 86.8L 159.977 87.408L 159.593 87.888L 158.953 89.136ZM 192.739 92.976L 193.123 93.584L 193.955 93.872L 196.067 93.872L 196.675 93.936L 197.283 93.904L 197.891 93.52L 198.307 92.88L 198.307 92.24L 198.211 91.6L 198.243 90.992L 198.595 90.352L 199.235 90.032L 199.907 89.936L 202.435 90.064L 203.139 89.968L 203.747 90.064L 208.931 90.032L 209.603 90.32L 209.891 91.024L 209.987 92.208L 209.955 92.944L 210.275 93.552L 210.851 93.936L 211.427 93.936L 212.003 93.808L 212.707 93.904L 213.251 93.904L 213.795 93.84L 214.435 93.904L 215.075 93.616L 215.331 92.944L 215.395 89.104L 215.299 88.24L 215.395 86L 215.107 85.328L 214.531 85.072L 213.955 85.104L 213.411 84.784L 213.123 84.016L 213.123 81.52L 213.059 80.88L 213.155 75.696L 213.091 75.056L 213.155 73.744L 213.091 73.2L 213.091 72.496L 213.187 71.76L 213.091 71.152L 213.155 70.512L 213.091 68.624L 212.803 67.952L 212.131 67.6L 211.139 67.696L 209.603 67.6L 208.963 67.664L 207.619 67.6L 206.979 67.632L 206.083 67.536L 205.379 67.632L 203.139 67.568L 202.499 67.664L 201.827 67.536L 201.219 67.664L 199.267 67.696L 198.659 67.632L 197.955 67.92L 197.571 68.56L 197.411 69.808L 197.411 70.48L 197.251 71.088L 197.251 71.76L 196.419 78.192L 196.451 78.672L 195.843 83.184L 195.395 84.272L 194.979 84.656L 194.499 84.944L 193.763 85.008L 192.995 85.392L 192.835 86L 192.803 86.672L 192.835 87.248L 192.771 88.56L 192.835 89.84L 192.771 90.992L 192.835 91.696L 192.739 92.976ZM 201.891 85.2L 201.411 85.008L 201.347 84.368L 201.635 83.312L 202.691 73.616L 203.011 73.008L 204.067 72.624L 205.059 72.592L 205.667 72.72L 206.307 72.624L 207.011 73.04L 207.299 73.616L 207.267 80.56L 207.331 81.136L 207.331 84.336L 207.011 84.88L 206.403 85.136L 203.811 85.264L 202.531 85.136L 201.891 85.2ZM 227.823 90.096L 232.399 90.032L 233.072 89.744L 233.424 89.072L 233.424 85.84L 233.072 85.2L 232.399 84.912L 231.663 84.976L 231.056 84.88L 229.424 84.848L 228.368 84.976L 227.727 84.912L 227.024 84.944L 226.415 84.848L 225.712 84.912L 225.04 84.592L 224.783 84.016L 224.783 82L 225.071 81.328L 225.648 80.976L 226.608 80.944L 227.632 81.04L 228.847 80.976L 230.16 81.008L 230.8 80.944L 231.535 80.976L 232.175 80.72L 232.399 80.08L 232.495 77.2L 232.175 76.304L 231.439 75.888L 229.552 75.888L 228.88 75.952L 227.535 75.856L 225.679 75.92L 225.007 75.632L 224.752 74.64L 224.752 73.648L 225.04 73.04L 225.743 72.784L 226.351 72.816L 226.96 72.688L 231.535 72.752L 232.144 72.72L 232.816 72.336L 233.135 71.76L 233.104 71.12L 233.135 70.48L 233.072 68.56L 232.784 67.952L 232.144 67.696L 231.472 67.696L 230.896 67.568L 228.304 67.6L 227.599 67.664L 226.96 67.6L 226.415 67.632L 225.776 67.568L 223.152 67.632L 222.511 67.536L 221.904 67.664L 221.327 67.6L 220.688 67.664L 220.047 67.632L 219.375 67.888L 219.023 68.56L 219.088 69.776L 218.991 71.088L 219.088 71.792L 219.023 74.928L 219.119 75.6L 219.056 76.208L 219.023 78.832L 219.119 79.408L 219.088 84.592L 219.023 85.2L 219.119 85.84L 219.023 88.048L 219.088 88.752L 219.343 89.616L 220.303 90.032L 222.608 90.064L 223.312 90L 223.887 90.032L 225.2 89.936L 225.807 90.064L 226.543 90.096L 227.184 90.032L 227.823 90.096ZM 237.367 89.104L 237.751 89.712L 238.359 90.064L 238.999 90.032L 240.279 90.096L 240.951 90.032L 242.295 90.064L 242.967 89.68L 243.223 89.072L 243.287 88.464L 243.223 87.76L 243.223 82.096L 243.511 81.424L 244.183 81.008L 247.959 80.976L 248.631 81.072L 249.207 81.072L 249.815 81.424L 250.135 82.032L 250.167 89.104L 250.519 89.616L 251.447 90.032L 253.111 90.032L 253.751 89.968L 255.063 90.064L 255.671 89.648L 256.055 89.104L 255.991 86.192L 256.087 85.168L 255.991 84.656L 256.023 68.592L 255.735 67.92L 255.095 67.664L 251.415 67.632L 250.487 67.856L 250.167 68.624L 250.135 69.84L 250.199 70.384L 250.135 71.696L 250.231 72.304L 250.199 74.8L 249.847 75.44L 249.207 75.792L 248.599 75.696L 247.351 75.824L 246.679 75.76L 246.103 75.824L 244.215 75.792L 243.607 75.504L 243.287 74.896L 243.255 74.192L 243.255 73.52L 243.223 72.944L 243.255 70.448L 243.319 69.744L 243.255 68.56L 242.967 67.952L 242.295 67.6L 241.591 67.664L 238.423 67.6L 237.719 67.92L 237.399 68.56L 237.335 69.264L 237.399 71.76L 237.335 72.4L 237.463 73.712L 237.399 74.928L 237.431 75.696L 237.367 76.336L 237.367 85.904L 237.463 86.48L 237.367 89.104ZM 278.533 90.096L 279.237 90L 279.909 89.68L 280.197 89.072L 280.133 87.12L 280.229 85.872L 280.165 85.264L 280.197 77.424L 280.133 76.88L 280.133 76.24L 280.197 75.6L 280.197 74.864L 280.133 74.288L 280.133 69.808L 280.197 69.136L 280.197 68.528L 279.781 67.792L 279.141 67.536L 278.245 67.728L 277.445 68.112L 271.109 74.448L 270.597 74.832L 267.461 77.968L 266.949 78.128L 266.757 77.68L 266.789 77.008L 266.725 76.4L 266.821 70.608L 266.757 69.84L 266.757 68.624L 266.469 67.984L 265.733 67.568L 265.157 67.664L 264.453 67.536L 263.813 67.664L 261.829 67.6L 261.189 67.92L 260.837 68.688L 260.869 85.296L 260.805 86L 260.901 86.96L 260.805 88.496L 260.869 89.072L 261.157 89.84L 261.829 90.064L 262.789 89.936L 263.557 89.52L 264.101 89.04L 264.549 88.464L 266.725 86.384L 267.269 86L 267.685 85.456L 269.509 83.76L 271.237 81.872L 271.749 81.424L 272.197 80.944L 273.637 79.728L 273.989 79.504L 274.277 79.952L 274.277 80.624L 274.213 81.264L 274.309 82.288L 274.245 83.312L 274.309 83.888L 274.213 84.528L 274.213 89.104L 274.533 89.744L 275.205 89.968L 275.845 90.032L 278.533 90.096ZM 283.65 89.168L 283.81 89.84L 284.546 90L 288.706 90L 289.794 89.776L 290.338 89.2L 290.69 88.752L 291.074 88.112L 291.33 87.536L 291.714 87.088L 292.962 84.816L 293.314 84.336L 293.89 83.728L 294.626 83.408L 295.874 83.472L 296.45 83.76L 296.706 84.368L 296.77 87.152L 296.706 87.728L 296.738 88.784L 297.026 89.712L 297.73 89.968L 300.29 90L 300.866 90.064L 301.538 90.032L 302.114 89.712L 302.434 89.008L 302.466 88.464L 302.402 87.12L 302.498 86.544L 302.402 82.928L 302.466 82.352L 302.466 81.68L 302.402 81.104L 302.498 80.112L 302.402 77.936L 302.53 76.272L 302.434 74.64L 302.53 73.104L 302.434 72.464L 302.498 71.824L 302.402 69.872L 302.498 68.56L 302.146 67.92L 301.218 67.664L 298.978 67.696L 298.37 67.6L 297.794 67.664L 297.122 67.664L 296.482 67.568L 295.202 67.696L 294.53 67.664L 293.986 67.728L 292.93 67.632L 290.05 68.048L 289.41 68.304L 288.834 68.496L 288.258 68.752L 287.266 69.552L 286.37 70.48L 285.698 71.536L 285.378 72.176L 284.834 73.872L 284.738 74.512L 284.642 76.528L 284.93 77.712L 285.378 78.96L 285.666 79.408L 285.89 80.08L 286.69 81.04L 287.202 81.424L 287.458 82.256L 287.362 82.992L 284.034 88.368L 283.65 89.168ZM 293.986 78.224L 292.098 78.16L 291.49 77.872L 291.074 77.52L 290.722 76.944L 290.53 76.464L 290.37 75.472L 290.434 74.608L 290.69 74.096L 291.042 73.552L 291.522 73.2L 292.066 72.976L 292.994 72.784L 293.634 72.848L 294.242 72.784L 295.81 72.784L 296.418 73.104L 296.77 73.68L 296.802 76.208L 296.706 76.816L 296.706 77.424L 296.386 78.032L 295.778 78.256L 293.986 78.224ZM 314.346 85.072L 315.114 84.848L 315.69 84.08L 315.946 83.568L 316.266 83.216L 316.874 82.288L 317.098 81.84L 317.418 81.488L 317.962 80.528L 318.314 80.176L 318.538 79.664L 318.826 79.248L 318.826 78.448L 318.026 77.104L 317.738 76.72L 317.418 76.24L 317.13 75.888L 316.298 74.576L 315.946 74.16L 315.146 72.848L 314.346 72.56L 313.962 72.816L 313.066 73.168L 312.618 73.456L 312.362 74.096L 313.098 76.048L 313.354 76.432L 313.93 77.904L 314.154 78.352L 314.122 79.248L 312.522 83.184L 312.266 83.664L 312.554 84.336L 313.034 84.496L 313.45 84.72L 313.898 84.848L 314.346 85.072ZM 308.554 85.104L 309.258 84.944L 309.61 84.496L 309.834 84.048L 310.698 82.672L 311.05 82.32L 311.626 81.488L 311.85 80.944L 312.17 80.624L 313.066 79.312L 313.034 78.448L 312.778 77.968L 312.138 77.104L 311.626 76.24L 311.274 75.856L 311.05 75.408L 309.29 72.848L 308.522 72.656L 308.106 72.848L 307.658 72.944L 307.21 73.232L 306.762 73.424L 306.538 74.128L 307.274 75.952L 307.562 76.4L 307.722 76.976L 307.914 77.392L 308.138 77.936L 308.33 78.352L 308.298 79.28L 308.17 79.824L 306.442 83.664L 306.698 84.336L 307.594 84.656L 308.042 84.912L 308.554 85.104Z"/>
<path id="path1_fill" d="M 102.499 51.938L 95.1071 51.938L 95.1071 59L 93.2811 59L 93.2811 43.6L 95.1071 43.6L 95.1071 50.31L 102.499 50.31L 102.499 43.6L 104.325 43.6L 104.325 59L 102.499 59L 102.499 51.938ZM 107.71 48.814C 108.268 48.4767 108.913 48.2273 109.646 48.066C 110.394 47.9047 111.172 47.824 111.978 47.824C 112.741 47.824 113.35 47.9267 113.804 48.132C 114.274 48.3373 114.626 48.6087 114.86 48.946C 115.11 49.2687 115.271 49.628 115.344 50.024C 115.432 50.42 115.476 50.816 115.476 51.212C 115.476 52.092 115.454 52.95 115.41 53.786C 115.366 54.622 115.344 55.414 115.344 56.162C 115.344 56.7047 115.366 57.218 115.41 57.702C 115.454 58.186 115.535 58.6333 115.652 59.044L 114.354 59.044L 113.892 57.504L 113.782 57.504C 113.65 57.7093 113.482 57.9147 113.276 58.12C 113.086 58.3107 112.851 58.4867 112.572 58.648C 112.294 58.7947 111.971 58.9193 111.604 59.022C 111.238 59.1247 110.82 59.176 110.35 59.176C 109.881 59.176 109.441 59.1027 109.03 58.956C 108.634 58.8093 108.29 58.604 107.996 58.34C 107.703 58.0613 107.468 57.7313 107.292 57.35C 107.131 56.9687 107.05 56.536 107.05 56.052C 107.05 55.4067 107.182 54.8713 107.446 54.446C 107.71 54.006 108.077 53.6613 108.546 53.412C 109.03 53.148 109.602 52.9647 110.262 52.862C 110.937 52.7447 111.678 52.686 112.484 52.686C 112.69 52.686 112.888 52.686 113.078 52.686C 113.284 52.686 113.489 52.7007 113.694 52.73C 113.738 52.29 113.76 51.894 113.76 51.542C 113.76 50.7353 113.599 50.1707 113.276 49.848C 112.954 49.5253 112.367 49.364 111.516 49.364C 111.267 49.364 110.996 49.386 110.702 49.43C 110.424 49.4593 110.13 49.5107 109.822 49.584C 109.529 49.6427 109.243 49.7233 108.964 49.826C 108.7 49.914 108.466 50.0167 108.26 50.134L 107.71 48.814ZM 110.834 57.636C 111.245 57.636 111.612 57.5847 111.934 57.482C 112.257 57.3647 112.536 57.2253 112.77 57.064C 113.005 56.888 113.196 56.6973 113.342 56.492C 113.504 56.2867 113.621 56.0887 113.694 55.898L 113.694 54.072C 113.489 54.0573 113.276 54.05 113.056 54.05C 112.851 54.0353 112.646 54.028 112.44 54.028C 111.986 54.028 111.538 54.0573 111.098 54.116C 110.673 54.16 110.292 54.2553 109.954 54.402C 109.632 54.534 109.368 54.7247 109.162 54.974C 108.972 55.2087 108.876 55.5093 108.876 55.876C 108.876 56.3893 109.06 56.8147 109.426 57.152C 109.793 57.4747 110.262 57.636 110.834 57.636ZM 127.438 54.05L 126.426 54.05L 126.426 59L 124.666 59L 124.666 48L 126.426 48L 126.426 52.972L 127.372 52.664L 130.892 48L 132.806 48L 129.396 52.422L 128.472 53.148L 129.616 54.028L 133.29 59L 131.112 59L 127.438 54.05ZM 134.319 53.5C 134.319 51.6373 134.73 50.2147 135.551 49.232C 136.387 48.2347 137.583 47.736 139.137 47.736C 139.959 47.736 140.67 47.8753 141.271 48.154C 141.887 48.418 142.393 48.8067 142.789 49.32C 143.185 49.8187 143.479 50.4273 143.669 51.146C 143.86 51.85 143.955 52.6347 143.955 53.5C 143.955 55.3627 143.537 56.7927 142.701 57.79C 141.88 58.7727 140.692 59.264 139.137 59.264C 138.316 59.264 137.597 59.132 136.981 58.868C 136.38 58.5893 135.881 58.2007 135.485 57.702C 135.089 57.1887 134.796 56.58 134.605 55.876C 134.415 55.1573 134.319 54.3653 134.319 53.5ZM 136.145 53.5C 136.145 54.0573 136.197 54.5927 136.299 55.106C 136.417 55.6193 136.593 56.0667 136.827 56.448C 137.062 56.8293 137.37 57.1373 137.751 57.372C 138.133 57.6067 138.595 57.724 139.137 57.724C 141.132 57.7387 142.129 56.3307 142.129 53.5C 142.129 52.928 142.071 52.3853 141.953 51.872C 141.851 51.3587 141.682 50.9113 141.447 50.53C 141.213 50.1487 140.905 49.848 140.523 49.628C 140.142 49.3933 139.68 49.276 139.137 49.276C 137.143 49.2613 136.145 50.6693 136.145 53.5ZM 152.519 49.54L 149.329 49.54C 149.285 50.156 149.241 50.8233 149.197 51.542C 149.153 52.246 149.087 52.9573 148.999 53.676C 148.911 54.38 148.794 55.062 148.647 55.722C 148.501 56.3673 148.31 56.9393 148.075 57.438C 147.855 57.9367 147.577 58.34 147.239 58.648C 146.917 58.9413 146.528 59.088 146.073 59.088C 145.795 59.088 145.553 59.0733 145.347 59.044C 145.142 59.0147 144.959 58.9633 144.797 58.89L 145.061 57.416C 145.237 57.4747 145.428 57.504 145.633 57.504C 145.927 57.504 146.191 57.3793 146.425 57.13C 146.66 56.8807 146.865 56.4113 147.041 55.722C 147.217 55.018 147.364 54.05 147.481 52.818C 147.599 51.586 147.679 49.98 147.723 48L 154.279 48L 154.279 59L 152.519 59L 152.519 49.54ZM 163.584 49.54L 160.394 49.54C 160.35 50.156 160.306 50.8233 160.262 51.542C 160.218 52.246 160.152 52.9573 160.064 53.676C 159.976 54.38 159.858 55.062 159.712 55.722C 159.565 56.3673 159.374 56.9393 159.14 57.438C 158.92 57.9367 158.641 58.34 158.304 58.648C 157.981 58.9413 157.592 59.088 157.138 59.088C 156.859 59.088 156.617 59.0733 156.412 59.044C 156.206 59.0147 156.023 58.9633 155.862 58.89L 156.126 57.416C 156.302 57.4747 156.492 57.504 156.698 57.504C 156.991 57.504 157.255 57.3793 157.49 57.13C 157.724 56.8807 157.93 56.4113 158.106 55.722C 158.282 55.018 158.428 54.05 158.546 52.818C 158.663 51.586 158.744 49.98 158.788 48L 165.344 48L 165.344 59L 163.584 59L 163.584 49.54ZM 176.76 58.12C 176.32 58.472 175.763 58.7507 175.088 58.956C 174.428 59.1613 173.724 59.264 172.976 59.264C 172.14 59.264 171.414 59.132 170.798 58.868C 170.182 58.5893 169.676 58.2007 169.28 57.702C 168.884 57.1887 168.591 56.58 168.4 55.876C 168.209 55.172 168.114 54.38 168.114 53.5C 168.114 51.6227 168.532 50.1927 169.368 49.21C 170.204 48.2273 171.399 47.736 172.954 47.736C 173.453 47.736 173.951 47.7947 174.45 47.912C 174.949 48.0147 175.396 48.22 175.792 48.528C 176.188 48.836 176.511 49.276 176.76 49.848C 177.009 50.4053 177.134 51.146 177.134 52.07C 177.134 52.554 177.09 53.0893 177.002 53.676L 169.94 53.676C 169.94 54.3213 170.006 54.8933 170.138 55.392C 170.27 55.8907 170.475 56.316 170.754 56.668C 171.033 57.0053 171.392 57.2693 171.832 57.46C 172.287 57.636 172.837 57.724 173.482 57.724C 173.981 57.724 174.479 57.636 174.978 57.46C 175.477 57.284 175.851 57.0787 176.1 56.844L 176.76 58.12ZM 172.976 49.276C 172.111 49.276 171.414 49.5033 170.886 49.958C 170.373 50.4127 170.065 51.19 169.962 52.29L 175.418 52.29C 175.418 51.1753 175.205 50.398 174.78 49.958C 174.355 49.5033 173.753 49.276 172.976 49.276ZM 182.674 54.05L 181.662 54.05L 181.662 59L 179.902 59L 179.902 48L 181.662 48L 181.662 52.972L 182.608 52.664L 186.128 48L 188.042 48L 184.632 52.422L 183.708 53.148L 184.852 54.028L 188.526 59L 186.348 59L 182.674 54.05ZM 200.286 61.794L 199.098 61.794L 198.768 59L 190.408 59L 190.408 48L 192.168 48L 192.168 57.46L 196.942 57.46L 196.942 48L 198.702 48L 198.702 57.46L 200.286 57.46L 200.286 61.794ZM 209.325 52.488L 209.391 51.124L 209.325 51.124L 208.423 52.532L 203.473 59L 202.461 59L 202.461 48L 204.221 48L 204.221 54.71L 204.155 56.008L 204.243 56.008L 205.101 54.644L 210.051 48L 211.085 48L 211.085 59L 209.325 59L 209.325 52.488ZM 223.006 59.264C 222.214 59.264 221.532 59.1467 220.96 58.912C 220.403 58.6627 219.941 58.318 219.574 57.878C 219.222 57.4233 218.951 56.8807 218.76 56.25C 218.584 55.6047 218.474 54.9007 218.43 54.138L 216.23 54.138L 216.23 59L 214.47 59L 214.47 48L 216.23 48L 216.23 52.598L 218.452 52.598C 218.57 51.0287 218.995 49.826 219.728 48.99C 220.476 48.154 221.584 47.736 223.05 47.736C 223.857 47.736 224.539 47.8753 225.096 48.154C 225.668 48.418 226.13 48.8067 226.482 49.32C 226.849 49.8187 227.113 50.4273 227.274 51.146C 227.436 51.85 227.516 52.6347 227.516 53.5C 227.516 55.3627 227.142 56.7927 226.394 57.79C 225.661 58.7727 224.532 59.264 223.006 59.264ZM 220.168 53.5C 220.168 54.072 220.212 54.6147 220.3 55.128C 220.388 55.6413 220.542 56.096 220.762 56.492C 220.982 56.8733 221.276 57.174 221.642 57.394C 222.024 57.614 222.493 57.724 223.05 57.724C 223.989 57.724 224.664 57.3867 225.074 56.712C 225.485 56.0227 225.69 54.952 225.69 53.5C 225.69 52.928 225.646 52.3853 225.558 51.872C 225.485 51.3587 225.346 50.9113 225.14 50.53C 224.935 50.134 224.664 49.826 224.326 49.606C 223.989 49.386 223.556 49.276 223.028 49.276C 222.016 49.276 221.283 49.6207 220.828 50.31C 220.388 50.9847 220.168 52.048 220.168 53.5Z"/>
</defs>
</svg>
